<svg width="10" height="10" viewBox="0 0 10 10" fill="none" xmlns="http://www.w3.org/2000/svg">
<path d="M9.59091 10C9.5 10 9.31818 10 9.22727 9.90868L0.136364 0.776256C-0.0454545 0.593607 -0.0454545 0.319635 0.136364 0.136986C0.318182 -0.0456621 0.590909 -0.0456621 0.772727 0.136986L9.86364 9.26941C10.0455 9.45206 10.0455 9.72603 9.86364 9.90868C9.86364 10 9.68182 10 9.59091 10Z" fill="#A0A0A0"/>
<path d="M0.5 10C0.409091 10 0.227273 10 0.136364 9.90868C-0.0454545 9.72603 -0.0454545 9.45206 0.136364 9.26941L9.22727 0.136986C9.40909 -0.0456621 9.68182 -0.0456621 9.86364 0.136986C10.0455 0.319635 10.0455 0.593607 9.86364 0.776256L0.772727 9.90868C0.772727 10 0.590909 10 0.5 10Z" fill="#A0A0A0"/>
</svg>
