<svg width="14" height="14" viewBox="0 0 14 14" fill="none" xmlns="http://www.w3.org/2000/svg">
<path d="M6.99997 13.9999C10.8225 13.9999 14 10.8225 14 6.99997C14 3.17057 10.8157 0 6.99312 0C3.16369 0 0 3.17057 0 6.99997C0 10.8225 3.17057 13.9999 6.99997 13.9999ZM5.20879 8.70881C3.50684 7.0137 2.42253 4.85192 3.70586 3.56862C3.78135 3.4931 3.86371 3.41762 3.9392 3.34213C4.33036 2.97155 4.70782 2.99214 5.04409 3.46567L5.93625 4.73526C6.23819 5.17448 6.16271 5.42155 5.84018 5.76469L5.55879 6.07352C5.45587 6.16956 5.49703 6.29998 5.54508 6.38232C5.67547 6.62939 6.04605 7.0686 6.44407 7.46665C6.85585 7.8784 7.27448 8.22839 7.53525 8.37252C7.63135 8.42742 7.76859 8.44115 7.85781 8.35878L8.15291 8.07742C8.48232 7.75486 8.74998 7.67252 9.17546 7.97447C9.76564 8.3931 10.1225 8.64017 10.4725 8.88036C10.9049 9.19604 11.0078 9.58724 10.5686 9.98525C10.4931 10.0607 10.4245 10.1431 10.349 10.2186C9.06565 11.4951 6.91075 10.4107 5.20879 8.70881Z" fill="#21409A"/>
</svg>
