<svg width="99" height="48" viewBox="0 0 99 48" fill="none" xmlns="http://www.w3.org/2000/svg">
<path d="M54.6608 19.8493L54.6462 10.9161H38.4564L38.3689 48H54.6414C54.6414 45.7983 54.6462 43.1883 54.6414 41.0498L45.7377 40.9915V33.5747H54.6171V26.1093H45.728V19.8493H54.6608Z" fill="#DE2227"/>
<path d="M57.5267 19.7181H62.8019V47.8737H71.2636V19.6452H76.2619L76.2862 10.8141H57.5267V19.7181Z" fill="#273E7C"/>
<path d="M98.9801 33.7545V33.6039H98.781H98.7518H95.1865H91.83C91.8106 33.7594 91.8737 36.4909 91.8008 37.7351C91.7037 39.5188 91.4997 40.8602 88.6386 40.8797C87.0163 40.8894 86.0351 39.616 86.0302 37.8323C86.0108 32.1749 86.001 26.5224 86.0545 20.87C86.0593 20.2187 86.0788 19.4848 86.4382 18.9502C87.1425 17.9003 88.4006 17.983 89.5858 18.0316C91.0139 18.0899 91.8203 18.9599 91.8203 20.6464C91.8203 21.9246 91.8203 22.9064 91.8203 24.209H98.9947L98.9753 18.1142C98.9753 13.4046 94.3947 11.3438 90.9605 11.0425C88.1432 10.7946 87.0308 10.8189 84.2135 11.0619C80.8813 11.3536 78.234 14.6731 78.2097 18.3378C78.166 25.7205 78.1611 33.1081 78.2097 40.4957C78.2389 44.4568 81.3233 47.7958 84.9518 47.8785C87.3854 47.9368 89.0855 48.0437 91.524 47.9708C94.793 47.8785 98.5964 44.7679 98.8879 41.215C99.0822 38.7995 98.9607 36.1895 98.9801 33.7545Z" fill="#273E7C"/>
<path d="M0.13098 10.4204C0.13098 10.4398 0.13098 10.4544 0.13098 10.4739C0.13098 10.503 0.13098 10.5273 0.13098 10.5565C0.13098 10.5808 0.13098 10.6051 0.135837 10.6294C0.140694 10.8287 0.155267 11.0328 0.194126 11.2369C0.602151 13.5018 2.80257 15.0182 5.10986 14.6148C7.1597 14.26 8.60236 12.5152 8.61208 10.5419C8.61208 10.5079 8.61208 10.4787 8.61208 10.4447C8.61208 10.4301 8.61208 10.4155 8.61208 10.401C8.61208 10.3961 8.61208 10.3912 8.61208 10.3864C8.61208 10.3669 8.61208 10.3524 8.61208 10.3329C8.61208 10.3038 8.61208 10.2795 8.61208 10.2503C8.61208 10.2163 8.60722 10.1871 8.60722 10.1531C8.60722 10.1142 8.60236 10.0802 8.5975 10.0413C8.5975 10.017 8.5975 9.99756 8.59265 9.97326C8.59265 9.95867 8.58779 9.94409 8.58779 9.92951C8.58293 9.89549 8.57807 9.86633 8.57807 9.83231C8.57322 9.80315 8.56836 9.77885 8.5635 9.74968C8.55864 9.71566 8.55379 9.6865 8.54407 9.65248C8.53921 9.62332 8.53436 9.59415 8.5295 9.56499C8.52464 9.55041 8.51978 9.53583 8.51978 9.52125C8.51007 9.48723 8.50521 9.45321 8.4955 9.41919C8.49064 9.39488 8.48578 9.37544 8.47607 9.35114C8.46635 9.32198 8.46149 9.29282 8.45178 9.26366C8.44207 9.22963 8.43721 9.20047 8.42749 9.16645C8.42264 9.14701 8.41292 9.13243 8.40806 9.11785C8.39835 9.08383 8.38378 9.0498 8.37406 9.01578C8.3692 9.0012 8.36435 8.98662 8.35949 8.97204C8.35949 8.96718 8.35463 8.96232 8.35463 8.95746C8.34492 8.93316 8.33034 8.904 8.32063 8.8797C8.30606 8.84567 8.29634 8.81651 8.28663 8.78249C8.28177 8.76791 8.27205 8.74847 8.26234 8.73389C8.24777 8.69987 8.23319 8.6707 8.21862 8.63668C8.20891 8.61724 8.19919 8.59294 8.18948 8.5735C8.17491 8.5492 8.16033 8.5249 8.14576 8.49573C8.13119 8.46657 8.12147 8.43741 8.10204 8.41311C8.09233 8.39853 8.08261 8.38395 8.07776 8.36937C8.06318 8.34021 8.04375 8.3159 8.02918 8.28674C8.01461 8.26244 8.00004 8.23328 7.98546 8.20898C7.97089 8.17982 7.94661 8.15552 7.93203 8.13121C7.91746 8.10691 7.90289 8.08261 7.88346 8.05831C7.8786 8.04859 7.86889 8.03887 7.85917 8.02915C7.83974 8.00485 7.82517 7.98055 7.80574 7.95624C7.78631 7.92708 7.76688 7.90278 7.74745 7.87362C7.72802 7.84446 7.70373 7.82016 7.67945 7.79586C7.66002 7.77155 7.64544 7.75211 7.62601 7.72781C7.62116 7.72295 7.62116 7.71809 7.6163 7.71323C7.61144 7.70837 7.60659 7.70351 7.60659 7.70351C7.58716 7.68407 7.56773 7.65977 7.5483 7.64033C7.52401 7.61603 7.50458 7.58686 7.48029 7.56256C7.456 7.53826 7.43172 7.51882 7.40743 7.49452C7.388 7.47508 7.36371 7.45078 7.34428 7.43134C7.33457 7.42161 7.32485 7.41189 7.32 7.40217C7.30057 7.38273 7.27628 7.36329 7.25199 7.34385C7.2277 7.32441 7.20827 7.30011 7.18399 7.27581C7.1597 7.25637 7.13541 7.24179 7.11598 7.22234C7.0917 7.2029 7.06741 7.1786 7.04312 7.15916C7.02855 7.14944 7.01883 7.13972 7.00426 7.12514C6.97997 7.1057 6.95083 7.09112 6.92654 7.07168C6.90226 7.05223 6.88283 7.03279 6.85854 7.01821C6.83911 7.00363 6.81968 6.99391 6.80025 6.97933C6.7711 6.95989 6.74196 6.94045 6.71282 6.92101C6.69824 6.91129 6.68367 6.90157 6.6691 6.89185C6.63995 6.87241 6.61081 6.85782 6.57681 6.83838C6.55252 6.8238 6.52823 6.80922 6.50394 6.79464C6.49909 6.78978 6.49423 6.78978 6.48937 6.78492C6.4748 6.7752 6.46023 6.77034 6.45051 6.76548C6.41651 6.74604 6.38737 6.73146 6.35336 6.71202C6.33879 6.7023 6.32422 6.69258 6.30479 6.68772C6.27565 6.67313 6.24164 6.65855 6.2125 6.64397C6.18335 6.62939 6.15907 6.61481 6.12992 6.60509C6.11049 6.59537 6.08621 6.58565 6.06678 6.57593C6.03277 6.56135 6.00363 6.54677 5.96963 6.53705C5.95505 6.53219 5.94048 6.52247 5.92591 6.51761C5.89676 6.50789 5.86762 6.49816 5.84333 6.48844C5.81419 6.47872 5.78019 6.46414 5.75104 6.45442C5.7219 6.4447 5.69761 6.43498 5.66846 6.42526C5.63932 6.41554 5.60532 6.40582 5.57132 6.3961C5.55674 6.39124 5.54217 6.38638 5.5276 6.38152C5.50331 6.37666 5.48388 6.3718 5.45959 6.36694C5.42074 6.35722 5.38673 6.3475 5.34787 6.33778C5.31387 6.32805 5.28473 6.32319 5.25072 6.31347C5.22158 6.30861 5.19729 6.30375 5.16815 6.29889C5.14872 6.29403 5.13415 6.29403 5.11472 6.28917C5.10986 6.28917 5.105 6.28431 5.10014 6.28431C5.08557 6.27945 5.071 6.27945 5.05643 6.27945C5.01757 6.27459 4.97871 6.26487 4.93985 6.26001C4.90585 6.25515 4.86699 6.25029 4.83298 6.24543C4.8087 6.24057 4.78441 6.24057 4.76498 6.24057C4.74555 6.24057 4.72612 6.23571 4.70669 6.23571C4.6824 6.23571 4.65812 6.23085 4.63869 6.23085C4.60468 6.23085 4.56583 6.22599 4.53182 6.22599C4.49296 6.22599 4.4541 6.22599 4.41524 6.22599C4.40067 6.22599 4.3861 6.22599 4.37153 6.22599C4.36667 6.22599 4.36181 6.22599 4.35696 6.22599C4.33753 6.22599 4.3181 6.22599 4.30352 6.22599C4.27438 6.22599 4.24523 6.22599 4.22095 6.22599C4.18695 6.22599 4.15294 6.23085 4.1238 6.23085C4.08494 6.23085 4.04608 6.23571 4.01208 6.24057C3.98779 6.24057 3.9635 6.24057 3.94407 6.24543C3.9295 6.24543 3.91493 6.25029 3.90036 6.25029C3.86635 6.25515 3.83721 6.25515 3.80321 6.26001C3.77406 6.26487 3.74492 6.26973 3.72063 6.27459C3.68663 6.27945 3.65748 6.28431 3.62348 6.29403C3.59434 6.29889 3.56519 6.30375 3.53605 6.30861C3.52148 6.31347 3.5069 6.31833 3.48747 6.31833C3.45347 6.32806 3.41947 6.33292 3.38547 6.34264C3.36118 6.3475 3.34175 6.35236 3.31746 6.35722C3.28832 6.36694 3.25917 6.3718 3.23003 6.38152C3.19603 6.39124 3.16688 6.3961 3.13288 6.40582C3.11345 6.41068 3.09888 6.4204 3.07945 6.42526C3.04545 6.43498 3.01144 6.44956 2.97744 6.45928C2.96287 6.46414 2.9483 6.469 2.93372 6.47386C2.92887 6.47386 2.92401 6.47872 2.91915 6.47872C2.89001 6.48844 2.86572 6.49816 2.83658 6.51275C2.80257 6.52733 2.76857 6.53705 2.73943 6.54677C2.72485 6.55163 2.70542 6.56135 2.69085 6.57107C2.65685 6.58565 2.62771 6.60023 2.5937 6.61481C2.57427 6.62453 2.54999 6.63425 2.53056 6.64397C2.50627 6.65855 2.47712 6.67313 2.45284 6.68772C2.42369 6.7023 2.39455 6.71202 2.3654 6.7266C2.35083 6.73632 2.33626 6.74604 2.32169 6.7509C2.29254 6.76548 2.26825 6.78492 2.23911 6.7995C2.21482 6.81408 2.18568 6.82866 2.16139 6.84324C2.13225 6.85782 2.10796 6.87726 2.08367 6.89671C2.05938 6.91129 2.03024 6.92587 2.00595 6.94045C1.99624 6.94531 1.98652 6.95503 1.97681 6.96475C1.95252 6.97933 1.92823 6.99877 1.90395 7.01821C1.8748 7.03765 1.84566 7.05224 1.82137 7.07654C1.79223 7.09598 1.76794 7.12028 1.73879 7.13972C1.71451 7.15916 1.69508 7.17374 1.67079 7.19318C1.66593 7.19804 1.66107 7.19804 1.65622 7.2029C1.65136 7.20776 1.6465 7.21262 1.64164 7.21262C1.61736 7.23206 1.59793 7.25151 1.5785 7.27095C1.55421 7.29525 1.52507 7.31469 1.50078 7.33899C1.47649 7.36329 1.4522 7.38759 1.42792 7.41189C1.40849 7.43134 1.3842 7.45078 1.36477 7.47508C1.35506 7.4848 1.34534 7.49452 1.33563 7.49938C1.3162 7.51882 1.29677 7.54312 1.27734 7.56256C1.25305 7.58686 1.23362 7.60631 1.20933 7.63061C1.1899 7.65005 1.17047 7.67435 1.1559 7.69865C1.13647 7.72295 1.11218 7.74725 1.09275 7.77155C1.08304 7.78613 1.06847 7.79586 1.05875 7.81044C1.03932 7.83474 1.01989 7.8639 1.00046 7.8882C0.981032 7.9125 0.961602 7.93194 0.94703 7.95624C0.932458 7.97569 0.922743 7.99513 0.90817 8.01457C0.888741 8.04373 0.864453 8.07289 0.845024 8.10205C0.835309 8.11663 0.825594 8.13121 0.815879 8.1458C0.796449 8.17496 0.781877 8.20412 0.762447 8.23328C0.747875 8.25758 0.733303 8.28188 0.71873 8.30618C0.713873 8.31104 0.713873 8.3159 0.709015 8.32076C0.6993 8.33535 0.694443 8.34507 0.689586 8.35965C0.670156 8.38881 0.655583 8.42283 0.636154 8.45199C0.626439 8.46657 0.616724 8.48115 0.611866 8.50059C0.597294 8.52976 0.582722 8.55892 0.568149 8.59294C0.553577 8.6221 0.539005 8.6464 0.52929 8.67556C0.519575 8.69501 0.50986 8.71931 0.500145 8.73875C0.485573 8.77277 0.471001 8.80193 0.456428 8.83595C0.451571 8.85053 0.441856 8.86511 0.436998 8.8797C0.427284 8.90886 0.417569 8.93316 0.407854 8.96232C0.398139 8.99148 0.383567 9.0255 0.373852 9.05467C0.364137 9.07897 0.354422 9.10813 0.344707 9.13243C0.334992 9.16159 0.325277 9.19561 0.315562 9.22477C0.310705 9.23936 0.305847 9.25394 0.30099 9.26852C0.296133 9.28796 0.291275 9.31226 0.286418 9.33656C0.276703 9.37058 0.266988 9.40946 0.257273 9.44349C0.247558 9.47265 0.242701 9.50667 0.232986 9.53583C0.228128 9.56499 0.223271 9.58929 0.218414 9.61846C0.213556 9.6379 0.208699 9.65248 0.208699 9.67192C0.208699 9.67678 0.203841 9.68164 0.203841 9.6865C0.198984 9.70108 0.198984 9.71566 0.198984 9.73024C0.194126 9.76912 0.184411 9.80315 0.179554 9.84203C0.174697 9.87605 0.169839 9.91493 0.164982 9.94895C0.160124 9.97326 0.160124 9.9927 0.160124 10.017C0.160124 10.0364 0.155267 10.0559 0.155267 10.0753C0.155267 10.0996 0.150409 10.1191 0.150409 10.1434C0.150409 10.1774 0.145552 10.2163 0.145552 10.2503C0.145552 10.2892 0.145552 10.3281 0.145552 10.3621C0.145552 10.3767 0.145552 10.3912 0.145552 10.4058C0.13098 10.4107 0.13098 10.4155 0.13098 10.4204Z" fill="#273E7C"/>
<path d="M9.80718 17.8955C9.95291 17.7157 10.1083 17.531 10.3366 17.4387C10.5455 17.356 10.7981 17.3269 11.0167 17.3949C11.2304 17.463 11.3907 17.6088 11.5753 17.7205C11.7502 17.8372 11.9493 17.9344 12.1728 17.9441C12.7897 17.9733 13.3143 17.5116 13.3434 16.9137C13.3725 16.3159 12.9014 15.8007 12.2845 15.7716C12.061 15.7619 11.8522 15.8348 11.6627 15.9368C11.4684 16.0292 11.2887 16.1555 11.0701 16.2041C10.8418 16.2527 10.5989 16.1993 10.3949 16.0924C10.1763 15.9806 10.0403 15.7764 9.91405 15.5869C9.76832 15.3779 9.6226 15.1835 9.43316 15.0231C9.18543 14.8141 8.89884 14.6732 8.59282 14.5905C8.4471 14.5565 8.29652 14.5322 8.1508 14.5274C6.95587 14.469 5.9358 15.373 5.87751 16.5444C5.81437 17.7157 6.73728 18.7169 7.93221 18.7752C8.07793 18.7849 8.23337 18.7752 8.3791 18.7558C8.68997 18.7023 8.99113 18.5905 9.25829 18.4107C9.47688 18.2698 9.64203 18.0899 9.80718 17.8955Z" fill="#273E7C"/>
<path d="M11.2013 13.5116C10.769 13.5116 10.4144 13.8566 10.4144 14.2843C10.4144 14.7121 10.7641 15.0571 11.2013 15.0571C11.6385 15.0571 11.9882 14.7121 11.9882 14.2843C11.9882 13.8566 11.6336 13.5116 11.2013 13.5116Z" fill="#DE2227"/>
<path d="M4.24541 27.373C6.59008 27.373 8.49081 25.5082 8.49081 23.2078C8.49081 20.9074 6.59008 19.0425 4.24541 19.0425C1.90073 19.0425 0 20.9074 0 23.2078C0 25.5082 1.90073 27.373 4.24541 27.373Z" fill="#273E7C"/>
<path d="M13.324 24.3256C13.4017 24.2041 13.4746 24.068 13.5328 23.9319C13.6446 23.6403 13.6931 23.3293 13.6689 23.0133C13.6446 22.7655 13.5717 22.537 13.4843 22.3037C13.4017 22.0899 13.3143 21.8615 13.3483 21.6233C13.3823 21.4046 13.4794 21.1762 13.6543 21.0206C13.8194 20.8748 14.0283 20.8068 14.2177 20.7047C14.412 20.6172 14.5918 20.4909 14.7132 20.3062C15.0484 19.7958 14.9026 19.1203 14.3878 18.7946C13.8777 18.469 13.188 18.6148 12.8479 19.1251C12.7265 19.3098 12.6877 19.5237 12.6828 19.7327C12.6682 19.9416 12.6877 20.1604 12.6245 20.3694C12.5516 20.5881 12.3816 20.7679 12.1922 20.8894C11.9833 21.0206 11.7404 21.0352 11.5073 21.0449C11.2498 21.0644 11.007 21.0887 10.769 21.1713C10.4629 21.2782 10.1958 21.4483 9.96748 21.667C9.86547 21.774 9.76833 21.8906 9.69061 22.0121C9.03971 22.9988 9.3263 24.3159 10.3318 24.9526C11.3324 25.5941 12.6731 25.3122 13.324 24.3256Z" fill="#273E7C"/>
<path d="M11.4684 18.5662C11.0944 18.3524 10.6135 18.4788 10.3949 18.8481C10.1763 19.2175 10.3075 19.689 10.6815 19.9028C11.0555 20.1167 11.5364 19.9903 11.755 19.6209C11.9736 19.2515 11.8473 18.7801 11.4684 18.5662Z" fill="#DE2227"/>
<path d="M15.5049 33.7205C17.8496 33.7205 19.7504 31.8557 19.7504 29.5553C19.7504 27.2549 17.8496 25.39 15.5049 25.39C13.1603 25.39 11.2595 27.2549 11.2595 29.5553C11.2595 31.8557 13.1603 33.7205 15.5049 33.7205Z" fill="#273E7C"/>
<path d="M20.8044 22.0413C20.6004 21.8032 20.3527 21.6039 20.0613 21.4678C19.833 21.3658 19.5949 21.3123 19.3424 21.2685C19.1092 21.2345 18.8663 21.1956 18.6769 21.045C18.4972 20.9089 18.3466 20.7096 18.298 20.486C18.2543 20.2722 18.298 20.0583 18.3029 19.8493C18.3223 19.6404 18.3029 19.4216 18.2009 19.2272C17.9191 18.6877 17.2488 18.4739 16.7048 18.7461C16.1607 19.0182 15.9421 19.6792 16.2239 20.2187C16.3259 20.4131 16.4959 20.5541 16.6756 20.6659C16.8553 20.7874 17.0545 20.8749 17.2051 21.0353C17.3605 21.2054 17.4334 21.4387 17.4431 21.6622C17.4528 21.9052 17.3411 22.1191 17.2391 22.3232C17.1274 22.5517 17.0302 22.7704 16.9816 23.0134C16.9233 23.3293 16.9428 23.6404 17.0205 23.9417C17.0642 24.0826 17.1176 24.2236 17.1856 24.35C17.7297 25.3949 19.0363 25.808 20.1001 25.2734C21.1639 24.7388 21.5865 23.4557 21.0425 22.4107C20.9793 22.2843 20.8967 22.158 20.8044 22.0413Z" fill="#273E7C"/>
<path d="M14.8249 22.2017C15.0435 22.571 15.5244 22.6974 15.8984 22.4836C16.2724 22.2697 16.4036 21.7983 16.185 21.4289C15.9664 21.0595 15.4855 20.9331 15.1115 21.147C14.7375 21.3608 14.6112 21.8323 14.8249 22.2017Z" fill="#DE2227"/>
<path d="M26.031 19.1057C23.7238 19.5042 22.1791 21.6671 22.5871 23.9319C22.9951 26.1968 25.1956 27.7132 27.5029 27.3098C29.8101 26.9113 31.3548 24.7485 30.9468 22.4836C30.5388 20.2187 28.3383 18.7072 26.031 19.1057Z" fill="#273E7C"/>
<path d="M25.1421 17.1811C25.2053 16.0098 24.2824 15.0085 23.0874 14.9502C22.9417 14.9405 22.7863 14.9502 22.6405 14.9697C22.3297 15.0231 22.0285 15.1349 21.7613 15.3147C21.5573 15.4557 21.3922 15.6355 21.227 15.8299C21.0813 16.0098 20.9259 16.1945 20.6976 16.2868C20.4887 16.3694 20.2361 16.3986 20.0175 16.3305C19.8038 16.2625 19.6435 16.1167 19.4589 16.0049C19.2841 15.8883 19.0849 15.791 18.8615 15.7813C18.2446 15.7522 17.72 16.2139 17.6908 16.8117C17.6617 17.4095 18.1328 17.9247 18.7497 17.9539C18.9732 17.9636 19.182 17.8907 19.3715 17.7886C19.5658 17.6963 19.7455 17.5699 19.9641 17.5213C20.1924 17.4727 20.4353 17.5262 20.6393 17.6331C20.8579 17.7449 20.9939 17.949 21.1202 18.1386C21.2659 18.3476 21.4116 18.542 21.6011 18.7023C21.8488 18.9113 22.1354 19.0523 22.4414 19.1349C22.5871 19.1689 22.7377 19.1932 22.8834 19.1981C24.0638 19.2613 25.0838 18.3573 25.1421 17.1811Z" fill="#273E7C"/>
<path d="M19.8135 20.2139C20.2458 20.2139 20.6004 19.8688 20.6004 19.4411C20.6004 19.0134 20.2507 18.6683 19.8135 18.6683C19.3763 18.6683 19.0266 19.0134 19.0266 19.4411C19.0266 19.8688 19.3763 20.2139 19.8135 20.2139Z" fill="#DE2227"/>
<path d="M28.2169 6.49335C26.0165 5.70598 23.578 6.81899 22.7766 8.9818C21.9751 11.1446 23.1117 13.5359 25.3121 14.3232C27.5126 15.1106 29.951 13.9976 30.7525 11.8348C31.5588 9.67196 30.4222 7.28071 28.2169 6.49335Z" fill="#273E7C"/>
<path d="M17.5353 9.58932C17.4576 9.71082 17.3848 9.84691 17.3265 9.983C17.2148 10.2746 17.1662 10.5857 17.1905 10.9016C17.2148 11.1495 17.2876 11.3779 17.3751 11.6112C17.4576 11.825 17.5451 12.0535 17.5111 12.2916C17.4771 12.5103 17.3799 12.7388 17.205 12.8943C17.0399 13.0401 16.831 13.1081 16.6416 13.2102C16.4473 13.2977 16.2676 13.4241 16.1461 13.6088C15.811 14.1191 15.9567 14.7947 16.4716 15.1203C16.9816 15.4459 17.6714 15.3001 18.0114 14.7898C18.1328 14.6051 18.1717 14.3913 18.1765 14.1823C18.1911 13.9733 18.1717 13.7546 18.2348 13.5456C18.3077 13.3269 18.4777 13.147 18.6671 13.0255C18.876 12.8943 19.1189 12.8797 19.352 12.87C19.6095 12.8506 19.8524 12.8263 20.0904 12.7436C20.3964 12.6367 20.6635 12.4666 20.8918 12.2479C20.9939 12.141 21.091 12.0243 21.1687 11.9028C21.8196 10.9162 21.533 9.59904 20.5275 8.96234C19.5269 8.32565 18.1814 8.60754 17.5353 9.58932Z" fill="#273E7C"/>
<path d="M19.2549 14.1045C19.0363 14.4739 19.1675 14.9453 19.5415 15.1592C19.9155 15.373 20.3964 15.2467 20.615 14.8773C20.8336 14.5079 20.7024 14.0365 20.3284 13.8226C19.9544 13.6088 19.4735 13.7351 19.2549 14.1045Z" fill="#DE2227"/>
<path d="M15.5049 8.3305C17.8496 8.3305 19.7504 6.46565 19.7504 4.16525C19.7504 1.86485 17.8496 0 15.5049 0C13.1603 0 11.2595 1.86485 11.2595 4.16525C11.2595 6.46565 13.1603 8.3305 15.5049 8.3305Z" fill="#273E7C"/>
<path d="M10.3464 11.8737C10.5504 12.1118 10.7981 12.3111 11.0896 12.4472C11.3179 12.5492 11.5559 12.6027 11.8085 12.6464C12.0416 12.6805 12.2845 12.7193 12.4739 12.87C12.6537 13.0061 12.8042 13.2054 12.8528 13.4289C12.8965 13.6428 12.8528 13.8566 12.848 14.0656C12.8285 14.2746 12.848 14.4933 12.95 14.6878C13.2317 15.2272 13.902 15.4411 14.4461 15.1689C14.9901 14.8967 15.2087 14.2357 14.9269 13.6963C14.8249 13.5018 14.6549 13.3609 14.4752 13.2491C14.2955 13.1276 14.0963 13.0401 13.9457 12.8797C13.7903 12.7096 13.7174 12.4763 13.7077 12.2528C13.698 12.0097 13.8097 11.7959 13.9117 11.5918C14.0235 11.3633 14.1206 11.1446 14.1692 10.9016C14.2275 10.5857 14.208 10.2746 14.1303 9.9733C14.0866 9.83235 14.0332 9.6914 13.9652 9.56503C13.4211 8.52008 12.1145 8.10695 11.0507 8.64158C9.98692 9.17621 9.56433 10.4593 10.1084 11.5043C10.1715 11.6306 10.2589 11.757 10.3464 11.8737Z" fill="#273E7C"/>
<path d="M16.185 11.5237C15.9664 11.1543 15.4855 11.028 15.1115 11.2418C14.7375 11.4557 14.6063 11.9271 14.8249 12.2965C15.0435 12.6659 15.5244 12.7923 15.8984 12.5784C16.2773 12.3645 16.4036 11.8931 16.185 11.5237Z" fill="#DE2227"/>
</svg>
