<svg width="34" height="34" viewBox="0 0 34 34" fill="none" xmlns="http://www.w3.org/2000/svg">
<circle cx="17" cy="17" r="17" transform="rotate(180 17 17)" fill="white"/>
<path d="M24.3074 16.3023H11.3646L14.4529 13.191C14.7235 12.9186 14.7235 12.4768 14.4529 12.2044C14.1824 11.9319 13.7438 11.9319 13.4736 12.2044L9.20292 16.5066C8.93236 16.779 8.93236 17.2209 9.20292 17.4932L13.4736 21.7956C13.6088 21.9319 13.7861 22 13.9633 22C14.1405 22 14.3177 21.9319 14.4529 21.7956C14.7235 21.5232 14.7235 21.0814 14.4529 20.8091L11.3646 17.6976H24.3074C24.6898 17.6976 25 17.3852 25 16.9999C25 16.6146 24.6899 16.3023 24.3074 16.3023Z" fill="#21409A"/>
</svg>
