<svg width="14" height="14" viewBox="0 0 14 14" fill="none" xmlns="http://www.w3.org/2000/svg">
<path opacity="0.4" d="M6.22222 11.2778H0.777778" stroke="white" stroke-width="1.5" stroke-linecap="round" stroke-linejoin="round"/>
<path fill-rule="evenodd" clip-rule="evenodd" d="M13.2222 11.2778C13.2222 12.3517 12.3517 13.2222 11.2778 13.2222C10.2039 13.2222 9.33333 12.3517 9.33333 11.2778C9.33333 10.2031 10.2039 9.33333 11.2778 9.33333C12.3517 9.33333 13.2222 10.2031 13.2222 11.2778Z" stroke="white" stroke-width="1.5" stroke-linecap="round" stroke-linejoin="round"/>
<path opacity="0.4" d="M7.77778 2.72222H13.2222" stroke="white" stroke-width="1.5" stroke-linecap="round" stroke-linejoin="round"/>
<path fill-rule="evenodd" clip-rule="evenodd" d="M0.777778 2.72222C0.777778 3.79691 1.64833 4.66667 2.72222 4.66667C3.79612 4.66667 4.66667 3.79691 4.66667 2.72222C4.66667 1.64833 3.79612 0.777778 2.72222 0.777778C1.64833 0.777778 0.777778 1.64833 0.777778 2.72222Z" stroke="white" stroke-width="1.5" stroke-linecap="round" stroke-linejoin="round"/>
</svg>
