<svg width="14" height="14" viewBox="0 0 14 14" fill="none" xmlns="http://www.w3.org/2000/svg">
<path d="M7 14C3.14038 14 0 10.8596 0 7C0 3.14038 3.14038 0 7 0C10.8596 0 14 3.14038 14 7C14 10.8596 10.8596 14 7 14ZM7 0.875C3.6225 0.875 0.875 3.6225 0.875 7C0.875 10.3775 3.6225 13.125 7 13.125C10.3775 13.125 13.125 10.3775 13.125 7C13.125 3.6225 10.3775 0.875 7 0.875ZM10.4663 7.16712C10.444 7.22094 10.4121 7.26906 10.3714 7.30975L8.62181 9.05931C8.5365 9.14463 8.4245 9.1875 8.3125 9.1875C8.2005 9.1875 8.0885 9.14463 8.00319 9.05931C7.83212 8.88825 7.83212 8.61175 8.00319 8.44069L9.00638 7.4375H3.9375C3.696 7.4375 3.5 7.2415 3.5 7C3.5 6.7585 3.696 6.5625 3.9375 6.5625H9.00638L8.00319 5.55931C7.83212 5.38825 7.83212 5.11175 8.00319 4.94069C8.17425 4.76963 8.45075 4.76963 8.62181 4.94069L10.3714 6.69025C10.4121 6.73094 10.444 6.77906 10.4663 6.83288C10.5105 6.93962 10.5105 7.06038 10.4663 7.16712Z" fill="#121113"/>
</svg>
