<svg width="22" height="22" viewBox="0 0 22 22" fill="none" xmlns="http://www.w3.org/2000/svg">
<path d="M11 22C4.93488 22 0 17.0651 0 11C0 4.93488 4.93488 0 11 0C17.0651 0 22 4.93488 22 11C22 17.0651 17.0651 22 11 22ZM11 1.375C5.6925 1.375 1.375 5.6925 1.375 11C1.375 16.3075 5.6925 20.625 11 20.625C16.3075 20.625 20.625 16.3075 20.625 11C20.625 5.6925 16.3075 1.375 11 1.375ZM16.4471 11.2626C16.412 11.3472 16.3618 11.4228 16.2979 11.4867L13.5486 14.2361C13.4145 14.3701 13.2385 14.4375 13.0625 14.4375C12.8865 14.4375 12.7105 14.3701 12.5764 14.2361C12.3076 13.9673 12.3076 13.5327 12.5764 13.2639L14.1529 11.6875H6.1875C5.808 11.6875 5.5 11.3795 5.5 11C5.5 10.6205 5.808 10.3125 6.1875 10.3125H14.1529L12.5764 8.73606C12.3076 8.46725 12.3076 8.03275 12.5764 7.76394C12.8452 7.49513 13.2798 7.49513 13.5486 7.76394L16.2979 10.5133C16.3618 10.5772 16.412 10.6528 16.4471 10.7374C16.5165 10.9051 16.5165 11.0949 16.4471 11.2626Z" fill="white"/>
</svg>
