<svg width="12" height="14" viewBox="0 0 12 14" fill="none" xmlns="http://www.w3.org/2000/svg">
<path fill-rule="evenodd" clip-rule="evenodd" d="M3.9836 12.9146L4.01915 12.949L4.02193 12.9518C4.67331 13.5785 5.30487 14.0082 6.01921 13.9999C6.7303 13.9917 7.35928 13.5509 8.01025 12.9144C8.90244 12.0463 10.0569 10.8753 10.8909 9.48619C11.7281 8.09183 12.2683 6.43427 11.8618 4.61495C10.4884 -1.53362 1.51882 -1.54083 0.13816 4.60842C-0.256818 6.37617 0.242187 7.99322 1.03796 9.36368C1.83074 10.7291 2.94002 11.8883 3.82964 12.7638C3.88148 12.8148 3.93264 12.8649 3.98299 12.9141L3.9836 12.9146ZM6.00001 3.25639C4.83578 3.25639 3.89195 4.20413 3.89195 5.37321C3.89195 6.54226 4.83578 7.49 6.00001 7.49C7.16424 7.49 8.10806 6.54226 8.10806 5.37321C8.10806 4.20413 7.16424 3.25639 6.00001 3.25639Z" fill="#21409A"/>
</svg>
