<svg width="19" height="21" viewBox="0 0 19 21" fill="none" xmlns="http://www.w3.org/2000/svg">
<path d="M12.8752 16.0553V17.1664C12.8752 19.0074 11.3642 20.4997 9.50017 20.4997C7.63615 20.4997 6.12515 19.0074 6.12515 17.1664V16.0553M12.8752 16.0553H6.12515M12.8752 16.0553H16.9145C17.3448 16.0553 17.5611 16.0553 17.7353 15.9974C18.0682 15.8865 18.3287 15.6282 18.4409 15.2996C18.4999 15.1268 18.4999 14.9126 18.4999 14.4841C18.4999 14.2967 18.4997 14.203 18.4848 14.1136C18.4568 13.9447 18.3904 13.7846 18.2894 13.6456C18.236 13.5722 18.1681 13.5052 18.0342 13.3729L17.5961 12.9402C17.4546 12.8005 17.3752 12.6111 17.3752 12.4136V8.27767C17.3752 3.98217 13.8494 0.499982 9.50017 0.499994C5.1509 0.500005 1.62512 3.98218 1.62512 8.27767V12.4136C1.62512 12.6112 1.54552 12.8005 1.40414 12.9402L0.965936 13.3729C0.831723 13.5055 0.764537 13.572 0.711054 13.6456C0.609984 13.7847 0.543034 13.9447 0.514966 14.1136C0.500115 14.203 0.500116 14.2967 0.500116 14.4843C0.500116 14.9126 0.500116 15.1267 0.559122 15.2995C0.671398 15.6282 0.933018 15.8865 1.26586 15.9974C1.44013 16.0553 1.65551 16.0553 2.08588 16.0553H6.12515" stroke="#A0A0A0" stroke-linecap="round" stroke-linejoin="round"/>
</svg>
