<svg width="98" height="100" viewBox="0 0 98 100" fill="none" xmlns="http://www.w3.org/2000/svg">
<path d="M94.0988 25.0478C91.9501 21.6172 88.9863 18.7086 85.4298 16.5458C74.464 9.98279 59.7935 9.53532 48.9017 16.4712C38.7509 22.885 32.2307 34.5194 21.1907 39.1433C15.9301 41.3807 9.70623 41.9027 5.33471 45.6317C-1.11143 51.2251 -0.889152 61.5171 2.29687 69.4225C8.59482 85.0841 24.599 95.9727 41.2701 97.0914C58.0152 98.2101 74.8345 90.0064 85.2076 76.8058C94.5433 64.8732 100.767 46.3775 96.7661 31.2379C96.1734 29.0005 95.2843 26.9123 94.0988 25.0478Z" fill="#FEE100"/>
<path d="M85.3558 96.1219C85.3558 98.2847 66.2396 100 42.6779 100C19.1161 100 0 98.2847 0 96.1219C0 93.9591 19.1161 92.2437 42.6779 92.2437C66.3137 92.2437 85.3558 93.9591 85.3558 96.1219Z" fill="#ECF4FF"/>
<path d="M72.9082 95.1523C72.9082 96.5693 64.832 97.7626 54.8294 97.7626C44.8267 97.7626 36.7505 96.5693 36.7505 95.1523C36.7505 95.0032 36.8246 94.854 36.9728 94.6303C38.3065 93.1387 44.9749 90.9759 53.1993 90.6776C53.4957 90.6776 53.718 90.6776 54.0144 90.6776C54.3107 90.6776 54.6071 90.6776 54.9776 90.6776C55.348 90.6776 55.5703 90.6776 55.9408 90.6776C64.4615 90.8267 71.4263 93.1387 72.76 94.6303C72.8341 94.854 72.9082 95.0032 72.9082 95.1523Z" fill="#59442C"/>
<path d="M72.686 94.7048C71.2782 95.6744 63.7948 96.4947 54.8295 96.4947C45.8641 96.4947 38.4548 95.749 36.9729 94.7048C38.3066 93.2133 44.975 91.0505 53.1994 90.7521C53.4958 90.7521 53.718 90.7521 54.0144 90.7521C54.3108 90.7521 54.6072 90.7521 54.9776 90.7521C55.3481 90.7521 55.5704 90.7521 55.9409 90.7521C64.3875 90.8267 71.3523 93.2133 72.686 94.7048Z" fill="#121113"/>
<path d="M58.7564 78.2974H50.9025V92.1692H58.7564V78.2974Z" fill="#121113"/>
<path d="M76.8351 27.5835C78.2429 27.8818 92.7652 30.1938 89.7274 50.9268C86.9859 69.7954 69.4998 81.9518 49.4946 82.3993C25.6364 82.9213 15.3374 68.4529 20.7463 56.4457C26.2292 44.4384 43.7153 47.4962 47.2718 42.2756C50.9024 37.1296 54.9775 23.4816 76.8351 27.5835Z" fill="#247BE5"/>
<path d="M65.4989 29.7463C65.4989 29.7463 83.059 27.0614 84.4668 36.8313C85.8746 46.6012 80.1694 61.2187 71.7227 62.934C63.3502 64.7985 62.3869 68.8258 60.09 72.6294C57.7931 76.4329 44.3081 85.9045 29.8599 76.2837C15.4116 66.663 23.2655 49.9572 33.1941 49.3606C45.8641 48.6148 50.8283 41.7535 65.4989 29.7463Z" fill="#049BF6"/>
<path d="M48.2349 42.3502C48.2349 42.3502 43.7152 38.0246 47.1976 33.1769L52.7546 35.2652L48.2349 42.3502Z" fill="#896867"/>
<path d="M64.9061 26.1665L64.0911 35.1906C64.0911 35.1906 58.1636 37.1297 52.5325 38.845C50.9765 39.2925 49.4205 39.7399 48.0127 40.1874C47.6423 40.262 47.2718 40.4111 46.9013 40.4857C45.049 41.0078 43.5671 41.3061 42.8262 41.3807C39.3438 41.679 39.1956 25.719 39.1956 25.719L43.0485 26.9123C43.0485 26.9123 43.7153 33.2515 45.1231 33.699C45.4195 33.7736 46.2345 33.5499 47.2718 33.177C48.235 32.8041 49.4946 32.282 50.7542 31.6854C54.9035 29.8209 60.09 27.2106 61.5719 26.8377C63.8688 26.2411 64.9061 26.1665 64.9061 26.1665Z" fill="#FF917B"/>
<path d="M52.5324 38.845C50.9765 39.2925 49.4205 39.7399 48.0127 40.1874C47.6422 40.262 47.2718 40.4111 46.9013 40.4857C47.7163 37.428 47.1977 33.1769 47.1977 33.1769C48.1609 32.8041 49.4205 32.282 50.6801 31.6854C51.9397 32.5803 53.1993 33.5498 53.3474 33.5498C53.5697 33.6244 53.0511 36.3839 52.5324 38.845Z" fill="#F47567"/>
<path d="M64.9061 26.1665L64.0911 35.1906C64.0911 35.1906 54.7553 40.5603 48.2351 42.3502C49.6428 39.5908 48.6796 34.8923 47.1978 33.177C51.2729 31.6108 59.5714 27.2852 61.4978 26.8377C63.8688 26.2411 64.9061 26.1665 64.9061 26.1665Z" fill="#AF9590"/>
<path d="M49.4205 47.5707C49.4205 47.5707 38.4547 38.845 34.4536 39.1433C30.1562 39.4416 28.5262 42.6485 29.4153 45.7063C30.3044 48.6894 33.5645 54.2829 33.5645 54.2829L52.7547 58.9814V50.0319L49.4205 47.5707Z" fill="#E07127"/>
<path d="M27.8592 97.3151C27.8592 98.1355 27.7111 98.7321 27.4147 98.9559C26.3774 99.4779 10.5213 95.749 9.8545 94.2574C9.70632 93.8845 10.1509 93.5116 10.8918 93.1387C13.1887 92.02 18.5234 90.9759 20.7463 90.9013C23.71 90.8267 27.4147 92.5421 27.4147 92.5421C27.4147 92.5421 27.9333 95.3761 27.8592 97.3151Z" fill="#121113"/>
<path d="M27.8592 97.3151C27.8592 98.1355 27.7111 98.7321 27.4147 98.9559C26.3774 99.4779 10.5213 95.749 9.8545 94.2574C9.70632 93.8845 10.1509 93.5116 10.8918 93.1387C13.5592 94.7049 18.968 97.2406 27.8592 97.3151Z" fill="#5B432C"/>
<path d="M29.8598 85.0095C29.8598 85.2333 29.3411 86.874 28.7484 88.5148C28.0815 90.4538 27.4147 92.4675 27.4147 92.4675C24.6732 92.3183 22.3763 91.7963 20.7463 90.8267L21.5613 87.9927L23.2655 82.101L29.8598 85.0095Z" fill="#FF917B"/>
<path d="M29.8597 85.0095C29.8597 85.2333 29.341 86.874 28.7483 88.5148C26.7478 88.8131 23.5617 88.9622 21.5612 87.9927L23.2654 82.101L29.8597 85.0095Z" fill="#F47567"/>
<path d="M66.9806 60.3238C66.9806 60.3238 60.5344 69.87 55.422 68.5275C50.3836 67.1851 38.7509 64.4257 38.0841 64.5002C37.4913 64.5748 30.2302 87.9927 30.2302 87.9927C26.3773 88.0673 22.8208 87.6944 20.3016 86.2774C20.3016 86.2774 27.6369 53.015 31.1193 51.2251C34.6017 49.4352 48.3831 53.0896 48.3831 53.0896C48.3831 53.0896 47.2717 50.4048 49.4204 47.4962C51.5691 44.7367 66.9806 60.3238 66.9806 60.3238Z" fill="#F8932A"/>
<path d="M41.4925 70.0937C41.4925 70.0937 49.0501 73.5243 52.162 67.3343L46.3827 62.412L40.5293 66.4393L41.4925 70.0937Z" fill="#E07127"/>
<path d="M52.162 68.9004C50.3837 70.9886 48.5314 72.4802 46.7531 73.1514L44.308 69.7954L41.4184 65.8427L47.7164 62.412C47.9386 62.5612 49.4205 64.8731 50.606 66.663C51.4951 67.8563 52.162 68.9004 52.162 68.9004Z" fill="#FF917B"/>
<path d="M50.6801 66.663C49.5687 66.5139 45.7899 66.2156 44.308 69.8699L41.4184 65.9172L47.7164 62.4866C48.0127 62.4866 49.4946 64.7986 50.6801 66.663Z" fill="#F47567"/>
<path d="M54.6812 74.643C50.0874 78.372 40.0106 78.2974 38.8251 77.1787C38.6029 76.955 38.6029 76.6567 38.751 76.2092C39.4179 74.3447 43.1967 70.9141 45.3454 69.9445C48.0127 68.7513 52.0879 68.8258 52.0879 68.8258C52.0879 68.8258 53.0511 70.3174 53.8661 71.809C54.0143 72.1073 54.2366 72.4802 54.3107 72.7785C54.8293 73.5989 54.9775 74.3447 54.6812 74.643Z" fill="#121113"/>
<path d="M54.6812 74.643C50.0874 78.372 40.0107 78.2974 38.8252 77.1787C38.6029 76.955 38.6029 76.6567 38.7511 76.2092C42.1594 74.4939 49.4947 71.0632 53.9403 71.809C54.0885 72.1073 54.3108 72.4802 54.3848 72.7786C54.8294 73.5989 54.9776 74.3447 54.6812 74.643Z" fill="#5B432C"/>
<path d="M54.459 72.704C54.8295 73.5989 55.0518 74.3447 54.7554 74.5685C50.1616 78.2974 40.0849 78.2229 38.8994 77.1042C38.8253 77.1042 49.5688 71.8836 54.459 72.704Z" fill="#7C6A52"/>
<path d="M29.2671 42.4994C28.7484 43.9909 28.5261 46.6758 29.0448 48.1674C29.5634 49.8081 30.823 51.6726 32.6754 55.1778C36.5282 62.4866 41.4184 70.0937 41.4184 70.0937C44.5303 65.4698 48.3091 64.5002 52.0879 67.3343C52.0879 67.3343 42.0852 47.347 40.0847 43.8418C38.0842 40.3366 35.1204 39.1433 34.009 39.2179C32.8976 39.2924 31.564 39.5162 30.3785 40.784C29.7116 41.6044 29.4893 41.9027 29.2671 42.4994Z" fill="#F9AB4E"/>
<path d="M81.6512 38.5466C80.762 40.7094 66.9806 60.3238 66.9806 60.3238L49.4205 47.5707C49.4205 47.5707 59.2749 34.5194 61.4977 30.1938C63.7205 25.7936 64.6097 26.0173 65.5729 26.3156C66.2397 26.4648 68.0921 27.136 69.2775 27.3597C69.7221 27.4343 70.0926 27.4343 70.2408 27.2852C70.7594 26.7631 72.1672 23.6308 72.1672 23.6308L77.1315 19.3798L79.7988 21.6917C79.7988 21.6917 79.2061 22.885 78.6133 24.2274C77.9465 25.719 77.2797 27.4343 77.5019 27.8072C77.576 27.8818 77.6501 28.031 77.8724 28.2547C78.9097 29.2988 81.8735 31.5362 82.3921 32.7295C82.9849 33.9227 82.6144 36.3838 81.6512 38.5466Z" fill="#FF917B"/>
<path d="M79.7988 21.5426C79.7988 21.5426 79.2061 22.7358 78.6134 24.0783C76.6869 25.7936 72.9822 28.4039 70.1667 27.2852C70.6853 26.7631 72.0931 23.6308 72.0931 23.6308L77.0574 19.3798L79.7988 21.5426Z" fill="#F47567"/>
<path d="M81.6512 38.5467C80.762 40.7095 66.9806 60.3238 66.9806 60.3238L49.4205 47.5707C49.4205 47.5707 59.2749 34.5194 61.4977 30.1938C63.7205 25.7936 64.6097 26.0173 65.5729 26.3156C66.2397 26.4648 68.0921 27.136 69.2775 27.3598C68.2402 28.6276 67.6475 31.1633 68.6848 31.5362C70.9817 32.282 75.0568 30.4921 77.8724 28.1056C78.9097 29.1497 81.8735 31.387 82.3921 32.5803C82.9849 33.9227 82.6144 36.3839 81.6512 38.5467Z" fill="#CCB3AB"/>
<path d="M58.3859 27.0615L57.719 27.2852L42.7521 25.6444L43.5672 18.0374L44.3081 17.2916L59.275 18.8577L58.3859 27.0615Z" fill="#049BF6"/>
<path d="M58.6054 19.6167L43.5765 17.9964L42.7637 25.6343L57.7926 27.2546L58.6054 19.6167Z" fill="black"/>
<path d="M67.8698 49.2861C66.388 50.0319 61.4237 45.2588 65.9434 38.3229L71.204 41.4553L67.8698 49.2861Z" fill="#AF9590"/>
<path d="M75.8719 44.2147C74.7605 44.7367 73.2045 45.4825 71.5004 46.2283C70.2408 46.7504 68.9071 47.2724 67.5734 47.7199C67.1289 47.8691 66.6843 48.0182 66.2397 48.1674C63.8687 48.9132 61.4978 49.4352 59.8677 49.2861C55.7185 48.9878 59.9418 29.3734 59.9418 29.3734L64.091 28.031L64.1651 39.1433C64.1651 39.1433 64.9061 38.845 66.0175 38.3229C66.9066 37.95 67.9439 37.428 69.0553 36.9059C71.1299 35.9364 73.4268 34.8177 74.6864 33.9227C77.5761 32.0583 79.7989 32.282 79.7989 32.282C85.9486 33.9227 80.0952 42.0519 75.8719 44.2147Z" fill="#FF917B"/>
<path d="M72.3155 37.1296L71.5004 46.1537C70.2408 46.6758 68.9072 47.1979 67.5735 47.6453C67.1289 47.7945 66.6844 47.9436 66.2398 48.0928C68.2403 44.2147 65.9434 38.2483 65.9434 38.2483C66.8325 37.8754 67.8699 37.3534 68.9813 36.8313L72.3155 37.1296Z" fill="#F47567"/>
<path d="M76.2424 45.1842C73.8714 46.8995 71.0559 48.1674 67.8699 49.2115C69.4258 44.1401 67.2771 39.6653 65.9434 38.2483C68.3885 37.1296 72.6118 35.1906 74.6124 33.8482C77.502 31.9837 79.7248 32.2074 79.7248 32.2074C85.9487 33.9227 80.0953 42.4248 76.2424 45.1842Z" fill="#DBC6BD"/>
<path d="M64.0169 27.9564C64.0169 27.9564 62.461 30.7158 62.461 30.9396C62.461 30.9396 60.8309 30.1192 59.8677 29.2988C58.9045 28.4785 58.8304 25.719 58.8304 25.719C58.8304 25.719 58.0895 25.3461 57.719 25.3461C57.4226 25.3461 55.7926 26.0173 55.4962 25.719C55.2739 25.4953 55.5703 25.197 55.7185 25.0478C55.7926 24.9732 55.7926 24.9732 55.7926 24.9732C55.7185 24.9732 55.5703 25.0478 55.4221 25.0478C55.2739 25.0478 55.1257 24.9732 55.0516 24.8241C54.7552 24.3766 56.2371 22.9596 56.7558 22.885C57.2744 22.7359 59.275 22.885 59.275 22.885C59.275 22.885 57.9413 21.9901 57.4226 21.9155C56.9781 21.7663 54.6071 22.1392 54.6071 21.5426C54.6071 21.0205 56.904 20.6476 57.6449 20.4239C58.3117 20.2002 59.9418 21.0205 60.3123 21.2443C59.7195 20.8714 56.2371 18.7831 56.904 18.2611C57.5708 17.739 61.7941 19.5289 62.6833 20.4239C63.7206 21.2443 64.0169 27.9564 64.0169 27.9564Z" fill="#FF917B"/>
<path d="M59.2749 24.3766C57.9412 23.78 56.8298 24.3766 55.7925 25.1224C55.8666 25.0478 55.8666 25.0478 55.8666 25.0478C55.7925 25.0478 55.6443 25.1224 55.4962 25.1224C56.4594 24.0783 58.0153 23.7054 59.4231 24.1529C59.4972 24.2275 59.4231 24.4512 59.2749 24.3766Z" fill="#F47567"/>
<path d="M47.1236 19.6781C46.8272 20.3493 44.8267 19.6035 44.3821 19.7527C43.9376 19.8273 42.4557 20.4239 42.4557 20.4239C42.4557 20.4239 46.679 20.7222 46.5309 21.6172C46.4568 21.8409 46.3827 21.9901 46.2345 22.1392C46.0863 22.2884 45.864 22.2884 45.7158 22.2884C45.7899 22.2884 45.864 22.363 45.9381 22.4375C46.0122 22.5121 46.0122 22.5867 46.0122 22.7359C45.9381 23.2579 43.7153 23.4816 43.7153 23.4816C43.7153 23.4816 44.234 24.6003 43.4189 26.3157C42.6039 28.1056 40.4552 27.3598 40.4552 27.3598L39.1215 25.7936C39.1215 25.7936 39.0474 19.6781 39.7883 18.7831C40.5293 17.8882 44.4562 16.3966 45.3454 16.6949C46.1604 16.9932 42.5298 18.634 42.2334 18.7831C42.3816 18.7086 43.8635 18.4103 44.6785 18.4848C45.5676 18.4848 47.2718 19.3052 47.1236 19.6781Z" fill="#FF917B"/>
<path d="M45.7158 22.2138C45.7899 22.2138 45.864 22.2884 45.9381 22.363C45.4935 22.2138 45.123 22.1392 44.6044 22.0646C43.8634 21.9155 43.1225 21.9901 42.3816 21.9155C42.3075 21.9155 42.3075 21.8409 42.3816 21.8409C43.5671 21.5426 45.0489 21.6917 46.3085 22.1392C46.0862 22.2138 45.864 22.2138 45.7158 22.2138Z" fill="#F47567"/>
<path d="M85.8745 17.3661C85.8745 17.3661 87.1341 21.6172 82.4662 20.7968L65.7951 17.217C65.7951 17.217 59.5713 16.0983 62.9796 12.6676C62.9796 12.6676 62.4609 12.2202 62.0163 11.6235C61.0531 10.3557 60.2381 8.34205 63.5723 7.4471C63.5723 7.4471 62.0163 3.1215 67.3511 3.56897C67.3511 3.56897 68.092 -1.50242 72.6117 1.85365C72.6117 1.85365 75.2791 -2.09905 77.576 1.77907C77.576 1.77907 80.4656 0.138326 81.8734 2.22655C82.2439 2.7486 82.4662 3.49439 82.6144 4.5385C82.6144 4.5385 87.3563 3.94187 85.504 8.64036C85.504 8.64036 89.5051 9.90821 86.4672 13.1897C86.3931 12.966 89.431 15.2779 85.8745 17.3661Z" fill="#121113"/>
<path d="M81.8734 2.07738C79.6506 1.03327 77.3537 2.3757 77.3537 2.3757C74.6123 -0.383735 72.6858 2.74859 72.6858 2.74859C69.2034 0.0637408 67.7956 4.46392 67.7956 4.46392C63.2759 4.5385 64.6837 8.19288 64.6837 8.19288C62.3868 8.8641 62.0163 10.4303 62.0904 11.549C61.1272 10.2811 60.3122 8.26746 63.6464 7.37251C63.6464 7.37251 62.0904 3.04691 67.4252 3.49439C67.4252 3.49439 68.1661 -1.577 72.6858 1.77906C72.6858 1.77906 75.3532 -2.17364 77.6501 1.70448C77.576 1.70448 80.3915 0.0637406 81.8734 2.07738Z" fill="#44331C"/>
<path d="M68.5366 19.1561C68.1662 20.1256 66.6843 20.4985 65.2024 19.9764C63.7206 19.4544 62.8314 18.1865 63.2019 17.217C63.5724 16.2475 65.0542 15.8746 66.5361 16.3966C68.018 16.9933 68.9071 18.1865 68.5366 19.1561Z" fill="#F47567"/>
<path d="M82.3921 15.1288C82.3921 15.7254 82.2439 16.322 82.1698 16.9932C81.0584 22.6613 75.4273 26.1665 70.0185 25.6444C66.0174 25.2715 64.7578 20.1256 65.8692 14.4575C65.9433 14.0847 66.0174 13.7118 66.1656 13.3389C66.8325 10.9523 68.018 9.01326 69.5739 7.74541C71.2781 6.25382 73.2786 5.50803 75.3532 5.65719C79.5025 6.03009 81.7253 8.64036 82.318 12.1456C82.4662 13.1151 82.4662 14.0847 82.3921 15.1288Z" fill="#FF917B"/>
<path d="M82.9848 13.6372L82.3921 15.1288L81.0584 18.5594C81.0584 18.5594 79.3542 16.3966 78.4651 13.8609C78.4651 13.8609 75.7237 14.5321 74.9827 12.8914C74.9827 12.8914 72.3153 13.8609 71.3521 12.2948C71.3521 12.2948 68.5366 14.1592 67.5734 12.2948C67.5734 12.2948 67.277 13.5626 66.0915 13.3389C66.7583 10.9523 67.9438 9.01327 69.4998 7.74542C72.4635 7.89458 80.4656 8.41664 80.4656 8.41664L82.318 12.1456L82.9848 13.6372Z" fill="#F47567"/>
<path d="M80.8361 19.2306C80.8361 19.2306 79.2801 15.3525 79.206 12.5185C79.206 12.5185 77.0573 13.7118 75.5014 11.4744C75.5014 11.4744 72.5376 13.1151 71.4262 11.1015C71.4262 11.1015 68.3884 13.1897 67.4992 10.8777C67.4992 10.8777 67.2029 12.2948 66.4619 12.2202C65.721 12.1456 65.1283 8.11831 70.0184 6.10467C74.9086 4.01645 78.5392 5.95551 80.4656 7.37252C82.3921 8.78952 83.3553 12.2948 83.133 14.0847C82.9848 15.0542 83.0589 17.739 82.4661 18.8577C81.9475 19.8273 80.8361 19.2306 80.8361 19.2306Z" fill="#121113"/>
<path d="M84.5408 19.6781C84.6149 20.7222 83.4294 21.6172 81.8734 21.7663C80.3174 21.9155 78.9838 21.0951 78.9097 20.051C78.8356 19.0069 80.0211 18.1119 81.577 17.9628C83.133 17.8882 84.4667 18.634 84.5408 19.6781Z" fill="#FF917B"/>
<path d="M73.2044 18.1119C73.1304 18.4848 72.834 18.7832 72.6117 18.7832C72.3894 18.7086 72.3153 18.3357 72.3894 17.9628C72.4635 17.5899 72.7599 17.2916 72.9822 17.2916C73.2044 17.2916 73.3526 17.6645 73.2044 18.1119Z" fill="#333333"/>
<path d="M68.018 17.5153C68.018 17.9628 67.7957 18.2611 67.5734 18.2611C67.3511 18.2611 67.2029 17.8882 67.2029 17.5153C67.2029 17.0678 67.4252 16.7695 67.6475 16.7695C67.8698 16.6949 68.018 17.0678 68.018 17.5153Z" fill="#333333"/>
<path d="M69.4258 17.4407C69.1294 18.1865 69.1294 18.9323 69.4258 19.6035" stroke="#DB4242" stroke-width="0.75" stroke-miterlimit="10" stroke-linecap="round" stroke-linejoin="round"/>
<path d="M73.1305 14.905C73.7973 14.8304 74.9828 15.1287 75.2792 15.7254" stroke="#121113" stroke-width="0.75" stroke-miterlimit="10" stroke-linecap="round" stroke-linejoin="round"/>
<path d="M66.6102 15.2033C66.9806 14.7559 67.7957 14.5321 68.5366 14.7559" stroke="#121113" stroke-width="0.75" stroke-miterlimit="10" stroke-linecap="round" stroke-linejoin="round"/>
<path d="M69.574 21.7663C69.574 21.7663 72.2413 22.6613 73.8714 20.3493" stroke="#DB4242" stroke-width="0.75" stroke-miterlimit="10" stroke-linecap="round" stroke-linejoin="round"/>
<path d="M78.1687 67.7817C71.278 80.1619 45.864 81.1314 45.864 81.1314C47.4199 80.8331 48.9759 79.7144 50.3837 78.2228C54.3847 74.0464 57.5707 66.663 58.534 64.3511C60.6827 59.056 65.2024 59.8017 71.7226 59.0559C76.6869 58.5339 80.6138 53.5371 82.2439 51.1505C82.7625 50.4048 82.9848 49.9573 82.9848 49.9573C82.9848 49.9573 84.9854 55.4016 78.1687 67.7817Z" fill="#247BE5"/>
<path d="M82.2438 51.1505C81.577 53.7608 78.391 58.8322 73.2785 60.0255C66.0914 61.6662 62.0904 61.1442 60.6826 63.2324C59.4971 65.0969 55.8665 75.1651 50.3836 78.1483C54.3847 73.9718 57.5707 66.5885 58.5339 64.2765C60.6826 58.9814 65.2023 59.7272 71.7225 58.9814C76.7609 58.5339 80.6879 53.5371 82.2438 51.1505Z" fill="#FEE100"/>
</svg>
