<svg width="12" height="14" viewBox="0 0 12 14" fill="none" xmlns="http://www.w3.org/2000/svg">
<path fill-rule="evenodd" clip-rule="evenodd" d="M6.22784 12.4394C6.12536 12.5125 6.02984 12.5788 5.94256 12.6383C5.84944 12.5783 5.74616 12.5092 5.63416 12.4314C5.10608 12.064 4.4212 11.5248 3.7467 10.8523C2.36322 9.47271 1.2 7.71174 1.2 5.83333C1.2 3.256 3.34903 1.16667 6 1.16667C8.65096 1.16667 10.8 3.256 10.8 5.83333C10.8 7.6916 9.58552 9.44751 8.15144 10.8417C7.45568 11.5182 6.75552 12.0633 6.22784 12.4394ZM12 5.83333C12 10.5 6 14 6 14C5.7 14 0 10.5 0 5.83333C0 2.61167 2.68629 0 6 0C9.31368 0 12 2.61167 12 5.83333ZM7.2 5.83333C7.2 6.47764 6.66272 7 6 7C5.33728 7 4.8 6.47764 4.8 5.83333C4.8 5.189 5.33728 4.66667 6 4.66667C6.66272 4.66667 7.2 5.189 7.2 5.83333ZM8.4 5.83333C8.4 7.12203 7.32552 8.16667 6 8.16667C4.67448 8.16667 3.6 7.12203 3.6 5.83333C3.6 4.54467 4.67448 3.5 6 3.5C7.32552 3.5 8.4 4.54467 8.4 5.83333Z" fill="#121113"/>
</svg>
