<svg width="16" height="16" viewBox="0 0 16 16" fill="none" xmlns="http://www.w3.org/2000/svg">
<path d="M7.04605 0C3.16096 0 0 3.16096 0 7.04605C0 10.9314 3.16096 14.0921 7.04605 14.0921C10.9314 14.0921 14.0921 10.9314 14.0921 7.04605C14.0921 3.16096 10.9314 0 7.04605 0ZM7.04605 12.7913C3.87815 12.7913 1.30081 10.214 1.30081 7.04608C1.30081 3.87818 3.87815 1.30081 7.04605 1.30081C10.2139 1.30081 12.7913 3.87815 12.7913 7.04605C12.7913 10.2139 10.2139 12.7913 7.04605 12.7913Z" fill="#283F7C"/>
<path d="M15.8094 14.8902L12.0804 11.1612C11.8263 10.9071 11.4148 10.9071 11.1608 11.1612C10.9067 11.4151 10.9067 11.827 11.1608 12.0809L14.8897 15.8099C15.0168 15.9369 15.1831 16.0005 15.3496 16.0005C15.5159 16.0005 15.6824 15.9369 15.8094 15.8099C16.0635 15.556 16.0635 15.1441 15.8094 14.8902Z" fill="#283F7C"/>
</svg>
