<svg width="48" height="48" viewBox="0 0 48 48" fill="none" xmlns="http://www.w3.org/2000/svg">
<path d="M14.8134 41.7432L14.3425 41.4561C14.2793 41.4159 14.2276 41.4331 14.1931 41.4905L13.7567 42.2141L12.5908 41.5078L13.0273 40.7841C13.0675 40.721 13.056 40.6693 12.9929 40.6348L12.5219 40.3477C12.4588 40.3075 12.4071 40.319 12.3726 40.3821L11.1494 42.3979C11.1091 42.4611 11.1264 42.5128 11.1838 42.5472L11.6547 42.8344C11.7179 42.8746 11.7696 42.8574 11.8041 42.7942L12.252 42.0591L13.4178 42.7655L12.9699 43.5006C12.9297 43.5638 12.9469 43.6154 13.0101 43.6499L13.481 43.937C13.5442 43.9772 13.5959 43.96 13.6303 43.8968L14.8536 41.8811C14.888 41.8351 14.8766 41.7834 14.8134 41.7432Z" fill="#224099"/>
<path d="M16.9059 42.6446L16.6302 42.5355C16.4464 42.4608 16.2741 42.4723 16.0214 42.6963L14.2756 44.2698C14.2239 44.3158 14.2124 44.3675 14.2928 44.3962L14.9188 44.6374C14.9762 44.6604 15.0049 44.6546 15.0394 44.6202L15.3552 44.3273L16.7221 44.8556L16.7623 45.2864C16.768 45.338 16.7853 45.361 16.8427 45.3782L17.4514 45.6137C17.5261 45.6424 17.5548 45.6022 17.5491 45.5333L17.3021 43.1902C17.2619 42.8513 17.1413 42.7307 16.9059 42.6446ZM15.8262 43.8908L16.4866 43.2763C16.5038 43.2648 16.5153 43.2591 16.5326 43.2648L16.5498 43.2706C16.567 43.2763 16.5728 43.2878 16.5785 43.3108L16.6646 44.2182L15.8262 43.8908Z" fill="#224099"/>
<path d="M16.7639 42.4497L17.1257 42.5875C17.1946 42.6162 17.2348 42.5932 17.2291 42.5301L17.1199 41.95C17.1084 41.8868 17.0797 41.8409 17.0108 41.8122L16.5973 41.6514C16.5341 41.6284 16.4825 41.6399 16.4997 41.7088L16.6605 42.3118C16.6777 42.3865 16.695 42.4209 16.7639 42.4497Z" fill="#224099"/>
<path d="M22.1538 43.9151L19.2995 43.4614C19.2249 43.4499 19.1847 43.4787 19.1732 43.5533L19.0928 44.0472C19.0813 44.1219 19.11 44.1621 19.1847 44.1736L20.2299 44.3401L19.9542 46.0688C19.9427 46.1434 19.9715 46.1836 20.0461 46.1951L20.5917 46.2812C20.6664 46.2927 20.7066 46.264 20.718 46.1894L20.9937 44.4607L22.0389 44.6273C22.1136 44.6387 22.1538 44.61 22.1653 44.5354L22.2457 44.0415C22.2572 43.9668 22.2227 43.9266 22.1538 43.9151Z" fill="#224099"/>
<path d="M25.3294 43.9102L24.7781 43.9159C24.7034 43.9159 24.669 43.9561 24.669 44.025L24.6747 44.8692L23.3136 44.8807L23.3079 44.0365C23.3079 43.9618 23.2677 43.9274 23.1988 43.9274L22.6474 43.9331C22.5728 43.9331 22.5383 43.9733 22.5383 44.0422L22.5556 46.4026C22.5556 46.4773 22.5958 46.5117 22.6647 46.5117L23.216 46.506C23.2907 46.506 23.3251 46.4658 23.3251 46.3969L23.3194 45.5354L24.6805 45.5239L24.6862 46.3854C24.6862 46.46 24.7264 46.4945 24.7953 46.4945L25.3467 46.4888C25.4213 46.4888 25.4558 46.4486 25.4558 46.3796L25.4385 44.0193C25.4385 43.9504 25.4041 43.9102 25.3294 43.9102Z" fill="#224099"/>
<path d="M27.4394 43.4857L27.8185 43.4168C27.8931 43.4053 27.9161 43.3651 27.8759 43.3191L27.4796 42.8769C27.4394 42.831 27.3877 42.8023 27.3131 42.8195L26.8766 42.8999C26.8134 42.9114 26.7732 42.9516 26.8249 42.9975L27.2786 43.4283C27.3303 43.4742 27.3648 43.4972 27.4394 43.4857Z" fill="#224099"/>
<path d="M28.2628 43.8332C28.056 43.5633 27.8895 43.5231 27.6425 43.569L27.3496 43.6207C27.1544 43.6552 27.0165 43.7528 26.9189 44.0802L26.2584 46.3314C26.2355 46.4003 26.2584 46.4463 26.3388 46.429L26.9993 46.3084C27.0567 46.297 27.0797 46.2797 27.0969 46.2338L27.2118 45.8203L28.6533 45.5561L28.9117 45.9007C28.9404 45.9409 28.9691 45.9524 29.0266 45.9409L29.6698 45.826C29.7502 45.8088 29.7502 45.7629 29.71 45.7054L28.2628 43.8332ZM27.3783 45.1943L27.6195 44.3214C27.6253 44.3041 27.6368 44.2926 27.654 44.2869L27.6712 44.2812C27.6884 44.2754 27.6999 44.2812 27.7172 44.2984L28.2628 45.0277L27.3783 45.1943Z" fill="#224099"/>
<path d="M32.6393 42.1104C32.6106 42.0415 32.5646 42.0185 32.4957 42.0472L31.9961 42.2425C31.9272 42.2712 31.9042 42.3172 31.9329 42.3861L32.5417 43.9712C32.5532 43.9941 32.5474 44.0056 32.5302 44.0171L32.5072 44.0286C32.49 44.0343 32.4785 44.0343 32.4613 44.0171L31.0657 42.9202C30.8532 42.7536 30.7671 42.7249 30.4397 42.8513L30.0262 43.0121C29.7563 43.1154 29.6702 43.259 29.808 43.6323L30.5144 45.4701C30.5431 45.539 30.589 45.562 30.658 45.5332L31.1576 45.338C31.2265 45.3093 31.2495 45.2633 31.2208 45.1944L30.612 43.6093C30.6005 43.5864 30.6063 43.5749 30.6235 43.5634L30.6465 43.5519C30.6637 43.5462 30.6752 43.5462 30.6924 43.5634L32.0937 44.6603C32.3062 44.8269 32.3924 44.8556 32.7197 44.7292L33.1217 44.5742C33.3916 44.4708 33.4835 44.3215 33.3399 43.9539L32.6393 42.1104Z" fill="#224099"/>
<path d="M35.7268 40.3216C35.6866 40.2584 35.6349 40.2469 35.5775 40.2871L35.1066 40.58C35.0434 40.6202 35.0319 40.6662 35.0721 40.7293L35.5143 41.4472L34.3543 42.1651L33.912 41.4472C33.8718 41.384 33.8259 41.3726 33.7627 41.4128L33.2918 41.7056C33.2286 41.7458 33.2171 41.7975 33.2573 41.855L34.4978 43.865C34.538 43.9282 34.5897 43.9397 34.6471 43.8995L35.1181 43.6066C35.1812 43.5664 35.1927 43.5147 35.1525 43.4573L34.6988 42.7222L35.8589 42.0043L36.3126 42.7394C36.3528 42.8026 36.4045 42.814 36.4619 42.7738L36.9329 42.4809C36.996 42.4407 37.0075 42.3891 36.9673 42.3316L35.7268 40.3216Z" fill="#224099"/>
<path d="M6.38213 34.2598L5.37136 34.857L5.02104 34.2655L4.73389 34.4378L5.61831 35.9252L5.90546 35.7587L5.55514 35.1614L6.56016 34.5641L6.38213 34.2598Z" fill="#224099"/>
<path d="M5.73746 33.0282L5.22059 33.2694L5.0885 32.9822L5.34119 32.1782L5.1287 31.7188L4.89898 32.5687L4.82432 32.4079C4.78412 32.3275 4.74966 32.2701 4.70946 32.2356C4.67501 32.2012 4.62906 32.1839 4.57163 32.1839C4.54292 32.1839 4.5142 32.1897 4.49123 32.1954C4.46251 32.2012 4.42806 32.2184 4.38211 32.2414L4.12942 32.3562C4.05476 32.3907 3.99733 32.4251 3.96862 32.4596C3.9399 32.4941 3.91693 32.5343 3.91693 32.5802C3.91119 32.6147 3.91693 32.6434 3.92267 32.6778C3.92842 32.7123 3.94564 32.7525 3.97436 32.8042L4.51994 33.9757L5.88678 33.3383L5.73746 33.0282ZM4.68075 33.5221L4.34765 32.8157C4.32468 32.7697 4.31894 32.7295 4.32468 32.7008C4.33043 32.6721 4.3534 32.6491 4.38786 32.6376L4.44529 32.6089C4.47974 32.5917 4.50846 32.5917 4.53717 32.6032C4.56015 32.6147 4.58886 32.6491 4.60609 32.6951L4.93344 33.4014L4.68075 33.5221Z" fill="#224099"/>
<path d="M4.83358 31.4605C4.86803 31.4375 4.89675 31.4088 4.91398 31.3744C4.93121 31.3399 4.93695 31.3054 4.93695 31.2595C4.93695 31.2136 4.91972 31.1619 4.90249 31.1044L4.56365 30.1224C4.54643 30.065 4.52345 30.019 4.49474 29.9846C4.47177 29.9501 4.44305 29.9214 4.40859 29.9041C4.37414 29.8869 4.33968 29.8812 4.29373 29.8869C4.24779 29.8927 4.20185 29.9041 4.13867 29.9214L3.03027 30.3062L3.14513 30.6393L4.25353 30.2602L4.57514 31.2078L3.46674 31.5868L3.5816 31.9199L4.69574 31.5409C4.75317 31.5122 4.79912 31.4892 4.83358 31.4605Z" fill="#224099"/>
<path d="M4.2447 29.0233L3.24541 29.2473L3.98052 27.8345L3.92309 27.5703L2.45288 27.8977L2.52754 28.2365L3.52682 28.0125L2.79172 29.4253L2.85489 29.6952L4.3251 29.3621L4.2447 29.0233Z" fill="#224099"/>
<path d="M3.53346 27.1321C3.59663 27.1263 3.64832 27.1148 3.68852 27.0976C3.72872 27.0804 3.76318 27.0574 3.78615 27.0287C3.80913 27 3.82635 26.9655 3.8321 26.9196C3.83784 26.8794 3.83784 26.8277 3.8321 26.7645L3.71149 25.6389C3.70575 25.5757 3.69427 25.524 3.67704 25.4838C3.65981 25.4436 3.63684 25.4092 3.60812 25.3862C3.57941 25.3632 3.54495 25.346 3.499 25.3402C3.45306 25.3345 3.40137 25.3345 3.34394 25.3402L2.79836 25.3977L2.89599 26.3051L3.2176 26.2706L3.15442 25.7078L3.3784 25.6848L3.499 26.7703L2.66052 26.8736L2.53992 25.7882L2.66627 25.7767L2.55715 25.4379L2.49972 25.4436C2.44229 25.4494 2.3906 25.4608 2.34466 25.4781C2.30446 25.4953 2.27 25.5183 2.24703 25.547C2.22406 25.5757 2.20683 25.6102 2.20108 25.6561C2.19534 25.7021 2.19534 25.7537 2.20108 25.8112L2.32169 26.9311C2.33317 27.0517 2.36763 27.1378 2.42506 27.178C2.47675 27.2239 2.56864 27.2354 2.68924 27.2239L3.53346 27.1321Z" fill="#224099"/>
<path d="M2.4569 23.5333L3.62847 23.5677L3.63995 23.2174L2.46838 23.183L2.49135 22.488L2.15252 22.4766L2.10083 24.211L2.43967 24.2224L2.4569 23.5333Z" fill="#224099"/>
<path d="M3.70454 22.0908L3.40016 21.8726L3.52076 20.925L3.87108 20.7929L3.92277 20.4023L2.32047 21.0685L2.28027 21.4016L3.67008 22.4354L3.70454 22.0908ZM3.10152 21.6543L2.58465 21.281L3.18192 21.0513L3.10152 21.6543Z" fill="#224099"/>
<path d="M2.13543 21.0036L2.1584 20.7969L1.73916 21.0438L1.71045 21.2908L2.05503 21.6354L2.078 21.4286L1.90571 21.1874L2.13543 21.0036Z" fill="#224099"/>
<path d="M4.04133 19.8106L3.03631 19.5636L4.01836 19.1387L4.03559 19.0698L3.35792 18.2428L4.36294 18.4897L4.44334 18.1509L2.97888 17.7891L2.89848 18.1222L3.59338 18.9664L2.58835 19.4028L2.49072 19.7934L3.95519 20.1494L4.04133 19.8106Z" fill="#224099"/>
<path d="M3.7711 16.517L4.54641 16.8443C4.60384 16.8673 4.65553 16.8845 4.69573 16.8903C4.74167 16.896 4.77613 16.8903 4.81059 16.8788C4.84505 16.8673 4.87376 16.8386 4.90248 16.8099C4.93119 16.7754 4.95416 16.7295 4.97713 16.672L5.4136 15.6326C5.43657 15.5751 5.4538 15.5234 5.45955 15.4832C5.46529 15.4373 5.45955 15.4028 5.44806 15.3684C5.43657 15.3339 5.40786 15.3052 5.3734 15.2765C5.33894 15.2478 5.293 15.2248 5.23557 15.2018L4.73019 14.9893L4.37986 15.8336L4.6785 15.9599L4.89673 15.4373L5.10348 15.5234L4.68424 16.5285L3.91468 16.2069L4.33392 15.2018L4.45452 15.2535L4.52344 14.9032L4.46601 14.8802C4.40858 14.8573 4.36263 14.84 4.31669 14.8343C4.27074 14.8285 4.23629 14.8343 4.20183 14.8458C4.16737 14.863 4.13866 14.886 4.10994 14.9204C4.08123 14.9549 4.05825 15.0008 4.03528 15.0583L3.59881 16.1035C3.55287 16.2183 3.54138 16.3045 3.5701 16.3677C3.59307 16.4136 3.66199 16.471 3.7711 16.517Z" fill="#224099"/>
<path d="M4.60185 13.9068L4.44238 14.2188L5.78214 14.9037L5.9416 14.5917L4.60185 13.9068Z" fill="#224099"/>
<path d="M6.22477 14.044L6.03526 13.7224L6.52915 12.9068L6.90245 12.9298L7.1092 12.591L5.37481 12.5508L5.19678 12.8379L6.04674 14.3483L6.22477 14.044ZM5.52987 12.8494L6.16734 12.8839L5.85148 13.4065L5.52987 12.8494Z" fill="#224099"/>
<path d="M5.14835 12.5378L5.03349 11.9922L4.86694 12.2621L5.04498 12.7158L5.14835 12.5378Z" fill="#224099"/>
<path d="M6.30263 11.686L6.97456 12.1972C7.02625 12.2316 7.06645 12.2603 7.10665 12.2776C7.14685 12.2948 7.18705 12.3005 7.22151 12.2948C7.25597 12.2891 7.29617 12.2718 7.33063 12.2489C7.36508 12.2201 7.39954 12.1857 7.43974 12.134L8.12316 11.2323C8.15762 11.1807 8.18633 11.1405 8.20356 11.1003C8.22079 11.0601 8.22653 11.0199 8.22079 10.9854C8.21505 10.9509 8.19782 10.9107 8.17485 10.8763C8.14613 10.8418 8.11167 10.8074 8.05999 10.7672L7.38806 10.256C7.34211 10.2216 7.29617 10.1929 7.25597 10.1756C7.21577 10.1584 7.17556 10.1527 7.14111 10.1584C7.10665 10.1641 7.07219 10.1814 7.03199 10.2043C6.99753 10.2331 6.96307 10.2675 6.92287 10.3192L6.23946 11.2209C6.1648 11.3185 6.13608 11.3989 6.14182 11.4678C6.14757 11.5425 6.205 11.6114 6.30263 11.686ZM7.17556 10.5432L7.84175 11.0486L7.18131 11.9158L6.51512 11.4104L7.17556 10.5432Z" fill="#224099"/>
<path d="M9.94046 9.24275C9.98066 9.20255 10.0151 9.1681 10.0381 9.13938C10.0668 9.11067 10.0898 9.07621 10.107 9.04749C10.1242 9.01878 10.1415 8.99006 10.153 8.96135C10.1644 8.93263 10.1759 8.90392 10.1817 8.8752C10.1989 8.80054 10.1932 8.72014 10.1702 8.64548C10.153 8.5938 10.1242 8.54211 10.0898 8.49042C10.0553 8.43873 10.0094 8.38705 9.9462 8.32387L9.79689 8.16881C9.69351 8.06544 9.60162 7.99078 9.51548 7.95058C9.42933 7.91038 9.34319 7.89889 9.2513 7.92186C9.22259 7.92761 9.19387 7.93335 9.16516 7.94484C9.13644 7.95632 9.10773 7.97355 9.07901 7.99078C9.0503 8.00801 9.02158 8.03098 8.98712 8.0597C8.95267 8.08841 8.91821 8.11713 8.88375 8.15733L8.0625 8.96135L9.11921 10.0353L9.94046 9.24275ZM9.13644 8.39279C9.2111 8.32387 9.27427 8.28942 9.3317 8.28942C9.38913 8.28942 9.45231 8.32962 9.52697 8.40428L9.71648 8.59954C9.79114 8.6742 9.8256 8.73737 9.8256 8.80054C9.8256 8.85797 9.79114 8.92115 9.71648 8.99581L9.1307 9.57011L8.54491 8.97283L9.13644 8.39279Z" fill="#224099"/>
<path d="M10.6404 8.34057C10.6748 8.36354 10.715 8.38077 10.7495 8.38651C10.7839 8.39226 10.8241 8.38651 10.8643 8.36928C10.9045 8.35206 10.9505 8.32334 10.9964 8.28888L11.8119 7.64567C11.8579 7.60546 11.8981 7.57101 11.921 7.53655C11.9498 7.50209 11.9612 7.46763 11.967 7.42743C11.9727 7.39297 11.967 7.35277 11.9498 7.31257C11.9325 7.27237 11.9038 7.22643 11.8694 7.18048L11.1457 6.25586L10.8701 6.47409L11.5937 7.39297L10.8069 8.01322L10.0833 7.09434L9.80762 7.31257L10.5312 8.2372C10.5657 8.2774 10.6059 8.31185 10.6404 8.34057Z" fill="#224099"/>
<path d="M11.6713 8.06887L11.4412 8.25L11.6436 8.50723L11.8738 8.32611L11.6713 8.06887Z" fill="#224099"/>
<path d="M12.2923 6.9038C12.3268 6.95549 12.3555 6.99569 12.3899 7.03015C12.4244 7.05886 12.4588 7.08183 12.4933 7.08758C12.5278 7.09906 12.568 7.09332 12.6082 7.08183C12.6484 7.07035 12.6943 7.04737 12.746 7.01292L13.7051 6.41564C13.7568 6.38119 13.797 6.35247 13.8257 6.31801C13.8544 6.28356 13.8774 6.2491 13.8831 6.21464C13.8889 6.18018 13.8889 6.13998 13.8774 6.09978C13.8659 6.05958 13.8429 6.00789 13.8085 5.9562L13.6993 5.78391L13.3605 5.90452L13.5041 6.13424L12.5795 6.71428L12.1372 6.00215L13.0619 5.42211L13.1882 5.62311L13.4466 5.37616L13.3605 5.23259C13.326 5.1809 13.2973 5.1407 13.2629 5.11198C13.2284 5.08327 13.194 5.0603 13.1595 5.05455C13.125 5.04881 13.0848 5.04881 13.0446 5.0603C13.0044 5.07178 12.9527 5.09475 12.9011 5.12921L11.9535 5.73223C11.8501 5.7954 11.7927 5.86432 11.7754 5.93323C11.7582 6.00215 11.7869 6.08829 11.8501 6.19167L12.2923 6.9038Z" fill="#224099"/>
<path d="M15.3853 5.52637L14.9833 4.58452L16.5052 5.04396L16.7579 4.93484L16.1606 3.55078L15.839 3.68861L16.2468 4.63047L14.7191 4.17103L14.4722 4.28014L15.0694 5.66421L15.3853 5.52637Z" fill="#224099"/>
<path d="M17.1206 4.44089C17.1378 4.49832 17.1608 4.55 17.1837 4.58446C17.2067 4.62466 17.2354 4.64763 17.2699 4.66486C17.3043 4.68209 17.3388 4.68783 17.3847 4.68783C17.4249 4.68783 17.4766 4.67635 17.5398 4.65912L18.6195 4.33177C18.6769 4.31454 18.7286 4.29157 18.7631 4.2686C18.7975 4.24562 18.8262 4.21691 18.8435 4.18245C18.8607 4.14799 18.8664 4.11353 18.8664 4.06759C18.8664 4.02165 18.855 3.96996 18.8377 3.91253L18.6769 3.38417L17.7982 3.65984L17.8901 3.96996L18.43 3.80341L18.4931 4.02165L17.4479 4.33751L17.2067 3.53923L18.2519 3.22337L18.2921 3.34972L18.608 3.17743L18.5908 3.12C18.5735 3.06257 18.5506 3.01662 18.5276 2.97642C18.5046 2.93622 18.4759 2.91325 18.4415 2.89602C18.407 2.87879 18.3725 2.87305 18.3266 2.87305C18.2807 2.87305 18.229 2.88453 18.1715 2.90176L17.0919 3.22911C16.977 3.26357 16.9023 3.31526 16.8679 3.37269C16.8334 3.43586 16.8392 3.52201 16.8736 3.64261L17.1206 4.44089Z" fill="#224099"/>
<path d="M19.7283 4.06033L19.6134 3.44582L20.6874 3.24482L20.8022 3.85932L21.1468 3.79615L20.8711 2.31445L20.5265 2.37763L20.6299 2.92895L19.556 3.12996L19.4526 2.57863L19.1138 2.6418L19.3837 4.1235L19.7283 4.06033Z" fill="#224099"/>
<path d="M22.7985 1.70556L22.4711 1.34375L22.1553 1.36672L22.5917 1.71704L22.7985 1.70556Z" fill="#224099"/>
<path d="M23.2034 3.61806L23.1805 3.28497L21.9744 3.3826L21.9515 3.08971L22.6464 3.03802L22.6234 2.71641L21.9285 2.77384L21.9113 2.54987L23.1001 2.45223L23.0714 2.11914L21.5322 2.23974L21.6528 3.74441L23.2034 3.61806Z" fill="#224099"/>
<path d="M22.2876 1.81647L22.5174 2.00025L22.7241 1.98302L22.3968 1.62695L22.1441 1.64418L21.8799 2.05194L22.0866 2.03471L22.2876 1.81647Z" fill="#224099"/>
<path d="M24.814 2.60695L25.9626 3.7096L26.2325 3.72683L26.3302 2.22217L25.9798 2.19919L25.9167 3.22145L24.7681 2.11879L24.4924 2.10156L24.3948 3.60623L24.7451 3.6292L24.814 2.60695Z" fill="#224099"/>
<path d="M26.8879 3.8166C26.9281 3.83383 26.974 3.85106 27.0372 3.86254L28.1513 4.05781C28.2145 4.06929 28.2662 4.06929 28.3064 4.06929C28.3523 4.06355 28.3868 4.05206 28.4155 4.03483C28.4442 4.01186 28.4729 3.98315 28.4902 3.94295C28.5074 3.90274 28.5246 3.85106 28.5361 3.79363L28.6337 3.25379L27.7321 3.09298L27.6747 3.40885L28.2317 3.50648L28.1915 3.73045L27.1176 3.53519L27.2612 2.71394L28.3351 2.90346L28.3121 3.02981L28.6682 3.01832L28.6797 2.96089C28.6912 2.90346 28.6912 2.85177 28.6912 2.80583C28.6854 2.75989 28.6739 2.72543 28.6567 2.69671C28.6337 2.668 28.605 2.64503 28.5648 2.62205C28.5246 2.60483 28.4729 2.5876 28.4155 2.57611L27.3014 2.38085C27.1808 2.35788 27.0946 2.36936 27.0372 2.40956C26.9798 2.44976 26.9396 2.53017 26.9223 2.65077L26.773 3.47776C26.7615 3.54094 26.7558 3.59262 26.7615 3.63282C26.7673 3.67877 26.7788 3.71323 26.8017 3.74194C26.819 3.7764 26.8534 3.79937 26.8879 3.8166Z" fill="#224099"/>
<path d="M29.4281 3.7192L30.4791 4.02932L30.3011 4.63233L30.6341 4.72996L31.0649 3.28273L30.726 3.1851L30.571 3.72494L29.52 3.41482L29.6808 2.87497L29.3477 2.77734L28.917 4.21884L29.2558 4.32221L29.4281 3.7192Z" fill="#224099"/>
<path d="M31.664 3.5015L31.125 4.90625L31.4521 5.03174L31.991 3.62698L31.664 3.5015Z" fill="#224099"/>
<path d="M33.4512 3.82187L33.5545 4.09753L33.744 4.18942L33.6349 3.71275L33.4109 3.60938L32.9802 3.82761L33.164 3.9195L33.4512 3.82187Z" fill="#224099"/>
<path d="M32.3998 5.6917L32.2612 5.98828L32.5266 6.11226L32.6652 5.81568L32.3998 5.6917Z" fill="#224099"/>
<path d="M33.3321 5.89642L33.4757 5.59204L32.3787 5.08091L32.5051 4.81674L33.1368 5.10963L33.2689 4.82248L32.6372 4.52959L32.7348 4.32284L33.8145 4.82822L33.9581 4.52384L32.5625 3.86914L31.925 5.23598L33.3321 5.89642Z" fill="#224099"/>
<path d="M34.0406 6.28282L34.3335 5.79467L35.1432 6.27708C35.2236 6.32303 35.2868 6.35174 35.3328 6.35748C35.3844 6.36323 35.4304 6.35174 35.4706 6.32303C35.4936 6.3058 35.5165 6.28857 35.5338 6.2656C35.551 6.24262 35.574 6.21391 35.5969 6.16796L35.7405 5.9325C35.7865 5.85784 35.8094 5.80041 35.8152 5.76021C35.8209 5.71427 35.8152 5.67407 35.7922 5.62812C35.775 5.59941 35.7577 5.57069 35.729 5.55346C35.706 5.53049 35.6658 5.50752 35.6199 5.4788L34.5115 4.81836L33.7419 6.09905L34.0406 6.28282ZM34.6436 5.2778L35.3155 5.67981C35.3615 5.70852 35.3902 5.7315 35.4017 5.76021C35.4132 5.78318 35.4074 5.81764 35.3902 5.84636L35.3557 5.90379C35.3328 5.93824 35.3098 5.95547 35.2811 5.96122C35.2524 5.96696 35.2179 5.95547 35.172 5.92676L34.5 5.52475L34.6436 5.2778Z" fill="#224099"/>
<path d="M38.3718 7.46005L38.0961 7.24756L36.9705 7.73572L37.1657 6.51246L36.8441 6.25977L36.5972 7.98267L36.7867 8.13198L38.3718 7.46005Z" fill="#224099"/>
<path d="M39.4855 8.25729L39.5372 7.77487L39.3132 7.55664L39.3362 8.11371L39.4855 8.25729Z" fill="#224099"/>
<path d="M37.7063 8.92272L38.0624 8.80786L38.7515 9.47405L38.6482 9.83586L38.9296 10.1115L39.3545 8.42882L39.1133 8.19336L37.4536 8.68151L37.7063 8.92272ZM39.0215 8.50922L38.8492 9.12373L38.4127 8.69874L39.0215 8.50922Z" fill="#224099"/>
<path d="M39.7215 11.0395L40.3532 11.8435C40.3934 11.8894 40.4279 11.9296 40.4623 11.9526C40.4968 11.9813 40.5312 11.9928 40.5714 11.9985C40.6059 12.0043 40.6461 11.9985 40.6863 11.9813C40.7265 11.9641 40.7725 11.9354 40.8184 11.9009L41.0194 11.7459C41.0653 11.7114 41.1055 11.6712 41.1285 11.6367C41.1572 11.6023 41.1687 11.5678 41.1745 11.5276C41.1802 11.4932 41.1745 11.453 41.1572 11.4128C41.14 11.3726 41.1113 11.3266 41.0768 11.2807L40.4853 10.5226L40.6806 10.3675L41.2491 11.0969L41.1113 11.206L41.3812 11.4357L41.4616 11.3726C41.5076 11.3381 41.5478 11.2979 41.5707 11.2634C41.5994 11.229 41.6109 11.1945 41.6167 11.1543C41.6224 11.1199 41.6167 11.0797 41.5994 11.0395C41.5822 10.9993 41.5535 10.9533 41.519 10.9074L40.9333 10.1436C40.8586 10.0459 40.7839 9.99424 40.715 9.98849C40.6461 9.97701 40.56 10.0115 40.4681 10.0861L40.2786 10.2354C40.2326 10.2756 40.1924 10.3101 40.1694 10.3446C40.1407 10.379 40.1292 10.4135 40.1235 10.4537C40.1178 10.4881 40.1235 10.5283 40.1407 10.5685C40.158 10.6087 40.1867 10.6547 40.2211 10.7006L40.8127 11.4587L40.6059 11.6195L40.0029 10.8442L40.1465 10.7351L39.8765 10.5054L39.7904 10.5743C39.7445 10.6145 39.7043 10.6489 39.6755 10.6834C39.6468 10.7179 39.6353 10.7523 39.6296 10.7925C39.6239 10.827 39.6296 10.8672 39.6468 10.9074C39.6583 10.9476 39.687 10.9935 39.7215 11.0395Z" fill="#224099"/>
<path d="M43.2438 12.4467L43.0715 12.1825L42.5891 12.1309L42.6982 12.3089L43.2438 12.4467Z" fill="#224099"/>
<path d="M40.8809 12.5744L41.2542 12.5514L41.7653 13.3611L41.5816 13.6828L41.7941 14.0158L42.6096 12.4825L42.4315 12.1953L40.7029 12.2757L40.8809 12.5744ZM42.2592 12.4882L41.9434 13.0453L41.616 12.5284L42.2592 12.4882Z" fill="#224099"/>
<path d="M42.8806 13.5888L43.1907 14.2033L42.1455 14.7316L42.3063 15.0418L43.3515 14.5191L43.6617 15.1394L43.9603 14.9901L43.185 13.4395L42.8806 13.5888Z" fill="#224099"/>
<path d="M43.1196 16.9836L43.7169 16.7883L44.0615 17.8221L43.4699 18.0173L43.5791 18.3504L45.0091 17.8738L44.8942 17.5407L44.3658 17.7187L44.0155 16.685L44.5496 16.5069L44.4405 16.1738L43.0105 16.6505L43.1196 16.9836Z" fill="#224099"/>
<path d="M43.7452 18.9404L44.107 19.0438L44.3137 19.9799L44.0323 20.2211L44.1185 20.6059L45.4049 19.44L45.3303 19.1069L43.6763 18.6016L43.7452 18.9404ZM45.0718 19.3252L44.5894 19.7444L44.4573 19.1471L45.0718 19.3252Z" fill="#224099"/>
<path d="M43.6322 19.4939L43.3125 19.5645L43.3756 19.8505L43.6952 19.78L43.6322 19.4939Z" fill="#224099"/>
<path d="M44.4836 20.777C44.4204 20.7828 44.3687 20.7943 44.3285 20.8115C44.2883 20.8287 44.2539 20.8517 44.2309 20.8804C44.2079 20.9091 44.1907 20.9436 44.185 20.9895C44.1792 21.0297 44.1792 21.0814 44.185 21.1446L44.3113 22.2645C44.3171 22.3276 44.3285 22.3793 44.3458 22.4195C44.363 22.4597 44.386 22.4942 44.4147 22.5172C44.4434 22.5401 44.4779 22.5574 44.5238 22.5631C44.5698 22.5688 44.6214 22.5688 44.6789 22.5631L44.8799 22.5401L44.9143 22.1841L44.6444 22.2128L44.5238 21.1216L45.3565 21.0297L45.4771 22.1151L45.2417 22.1439L45.3565 22.4827L45.5231 22.4655C45.5805 22.4597 45.6322 22.4482 45.6724 22.431C45.7126 22.4138 45.7471 22.3908 45.77 22.3621C45.793 22.3334 45.8102 22.2989 45.816 22.253C45.8217 22.207 45.8217 22.1553 45.816 22.0979L45.6896 20.978C45.6782 20.8574 45.6437 20.777 45.5863 20.7311C45.5288 20.6909 45.4427 20.6736 45.3221 20.6851L44.4836 20.777Z" fill="#224099"/>
<path d="M45.3261 24.5157V23.4245H45.8889V23.0742H44.3843V23.4245H45.0103V24.5157H44.3843V24.866H45.8947L45.8889 24.5157H45.3261Z" fill="#224099"/>
<path d="M45.759 26.3201L44.2716 26.1191L44.0706 27.5836L44.3979 27.6295L44.553 26.5097L45.7131 26.6705L45.759 26.3201Z" fill="#224099"/>
<path d="M45.4443 29.117L45.7257 29.6052L45.7947 29.2951L45.4903 28.916L45.4443 29.117Z" fill="#224099"/>
<path d="M43.9635 28.0421L44.2449 28.289L44.0267 29.2194L43.6649 29.317L43.573 29.7018L45.2385 29.2079L45.3189 28.8806L44.0497 27.709L43.9635 28.0421ZM44.5206 28.5302L44.9973 28.9552L44.377 29.1275L44.5206 28.5302Z" fill="#224099"/>
<path d="M43.4789 29.9098L43.3743 30.2441L44.8102 30.6937L44.9148 30.3594L43.4789 29.9098Z" fill="#224099"/>
<path d="M43.0851 31.2637L42.9186 31.6485L43.2 32.3721L42.4764 32.6477L42.2983 33.0612L43.3206 32.6707L43.6939 33.6355L43.8547 33.2622L43.5848 32.5731L44.2682 32.3089L44.4462 31.9069L43.4699 32.2687L43.0851 31.2637Z" fill="#224099"/>
<path d="M41.3875 34.6698L41.6803 34.8363L42.2719 33.7854L42.5246 33.9232L42.1857 34.532L42.4614 34.687L42.806 34.084L43.0012 34.1931L42.4212 35.2326L42.7141 35.3934L43.4664 34.0496L42.1513 33.3145L41.3875 34.6698Z" fill="#224099"/>
<path d="M8.21401 37.6875C7.9326 37.6875 7.70288 37.9172 7.70288 38.1986C7.70288 38.48 7.9326 38.7098 8.21401 38.7098C8.49542 38.7098 8.72514 38.48 8.72514 38.1986C8.71939 37.9115 8.49542 37.6875 8.21401 37.6875Z" fill="#224099"/>
<path d="M39.6293 37.6875C39.3479 37.6875 39.1182 37.9172 39.1182 38.1986C39.1182 38.48 39.3479 38.7098 39.6293 38.7098C39.9107 38.7098 40.1404 38.48 40.1404 38.1986C40.1404 37.9115 39.9107 37.6875 39.6293 37.6875Z" fill="#224099"/>
<path d="M47.9655 22.7538C47.9541 22.5011 47.9368 22.2484 47.9139 22.0014C47.5348 17.4358 45.8808 13.2319 43.308 9.75162C40.6662 6.16798 37.0481 3.34817 32.8442 1.6827C32.6375 1.6023 32.425 1.5219 32.2125 1.44149C30.8916 0.959081 29.519 0.591529 28.1062 0.350323C27.8134 0.298636 27.5205 0.252692 27.2218 0.212491C26.1709 0.074659 25.0969 0 24 0C22.9031 0 21.8291 0.074659 20.7724 0.218234C20.4795 0.258435 20.1809 0.304379 19.888 0.356066C18.4752 0.603015 17.0969 0.970567 15.7818 1.44724C15.5693 1.5219 15.3625 1.6023 15.15 1.68844C10.9519 3.35391 7.33381 6.17373 4.68629 9.75162C2.11342 13.2319 0.45944 17.4358 0.086145 22.0014C0.063173 22.2541 0.045944 22.5011 0.034458 22.7538C0.011486 23.1673 0 23.5808 0 24C0 24.5628 0.022972 25.1199 0.05743 25.677C0.281407 28.9332 1.15434 32.0115 2.54989 34.7796L2.69347 35.061C3.27351 36.1752 3.9397 37.2434 4.68629 38.2484C8.42498 43.3022 14.0933 46.8399 20.6116 47.7588C20.8356 47.7875 21.0538 47.8162 21.2778 47.8449C22.0876 47.9368 22.9088 47.9885 23.7358 47.9943C23.822 47.9943 23.9081 48 24 48C24.0861 48 24.1723 48 24.2642 47.9943C25.0969 47.9828 25.9124 47.9368 26.7222 47.8449C26.9462 47.822 27.1701 47.7933 27.3884 47.7588C33.9009 46.8399 39.575 43.3022 43.3137 38.2484C44.0546 37.2434 44.7207 36.1752 45.3065 35.061C45.3582 34.9691 45.4042 34.8715 45.4501 34.7796C46.8399 32.0115 47.7186 28.9447 47.9426 25.6942C47.9828 25.1371 48 24.5686 48 24C48 23.5808 47.9885 23.1673 47.9655 22.7538ZM47.0696 25.7861C46.8859 28.2154 46.323 30.5355 45.4444 32.7006C45.3812 32.8557 45.318 33.0165 45.2491 33.1716C44.9677 33.8205 44.6633 34.4523 44.3245 35.0668C44.0086 35.6468 43.6698 36.2096 43.308 36.7552C39.776 42.0962 34.0905 45.8866 27.486 46.8859C27.262 46.9203 27.0438 46.949 26.8198 46.9777C25.9986 47.0754 25.1716 47.1328 24.3274 47.1443C24.2182 47.1443 24.1091 47.15 23.9943 47.15C23.8851 47.15 23.776 47.15 23.6612 47.1443C22.8169 47.1328 21.9842 47.0754 21.1687 46.9777C20.9447 46.949 20.7207 46.9203 20.5025 46.8859C13.8981 45.8866 8.21249 42.0962 4.68055 36.7552C4.31874 36.2096 3.9799 35.6468 3.66403 35.0668C3.33094 34.4523 3.02082 33.8205 2.73941 33.1716C2.6705 33.0165 2.60732 32.8615 2.54415 32.7006C1.66547 30.5355 1.10266 28.2039 0.91888 25.7688C0.872936 25.1831 0.849964 24.5973 0.849964 24C0.849964 23.6037 0.86145 23.2075 0.878679 22.8169C0.890165 22.5642 0.907394 22.3116 0.930366 22.0646C1.25772 18.0905 2.59584 14.4034 4.6748 11.2505C7.23044 7.39124 10.906 4.34171 15.2477 2.57286C15.4544 2.48672 15.6669 2.40632 15.8737 2.32592C17.1773 1.83776 18.5384 1.46447 19.9454 1.21177C20.2383 1.16009 20.5312 1.11414 20.8241 1.07394C21.8579 0.930366 22.9146 0.855707 23.9885 0.855707C25.0625 0.855707 26.1192 0.930366 27.1529 1.07394C27.4458 1.11414 27.7387 1.16009 28.0316 1.21177C29.4386 1.45872 30.7997 1.83202 32.1034 2.32592C32.3159 2.40632 32.5226 2.48672 32.7294 2.57286C37.0653 4.34171 40.7466 7.39124 43.3022 11.2505C45.3869 14.4034 46.7193 18.0905 47.0467 22.0646C47.0696 22.3173 47.0869 22.5642 47.0983 22.8169C47.1156 23.2075 47.1271 23.6037 47.1271 24C47.1385 24.603 47.1156 25.1945 47.0696 25.7861Z" fill="#224099"/>
<path d="M19.9822 11.218H28.0396H28.0626L28.5508 10.3451C28.4531 10.4198 28.344 10.4772 28.2291 10.5231C28.0224 10.5978 27.7984 10.5978 27.5859 10.5346L27.0289 10.3566C26.8106 10.2877 26.6211 10.1441 26.4948 9.95457L26.0009 9.24818H24.9212H24.3928C24.3928 9.04143 24.2205 8.86914 24.0138 8.86914C23.807 8.86914 23.6348 9.04143 23.6348 9.24818H23.0949H22.0152L21.5213 9.95457C21.395 10.1441 21.2055 10.2877 20.9872 10.3566L20.4302 10.5346C20.2234 10.6035 19.9937 10.6035 19.7869 10.5231C19.6721 10.4772 19.563 10.4198 19.4653 10.3451L19.9535 11.218H19.9822Z" fill="#224099"/>
<path d="M16.4407 6.81163C16.2339 6.90352 16.0272 6.99541 15.8204 7.09878C10.399 9.71759 6.43062 14.8748 5.44856 21.0256C5.40262 21.3299 5.35668 21.6401 5.32222 21.9502C5.2935 22.1914 5.48302 22.4096 5.72423 22.4269L7.36673 22.5475C7.59645 22.5647 7.80319 22.3981 7.83191 22.1627C7.87211 21.8468 7.92954 21.3989 7.99846 21.0256C8.87139 16.1612 11.9554 12.0722 16.1363 9.76353C16.3373 9.65442 16.544 9.5453 16.7508 9.44193C17.9338 8.85614 19.1916 8.40819 20.5182 8.12104C20.7939 8.06361 21.0753 8.00617 21.3509 7.96023C22.2066 7.8224 23.0853 7.742 23.987 7.742C24.8829 7.742 25.7616 7.81666 26.623 7.96023C26.9044 8.00617 27.1801 8.05786 27.4557 8.12104C28.7766 8.40819 30.0401 8.85614 31.2231 9.44193C31.4299 9.5453 31.6366 9.64867 31.8376 9.76353C36.0185 12.0722 39.0738 16.1727 39.9755 21.0256C40.0329 21.3242 40.0961 21.8181 40.1363 22.1627C40.165 22.3924 40.3717 22.5589 40.6015 22.5417L42.244 22.4211C42.4909 22.4039 42.6747 22.1856 42.646 21.9444C42.6115 21.6343 42.5713 21.3242 42.5196 21.0198C41.5376 14.8691 37.5692 9.71185 32.1478 7.09304C31.941 6.99541 31.7343 6.89778 31.5275 6.80589C30.2985 6.26605 29.0006 5.85255 27.6567 5.58837C27.3753 5.53094 27.0939 5.485 26.8068 5.43905C25.8879 5.30122 24.9403 5.22656 23.9812 5.22656C23.0221 5.22656 22.0803 5.30122 21.1557 5.43905C20.8685 5.47925 20.5871 5.53094 20.3057 5.58837C18.9676 5.85829 17.6697 6.27179 16.4407 6.81163Z" fill="#224099"/>
<path d="M42.7033 25.6752C42.7493 25.1296 42.778 24.5725 42.778 24.0155C42.778 23.9063 42.7722 23.757 42.7722 23.6077C42.7665 23.3608 42.554 23.1655 42.3013 23.1827L40.2511 23.332L30.9991 24.0155L27.2432 24.2911C26.6172 24.3371 26.1175 24.831 26.0716 25.457L25.4801 32.9918C25.4628 33.1755 25.3135 33.3191 25.124 33.3191H22.8785C22.6947 33.3191 22.5396 33.1755 22.5224 32.9918L22.1376 28.0356L21.9309 25.457C21.8792 24.831 21.3795 24.3371 20.7536 24.2911L16.9976 24.0155L5.70689 23.1827C5.45994 23.1655 5.24745 23.355 5.23597 23.6077C5.23022 23.757 5.23022 23.9063 5.23022 24.0155C5.23022 24.5783 5.25894 25.1296 5.30488 25.6752C5.32211 25.859 5.33934 26.0427 5.36231 26.2323C5.62649 28.4605 6.27545 30.574 7.25176 32.4979C7.36088 32.7104 7.47 32.9171 7.58486 33.1239C7.94666 33.7786 8.34867 34.4045 8.78514 35.0076C11.3695 38.5797 15.1828 41.21 19.605 42.2725C19.806 42.3184 19.9955 42.1519 19.9668 41.9451L19.7485 40.1188C19.7198 39.8661 19.5418 39.6651 19.3006 39.5905C16.4693 38.7348 13.9653 37.1325 12.0127 35.0076C11.4729 34.416 10.9732 33.79 10.5253 33.1239C10.3874 32.9171 10.2496 32.7104 10.1233 32.4979C9.17567 30.953 8.48076 29.2416 8.09598 27.4153C7.99835 26.9674 8.37739 26.5596 8.83109 26.6113L17.2274 27.5129C18.2266 27.6221 19.0192 28.4031 19.134 29.3967L19.8002 35.1397L20.3745 39.8719L20.6444 42.1404C20.6674 42.3529 20.834 42.5252 21.0465 42.5596C21.7988 42.6802 22.5626 42.7491 23.3379 42.7778C23.5619 42.7836 23.7859 42.7893 24.0098 42.7893C24.2338 42.7893 24.4578 42.7836 24.6818 42.7778C25.4571 42.7491 26.2266 42.6745 26.9732 42.5596C27.1857 42.5252 27.3465 42.3529 27.3752 42.1404L27.6452 39.8719L28.2195 35.1397L28.8799 29.4139C29.0005 28.4146 29.7873 27.6336 30.7866 27.5302L39.1714 26.6228C39.6251 26.5768 40.0041 26.9789 39.9065 27.4268C39.5159 29.2473 38.8268 30.953 37.8792 32.4921C37.7471 32.7046 37.615 32.9114 37.4772 33.1181C37.0292 33.7843 36.5296 34.4103 35.9897 35.0018C34.0429 37.1267 31.5332 38.729 28.7019 39.5847C28.4607 39.6594 28.2826 39.8604 28.2539 40.1131L28.0357 41.9394C28.0127 42.1461 28.1965 42.3127 28.3975 42.2667C32.8196 41.2043 36.633 38.574 39.2173 35.0018C39.6538 34.3988 40.05 33.7728 40.4176 33.1181C40.5325 32.9114 40.6416 32.7046 40.7507 32.4921C41.7213 30.574 42.376 28.472 42.6401 26.2437C42.6689 26.06 42.6861 25.8705 42.7033 25.6752ZM24.8943 40.0212C24.8828 40.159 24.7737 40.2624 24.6358 40.2682C24.4865 40.2739 24.3372 40.2739 24.1936 40.2796C24.1304 40.2796 24.0673 40.2854 24.0041 40.2854C23.9409 40.2854 23.8778 40.2796 23.8146 40.2796C23.6653 40.2796 23.5159 40.2739 23.3724 40.2682C23.2345 40.2624 23.1254 40.1533 23.1139 40.0212L22.7406 35.6048C22.7234 35.3981 22.89 35.2143 23.0967 35.2143H24.9115C25.124 35.2143 25.2848 35.3923 25.2676 35.6048L24.8943 40.0212Z" fill="#224099"/>
<path d="M15.1242 21.2295L13.9756 22.3896C13.7517 22.6136 13.8952 22.9984 14.2111 23.0214L21.901 23.6072C22.2743 23.6359 22.5729 23.9345 22.6016 24.3078L22.705 25.6631L22.8888 28.0982L23.1931 32.2791C23.2046 32.4629 23.3597 32.6064 23.5492 32.6064H24.4451C24.6289 32.6064 24.784 32.4629 24.8012 32.2791L25.1056 28.1154L25.2893 25.6631L25.3927 24.3078C25.4214 23.9345 25.7201 23.6359 26.0934 23.6072L33.7832 23.0214C34.0991 22.9984 34.2427 22.6136 34.0187 22.3896L32.8759 21.2295H28.046V17.6459L28.5169 17.2726V16.0953H26.9491V12.9481H29.4817L30.1709 11.7593C29.8837 11.9833 29.5219 12.1097 29.1314 12.1097C28.8845 12.1097 28.6547 12.058 28.4423 11.9661H28.4365L27.2477 11.4492H20.7524L19.5636 11.9661H19.5578C19.3453 12.058 19.1156 12.1097 18.8687 12.1097C18.4724 12.1097 18.1163 11.9776 17.8234 11.7593L18.5183 12.9481H21.051V16.0953H19.4832V17.2726L19.9541 17.6229V21.2353H15.1242V21.2295ZM23.0381 15.6301C23.2965 15.8598 23.6354 15.9919 24.0029 15.9919C24.3762 15.9919 24.715 15.8541 24.9735 15.6301L25.4329 16.0953H22.5729L23.0381 15.6301ZM22.929 14.5217C22.929 14.2633 23.0209 14.0221 23.1759 13.8383C23.2161 13.7866 23.2621 13.7407 23.3138 13.6947C23.5033 13.5397 23.7387 13.4478 23.9972 13.4478C24.2556 13.4478 24.4968 13.5397 24.6806 13.6947C24.7323 13.7349 24.7782 13.7809 24.8242 13.8383C24.9792 14.0221 25.0711 14.2633 25.0711 14.5217C25.0711 14.7802 24.9792 15.0214 24.8242 15.2051C24.7782 15.2568 24.7323 15.3028 24.6806 15.3487C24.4968 15.5038 24.2556 15.5957 23.9972 15.5957C23.7387 15.5957 23.4975 15.5038 23.3138 15.3487C23.2621 15.3085 23.2161 15.2568 23.1759 15.2051C23.0266 15.0214 22.929 14.7802 22.929 14.5217ZM25.1113 15.4923C25.341 15.2339 25.4731 14.895 25.4731 14.5217C25.4731 14.1542 25.3353 13.8153 25.1113 13.5569L25.5765 13.0975V15.9575L25.1113 15.4923ZM25.4329 12.9539L25.4157 12.9711L24.9677 13.4191C24.7093 13.1951 24.3705 13.0573 23.9972 13.0573C23.6296 13.0573 23.2908 13.1951 23.0323 13.4191L22.6016 12.9883L22.5844 12.9711L22.5672 12.9539H25.4329ZM22.4351 13.0917L22.8945 13.5512C22.6705 13.8096 22.5327 14.1484 22.5327 14.516C22.5327 14.8893 22.6705 15.2281 22.8945 15.4865L22.4351 15.946V13.0917ZM21.9929 17.9044H26.0187V21.2295H21.9929V17.9044Z" fill="#224099"/>
</svg>
