<svg width="21" height="21" viewBox="0 0 21 21" fill="none" xmlns="http://www.w3.org/2000/svg">
<path d="M3.5 6.5C3.5 3.67157 3.5 2.25736 4.37868 1.37868C5.25736 0.5 6.67157 0.5 9.5 0.5H11.5C14.3284 0.5 15.7426 0.5 16.6213 1.37868C17.5 2.25736 17.5 3.67157 17.5 6.5V14.5C17.5 17.3284 17.5 18.7426 16.6213 19.6213C15.7426 20.5 14.3284 20.5 11.5 20.5H9.5C6.67157 20.5 5.25736 20.5 4.37868 19.6213C3.5 18.7426 3.5 17.3284 3.5 14.5V6.5Z" stroke="#A0A0A0"/>
<path d="M3.5 2.57617C2.52491 2.67208 1.86857 2.88885 1.37868 3.37873C0.5 4.25741 0.5 5.67163 0.5 8.5001V12.5001C0.5 15.3285 0.5 16.7427 1.37868 17.6214C1.86857 18.1113 2.52491 18.328 3.5 18.4239" stroke="#A0A0A0"/>
<path d="M17.5 2.57617C18.4751 2.67208 19.1314 2.88885 19.6213 3.37873C20.5 4.25741 20.5 5.67163 20.5 8.5001V12.5001C20.5 15.3285 20.5 16.7427 19.6213 17.6214C19.1314 18.1113 18.4751 18.328 17.5 18.4239" stroke="#A0A0A0"/>
<path d="M7.5 11.5H13.5" stroke="#A0A0A0" stroke-linecap="round"/>
<path d="M7.5 7.5H13.5" stroke="#A0A0A0" stroke-linecap="round"/>
<path d="M7.5 15.5H10.5" stroke="#A0A0A0" stroke-linecap="round"/>
</svg>
