<svg width="20" height="20" viewBox="0 0 20 20" fill="none" xmlns="http://www.w3.org/2000/svg">
<path fill-rule="evenodd" clip-rule="evenodd" d="M10 0C7.23857 0 5 2.23857 5 5C5 7.76143 7.23857 10 10 10C12.7615 10 15 7.76143 15 5C15 2.23857 12.7615 0 10 0ZM6.81818 5C6.81818 3.24273 8.24273 1.81818 10 1.81818C11.7573 1.81818 13.1818 3.24273 13.1818 5C13.1818 6.75727 11.7573 8.18182 10 8.18182C8.24273 8.18182 6.81818 6.75727 6.81818 5Z" fill="#A0A0A0"/>
<path d="M6 11.8182C2.68629 11.8182 0 14.2603 0 17.2727V19.0909C0 19.593 0.44772 20 1 20C1.55228 20 2 19.593 2 19.0909V17.2727C2 15.2644 3.79086 13.6364 6 13.6364H14C16.2091 13.6364 18 15.2644 18 17.2727V19.0909C18 19.593 18.4477 20 19 20C19.5523 20 20 19.593 20 19.0909V17.2727C20 14.2603 17.3137 11.8182 14 11.8182H6Z" fill="#A0A0A0"/>
</svg>
