<svg width="36" height="36" viewBox="0 0 36 36" fill="none" xmlns="http://www.w3.org/2000/svg">
<path d="M18 0C14.4399 0 10.9598 1.05568 7.99974 3.03355C5.03966 5.01141 2.73255 7.82263 1.37018 11.1117C0.00779911 14.4008 -0.348661 18.02 0.345873 21.5116C1.04041 25.0033 2.75474 28.2106 5.27208 30.7279C7.78943 33.2453 10.9967 34.9596 14.4884 35.6541C17.98 36.3487 21.5992 35.9922 24.8883 34.6298C28.1774 33.2674 30.9886 30.9603 32.9664 28.0003C34.9443 25.0402 36 21.5601 36 18C36 15.6362 35.5344 13.2956 34.6298 11.1117C33.7252 8.92783 32.3994 6.94353 30.7279 5.27208C29.0565 3.60062 27.0722 2.27475 24.8883 1.37017C22.7044 0.465584 20.3638 0 18 0ZM18 3.6C20.8409 3.60118 23.6179 4.44264 25.9817 6.01847C28.3454 7.59431 30.1903 9.83411 31.284 12.456C26.9421 11.3539 22.4796 10.7976 18 10.8C13.5065 10.8006 9.031 11.3691 4.68001 12.492C5.77055 9.85771 7.61854 7.60643 9.98982 6.02345C12.3611 4.44046 15.1489 3.59702 18 3.6ZM3.60001 19.206L5.59801 18.972C6.70322 18.8424 7.82335 18.9483 8.88472 19.2826C9.94609 19.6169 10.9247 20.1722 11.7561 20.9118C12.5875 21.6514 13.253 22.5586 13.7086 23.5738C14.1643 24.589 14.4 25.6892 14.4 26.802V31.932C11.5011 31.1952 8.90356 29.5739 6.96816 27.2933C5.03276 25.0128 3.85554 22.1862 3.60001 19.206ZM21.6 31.932V26.802C21.6009 25.6943 21.8352 24.5992 22.2877 23.5882C22.7401 22.5771 23.4006 21.6727 24.2259 20.934C25.0513 20.1952 26.0231 19.6387 27.0779 19.3006C28.1327 18.9626 29.247 18.8506 30.348 18.972L32.346 19.206C32.094 22.1791 30.9247 25.0006 28.9996 27.2803C27.0746 29.5601 24.4889 31.1855 21.6 31.932Z" fill="#21409A"/>
</svg>
