<svg width="160" height="101" viewBox="0 0 160 101" fill="none" xmlns="http://www.w3.org/2000/svg">
<path d="M1.24878 73.1443L141.599 99.9941H160V68.2156C141.876 62.9321 111.775 54.5391 99.4781 53.365C81.3343 51.6425 32.8333 55.481 19.6623 59.313C12.0039 61.5451 6.70346 67.0415 2.3924 69.6607L1.24878 73.1443Z" fill="url(#paint0_linear_8565_878)"/>
<path d="M26.4012 71.2732C30.8536 68.8024 35.6658 66.3445 40.3688 64.2156C51.2396 59.3837 58.2426 57.3128 68.7215 54.8162C71.4457 54.1904 74.067 53.6485 76.5727 53.1776C75.6539 53.2099 74.7288 53.2486 73.7972 53.2873C69.7945 54.0679 65.5413 55.0227 61.1659 56.1839C54.6512 57.9128 50.8091 59.2546 45.8941 61.1448L44.5963 61.6674C38.2871 64.2027 31.1491 67.6928 24.705 71.2538L26.4012 71.2732Z" fill="white"/>
<path d="M100.988 53.5386C96.8501 55.5256 97.8009 57.2351 97.8138 57.3577C98.8418 60.4736 151.243 71.6858 154.404 72.3696L150.497 72.3373C138.509 69.6149 124.593 66.3119 114.377 63.5508C110.914 62.6154 102.215 60.7833 99.0345 59.0931C98.6105 58.8673 97.5889 58.048 97.3641 57.2738C97.0621 56.2481 97.923 54.6288 100.692 53.4999L100.988 53.5386Z" fill="white"/>
<path d="M93.284 53.0167C88.7545 54.6875 84.1415 57.1842 80.0039 60.1194C75.6735 63.2289 71.9728 67.0222 69.3451 71.6348L68.3878 71.6284C71.1183 66.8416 74.9732 62.9193 79.6762 59.655C83.8267 56.81 88.5553 54.5134 92.8214 53.0038L93.284 53.0167Z" fill="white"/>
<path d="M130.6 15.9155C128.609 13.9156 125.962 12.8125 123.148 12.8125C117.32 12.8125 112.604 17.5476 112.604 23.3989C112.604 29.2501 117.32 33.9852 123.148 33.9852C125.962 33.9852 128.609 32.8821 130.6 30.8822C134.725 26.7535 134.725 20.0571 130.6 15.9155ZM123.148 32.6692C118.059 32.6692 113.921 28.5146 113.921 23.4053C113.921 18.296 118.059 14.1414 123.148 14.1414C128.236 14.1414 132.374 18.296 132.374 23.4053C132.374 28.5146 128.236 32.6692 123.148 32.6692Z" fill="url(#paint1_linear_8565_878)"/>
<path d="M127.4 18.6061C127.4 19.9995 127.406 19.9544 127.4 20.206C127.387 20.7285 127.972 20.922 128.428 21.6575C128.467 21.7155 128.479 21.7929 128.479 21.8639C128.479 22.9413 128.486 24.0186 128.479 25.096C128.479 25.3927 128.293 25.6572 127.946 25.7346C127.721 25.7798 127.503 25.7733 127.284 25.7024C127.04 25.6185 126.854 25.3734 126.848 25.1153C126.835 24.7024 126.822 24.2831 126.822 23.8702C126.822 23.6122 126.706 23.5799 126.533 23.5541C126.462 23.5412 126.391 23.5541 126.301 23.5541C126.301 24.7476 126.301 25.4959 126.301 26.3152C126.301 26.541 126.051 26.8571 125.762 26.8571C124.104 26.8507 122.44 26.8507 120.782 26.8507C120.538 26.8507 120.275 26.6249 120.275 26.3862C120.243 25.2508 120.236 24.8766 120.249 17.6255C120.249 17.3481 120.307 17.0965 120.609 16.9868C120.712 16.9481 120.358 16.961 125.8 16.961C126.051 16.961 126.295 17.1997 126.295 17.4578C126.301 17.8771 126.269 18.0126 126.359 18.1158C126.494 18.2641 126.636 18.4061 126.783 18.5415C126.88 18.6254 126.995 18.6061 127.4 18.6061ZM121.367 20.2511C122.639 20.2511 123.899 20.2511 125.158 20.2511C125.158 19.5157 125.158 18.7931 125.158 18.0706C123.892 18.0706 122.633 18.0706 121.367 18.0706C121.367 18.7996 121.367 19.5221 121.367 20.2511ZM126.295 22.9929C126.475 22.9929 126.642 22.9929 126.809 22.9929C127.124 22.9929 127.394 23.2703 127.394 23.5799C127.394 24.0251 127.394 24.4637 127.394 24.9089C127.394 25.096 127.484 25.1863 127.663 25.1863C127.824 25.1863 127.914 25.0895 127.914 24.9153C127.914 22.0252 127.94 22.0832 127.837 21.9349C127.317 21.1736 126.809 21.0317 126.809 20.4317C126.809 20.1995 126.809 19.9608 126.809 19.7286C126.623 19.7286 126.462 19.7286 126.295 19.7286C126.295 20.8124 126.295 21.8897 126.295 22.9929Z" fill="url(#paint2_linear_8565_878)"/>
<path d="M120.211 28.8368H120.205L119.71 29.0755L119.608 28.6174L120.295 28.2949H120.796V30.9011H120.211V28.8368Z" fill="url(#paint3_linear_8565_878)"/>
<path d="M123.141 29.7661H123.147C123.295 29.5016 123.385 29.392 123.681 28.9404H124.413L123.713 29.7339L124.509 30.9015H123.764L123.295 30.0952L123.141 30.2887V30.9015H122.537V28.0566H123.141V29.7661Z" fill="url(#paint4_linear_8565_878)"/>
<path d="M124.722 28.9397H125.236L125.261 29.2042H125.274C125.57 28.7656 126.225 28.8043 126.398 29.23H126.405C126.572 28.9978 126.784 28.8946 127.028 28.8946C127.401 28.8946 127.69 29.1591 127.69 29.7461V30.9009H127.099V29.8364C127.099 29.5526 127.009 29.3849 126.81 29.3849C126.649 29.3849 126.508 29.5139 126.508 29.7526V30.9009H125.917V29.8042C125.917 29.1913 125.332 29.3139 125.332 29.759V30.9009H124.741C124.734 29.6494 124.747 29.5332 124.722 28.9397Z" fill="url(#paint5_linear_8565_878)"/>
<path d="M149.559 99.9936H8.28953L14.6437 93.4779L18.9869 80.8464L19.9185 78.1434L23.2273 68.5118L25.5531 61.751L32.6075 60.1511L34.9526 59.6221L39.148 58.6737L43.035 57.7964H43.0607C43.8446 57.7964 44.6284 57.6609 45.3737 57.4029C47.4617 56.6868 50.0445 56.2674 52.8393 56.2674C53.2248 56.2674 53.6103 56.2739 53.9894 56.2933C55.7433 56.3642 57.3945 56.6094 58.8658 56.9771C59.2063 57.0609 59.5533 57.1448 59.8938 57.2158C61.6735 57.5964 63.4917 57.7964 65.3099 57.7964L121.694 57.919L138.425 61.8735L139.645 65.5959L140.603 68.4989L143.776 78.1434L144.162 79.3111L148.865 93.6004L149.559 99.9936Z" fill="url(#paint6_linear_8565_878)"/>
<path d="M111.949 59.4159H41.1405C39.8684 59.4159 38.6926 60.1191 38.0887 61.248L34.8891 67.2154C33.6427 69.5313 35.3196 72.344 37.9409 72.344H64.5654C66.48 72.344 68.0284 73.9052 68.0284 75.8212L70.1936 91.7815C70.1936 93.7039 69.5768 95.5812 71.4914 95.5812H90.6759C92.5905 95.5812 91.9095 94.7361 91.9095 92.8136L94.2417 73.8923C94.2417 71.9699 95.6873 71.099 97.6019 71.099H112.938C115.155 71.099 116.806 69.0346 116.324 66.8605C115.977 65.3123 115.611 63.6027 115.334 62.2157C115.02 60.59 113.6 59.4159 111.949 59.4159Z" fill="url(#paint7_linear_8565_878)"/>
<path d="M60.4205 60.9703C56.0195 59.5123 51.2523 59.5123 46.8513 60.9703C45.2901 61.4799 44.1015 62.5379 43.5296 63.6282C42.5788 65.4216 43.5489 66.6667 43.5553 66.686C44.6604 68.2988 47.2818 68.6085 49.1578 67.9892C52.0618 67.028 55.2036 67.028 58.1012 67.9892C59.9901 68.6149 62.605 68.2859 63.7036 66.686C63.7101 66.6731 64.6931 65.4345 63.7293 63.6282C63.1704 62.5379 61.9818 61.4799 60.4205 60.9703Z" fill="url(#paint8_linear_8565_878)"/>
<path d="M93.1622 76.2608C93.1622 75.2157 92.4812 74.3254 91.5432 74.0157C91.3311 73.4545 90.785 73.0545 90.149 73.0545H74.7422C74.1383 73.0545 73.6179 73.4158 73.3866 73.9319C72.2751 74.119 71.4334 75.0931 71.4334 76.2608C71.4334 77.3962 72.2365 78.3509 73.3095 78.5703C73.4829 79.2025 74.0612 79.6734 74.7486 79.6734H90.1554C90.875 79.6734 91.4789 79.1573 91.6138 78.48C92.5133 78.151 93.1622 77.28 93.1622 76.2608Z" fill="url(#paint9_linear_8565_878)"/>
<path d="M87.4508 73.8983H77.1453V74.6466H87.4508V73.8983Z" fill="url(#paint10_linear_8565_878)"/>
<path d="M88.4209 75.5115H76.1688V78.8081H88.4209V75.5115Z" fill="url(#paint11_linear_8565_878)"/>
<path d="M73.7912 77.9952C72.8339 77.9952 72.0565 77.2146 72.0565 76.2534C72.0565 75.2921 72.8339 74.5115 73.7912 74.5115C74.7485 74.5115 75.5259 75.2921 75.5259 76.2534C75.5195 77.221 74.7485 77.9952 73.7912 77.9952Z" fill="white"/>
<path d="M90.8101 77.9952C89.8528 77.9952 89.0754 77.2146 89.0754 76.2534C89.0754 75.2921 89.8528 74.5115 90.8101 74.5115C91.7674 74.5115 92.5448 75.2921 92.5448 76.2534C92.5383 77.221 91.7674 77.9952 90.8101 77.9952Z" fill="white"/>
<path d="M90.4701 70.2928H84.3409C83.3643 70.2928 82.574 69.4993 82.574 68.5187V65.0415C82.574 64.0609 83.3643 63.2674 84.3409 63.2674H90.4701C91.4467 63.2674 92.237 64.0609 92.237 65.0415V68.5187C92.2305 69.4993 91.4403 70.2928 90.4701 70.2928Z" fill="url(#paint12_linear_8565_878)"/>
<path d="M78.0246 70.2928H71.8953C70.9188 70.2928 70.1285 69.4993 70.1285 68.5187V65.0415C70.1285 64.0609 70.9188 63.2674 71.8953 63.2674H78.0246C79.0012 63.2674 79.7915 64.0609 79.7915 65.0415V68.5187C79.7915 69.4993 79.0012 70.2928 78.0246 70.2928Z" fill="url(#paint13_linear_8565_878)"/>
<path d="M77.4407 66.0676H72.8019C71.8446 66.0676 71.0672 65.287 71.0672 64.3258V52.2105C71.0672 51.2492 71.8446 50.4686 72.8019 50.4686H77.4407C78.398 50.4686 79.1754 51.2492 79.1754 52.2105V64.3258C79.1754 65.287 78.398 66.0676 77.4407 66.0676Z" fill="#EDFDFC"/>
<path d="M72.7959 65.4475C72.1791 65.4475 71.6844 64.9443 71.6844 64.3315V52.2097C71.6844 51.5904 72.1855 51.0936 72.7959 51.0936H77.4346C78.0514 51.0936 78.5461 51.5968 78.5461 52.2097V64.325C78.5461 64.9443 78.045 65.4411 77.4346 65.4411H72.7959V65.4475Z" fill="url(#paint14_linear_8565_878)"/>
<path d="M77.254 51.6679H72.9879C72.4226 51.6679 71.9664 52.1323 71.9664 52.6936V54.3386H78.282V52.6936C78.2756 52.1323 77.8194 51.6679 77.254 51.6679Z" fill="url(#paint15_linear_8565_878)"/>
<path d="M71.9596 54.3456V63.8417C71.9596 64.4094 72.4221 64.8675 72.9811 64.8675H77.2472C77.8126 64.8675 78.2687 64.403 78.2687 63.8417V54.3456H71.9596Z" fill="white"/>
<path d="M74.8125 58.462C74.382 58.6685 73.399 59.3007 73.2127 60.7845C72.9943 62.5327 74.9346 63.3843 75.4036 63.5649C75.4871 63.752 75.6798 64.2681 75.8854 64.868H76.4765C76.4316 64.739 76.3866 64.6036 76.3352 64.4616C76.2131 64.1068 76.1103 63.8294 76.0268 63.623C75.8662 63.2165 75.8148 63.1133 75.6734 63.0682C75.6542 63.0617 73.5661 62.3456 73.7588 60.849C73.9516 59.3329 75.1659 58.9072 75.1787 58.9007L75.3779 58.8362L75.2173 54.3397H74.6583L74.8125 58.462Z" fill="#EDFDFC"/>
<path d="M89.6225 87.5229L72.8537 87.7358C72.1663 87.7422 71.6973 87.0326 71.9864 86.4004L72.2369 85.852C72.8409 84.5102 74.1708 83.6522 75.6357 83.6522H86.9241C88.4468 83.6522 89.8217 84.5811 90.3871 86.0004L90.477 86.2262C90.7276 86.839 90.2843 87.5164 89.6225 87.5229Z" fill="url(#paint16_linear_8565_878)"/>
<path d="M120.454 73.8918H94.2408V73.6725C94.2408 69.8792 97.299 66.8084 101.077 66.8084H120.454V73.8918Z" fill="#466EB6"/>
<path d="M43.3952 79.7619C43.363 79.7232 43.3245 79.6845 43.2924 79.6458C43.106 79.4394 42.9326 79.2458 42.7655 79.0588C42.7141 79.0007 42.6692 78.9491 42.6178 78.891C42.5728 78.8394 42.5214 78.7814 42.4764 78.7298C42.4443 78.691 42.4122 78.6588 42.38 78.6201C42.2708 78.4911 42.1616 78.3749 42.0588 78.2588C42.0395 78.2395 42.0267 78.2201 42.0074 78.2072C41.9881 78.1879 41.9753 78.1685 41.956 78.1491C41.9367 78.1298 41.9175 78.1104 41.9046 78.0846C41.8725 78.0524 41.8468 78.0201 41.8147 77.9879C41.7247 77.8846 41.6348 77.7814 41.5577 77.6911C41.532 77.8395 41.5063 77.9943 41.4806 78.1491H41.6091L43.5172 80.7619L43.3952 79.7619ZM43.3952 79.7619C43.363 79.7232 43.3245 79.6845 43.2924 79.6458C43.106 79.4394 42.9326 79.2458 42.7655 79.0588C42.7141 79.0007 42.6692 78.9491 42.6178 78.891C42.5728 78.8394 42.5214 78.7814 42.4764 78.7298C42.4443 78.691 42.4122 78.6588 42.38 78.6201C42.2708 78.4911 42.1616 78.3749 42.0588 78.2588C42.0395 78.2395 42.0267 78.2201 42.0074 78.2072C41.9881 78.1879 41.9753 78.1685 41.956 78.1491C41.9367 78.1298 41.9175 78.1104 41.9046 78.0846C41.8725 78.0524 41.8468 78.0201 41.8147 77.9879C41.7247 77.8846 41.6348 77.7814 41.5577 77.6911C41.532 77.8395 41.5063 77.9943 41.4806 78.1491H41.6091L43.5172 80.7619L43.3952 79.7619ZM43.3952 79.7619C43.363 79.7232 43.3245 79.6845 43.2924 79.6458C43.106 79.4394 42.9326 79.2458 42.7655 79.0588C42.7141 79.0007 42.6692 78.9491 42.6178 78.891C42.5728 78.8394 42.5214 78.7814 42.4764 78.7298C42.4443 78.691 42.4122 78.6588 42.38 78.6201C42.2708 78.4911 42.1616 78.3749 42.0588 78.2588C42.0395 78.2395 42.0267 78.2201 42.0074 78.2072C41.9881 78.1879 41.9753 78.1685 41.956 78.1491C41.9367 78.1298 41.9175 78.1104 41.9046 78.0846C41.8725 78.0524 41.8468 78.0201 41.8147 77.9879C41.7247 77.8846 41.6348 77.7814 41.5577 77.6911C41.532 77.8395 41.5063 77.9943 41.4806 78.1491H41.6091L43.5172 80.7619L43.3952 79.7619ZM43.3952 79.7619C43.363 79.7232 43.3245 79.6845 43.2924 79.6458C43.106 79.4394 42.9326 79.2458 42.7655 79.0588C42.7141 79.0007 42.6692 78.9491 42.6178 78.891C42.5728 78.8394 42.5214 78.7814 42.4764 78.7298C42.4443 78.691 42.4122 78.6588 42.38 78.6201C42.2708 78.4911 42.1616 78.3749 42.0588 78.2588C42.0395 78.2395 42.0267 78.2201 42.0074 78.2072C41.9881 78.1879 41.9753 78.1685 41.956 78.1491C41.9367 78.1298 41.9175 78.1104 41.9046 78.0846C41.8725 78.0524 41.8468 78.0201 41.8147 77.9879C41.7247 77.8846 41.6348 77.7814 41.5577 77.6911C41.532 77.8395 41.5063 77.9943 41.4806 78.1491H41.6091L43.5172 80.7619L43.3952 79.7619ZM43.3952 79.7619C43.363 79.7232 43.3245 79.6845 43.2924 79.6458C43.106 79.4394 42.9326 79.2458 42.7655 79.0588C42.7141 79.0007 42.6692 78.9491 42.6178 78.891C42.5728 78.8394 42.5214 78.7814 42.4764 78.7298C42.4443 78.691 42.4122 78.6588 42.38 78.6201C42.2708 78.4911 42.1616 78.3749 42.0588 78.2588C42.0395 78.2395 42.0267 78.2201 42.0074 78.2072C41.9881 78.1879 41.9753 78.1685 41.956 78.1491C41.9367 78.1298 41.9175 78.1104 41.9046 78.0846C41.8725 78.0524 41.8468 78.0201 41.8147 77.9879C41.7247 77.8846 41.6348 77.7814 41.5577 77.6911C41.532 77.8395 41.5063 77.9943 41.4806 78.1491H41.6091L43.5172 80.7619L43.3952 79.7619ZM43.3952 79.7619C43.363 79.7232 43.3245 79.6845 43.2924 79.6458C43.106 79.4394 42.9326 79.2458 42.7655 79.0588C42.7141 79.0007 42.6692 78.9491 42.6178 78.891C42.5728 78.8394 42.5214 78.7814 42.4764 78.7298C42.4443 78.691 42.4122 78.6588 42.38 78.6201C42.2708 78.4911 42.1616 78.3749 42.0588 78.2588C42.0395 78.2395 42.0267 78.2201 42.0074 78.2072C41.9881 78.1879 41.9753 78.1685 41.956 78.1491C41.9367 78.1298 41.9175 78.1104 41.9046 78.0846C41.8725 78.0524 41.8468 78.0201 41.8147 77.9879C41.7247 77.8846 41.6348 77.7814 41.5577 77.6911C41.532 77.8395 41.5063 77.9943 41.4806 78.1491H41.6091L43.5172 80.7619L43.3952 79.7619ZM43.3952 79.7619C43.363 79.7232 43.3245 79.6845 43.2924 79.6458C43.106 79.4394 42.9326 79.2458 42.7655 79.0588C42.7141 79.0007 42.6692 78.9491 42.6178 78.891C42.5728 78.8394 42.5214 78.7814 42.4764 78.7298C42.4443 78.691 42.4122 78.6588 42.38 78.6201C42.2708 78.4911 42.1616 78.3749 42.0588 78.2588C42.0395 78.2395 42.0267 78.2201 42.0074 78.2072C41.9881 78.1879 41.9753 78.1685 41.956 78.1491C41.9367 78.1298 41.9175 78.1104 41.9046 78.0846C41.8725 78.0524 41.8468 78.0201 41.8147 77.9879C41.7247 77.8846 41.6348 77.7814 41.5577 77.6911C41.532 77.8395 41.5063 77.9943 41.4806 78.1491H41.6091L43.5172 80.7619L43.3952 79.7619ZM43.3952 79.7619C43.363 79.7232 43.3245 79.6845 43.2924 79.6458C43.106 79.4394 42.9326 79.2458 42.7655 79.0588C42.7141 79.0007 42.6692 78.9491 42.6178 78.891C42.5728 78.8394 42.5214 78.7814 42.4764 78.7298C42.4443 78.691 42.4122 78.6588 42.38 78.6201C42.2708 78.4911 42.1616 78.3749 42.0588 78.2588C42.0395 78.2395 42.0267 78.2201 42.0074 78.2072C41.9881 78.1879 41.9753 78.1685 41.956 78.1491C41.9367 78.1298 41.9175 78.1104 41.9046 78.0846C41.8725 78.0524 41.8468 78.0201 41.8147 77.9879C41.7247 77.8846 41.6348 77.7814 41.5577 77.6911C41.532 77.8395 41.5063 77.9943 41.4806 78.1491H41.6091L43.5172 80.7619L43.3952 79.7619ZM43.3952 79.7619C43.363 79.7232 43.3245 79.6845 43.2924 79.6458C43.106 79.4394 42.9326 79.2458 42.7655 79.0588C42.7141 79.0007 42.6692 78.9491 42.6178 78.891C42.5728 78.8394 42.5214 78.7814 42.4764 78.7298C42.4443 78.691 42.4122 78.6588 42.38 78.6201C42.2708 78.4911 42.1616 78.3749 42.0588 78.2588C42.0395 78.2395 42.0267 78.2201 42.0074 78.2072C41.9881 78.1879 41.9753 78.1685 41.956 78.1491C41.9367 78.1298 41.9175 78.1104 41.9046 78.0846C41.8725 78.0524 41.8468 78.0201 41.8147 77.9879C41.7247 77.8846 41.6348 77.7814 41.5577 77.6911C41.532 77.8395 41.5063 77.9943 41.4806 78.1491H41.6091L43.5172 80.7619L43.3952 79.7619ZM43.3952 79.7619C43.363 79.7232 43.3245 79.6845 43.2924 79.6458C43.106 79.4394 42.9326 79.2458 42.7655 79.0588C42.7141 79.0007 42.6692 78.9491 42.6178 78.891C42.5728 78.8394 42.5214 78.7814 42.4764 78.7298C42.4443 78.691 42.4122 78.6588 42.38 78.6201C42.2708 78.4911 42.1616 78.3749 42.0588 78.2588C42.0395 78.2395 42.0267 78.2201 42.0074 78.2072C41.9881 78.1879 41.9753 78.1685 41.956 78.1491C41.9367 78.1298 41.9175 78.1104 41.9046 78.0846C41.8725 78.0524 41.8468 78.0201 41.8147 77.9879C41.7247 77.8846 41.6348 77.7814 41.5577 77.6911C41.532 77.8395 41.5063 77.9943 41.4806 78.1491H41.6091L43.5172 80.7619L43.3952 79.7619ZM43.3952 79.7619C43.363 79.7232 43.3245 79.6845 43.2924 79.6458C43.106 79.4394 42.9326 79.2458 42.7655 79.0588C42.7141 79.0007 42.6692 78.9491 42.6178 78.891C42.5728 78.8394 42.5214 78.7814 42.4764 78.7298C42.4443 78.691 42.4122 78.6588 42.38 78.6201C42.2708 78.4911 42.1616 78.3749 42.0588 78.2588C42.0395 78.2395 42.0267 78.2201 42.0074 78.2072C41.9881 78.1879 41.9753 78.1685 41.956 78.1491C41.9367 78.1298 41.9175 78.1104 41.9046 78.0846C41.8725 78.0524 41.8468 78.0201 41.8147 77.9879C41.7247 77.8846 41.6348 77.7814 41.5577 77.6911C41.532 77.8395 41.5063 77.9943 41.4806 78.1491H41.6091L43.5172 80.7619L43.3952 79.7619ZM43.3952 79.7619C43.363 79.7232 43.3245 79.6845 43.2924 79.6458C43.106 79.4394 42.9326 79.2458 42.7655 79.0588C42.7141 79.0007 42.6692 78.9491 42.6178 78.891C42.5728 78.8394 42.5214 78.7814 42.4764 78.7298C42.4443 78.691 42.4122 78.6588 42.38 78.6201C42.2708 78.4911 42.1616 78.3749 42.0588 78.2588C42.0395 78.2395 42.0267 78.2201 42.0074 78.2072C41.9881 78.1879 41.9753 78.1685 41.956 78.1491C41.9367 78.1298 41.9175 78.1104 41.9046 78.0846C41.8725 78.0524 41.8468 78.0201 41.8147 77.9879C41.7247 77.8846 41.6348 77.7814 41.5577 77.6911C41.532 77.8395 41.5063 77.9943 41.4806 78.1491H41.6091L43.5172 80.7619L43.3952 79.7619ZM43.3952 79.7619C43.363 79.7232 43.3245 79.6845 43.2924 79.6458C43.106 79.4394 42.9326 79.2458 42.7655 79.0588C42.7141 79.0007 42.6692 78.9491 42.6178 78.891C42.5728 78.8394 42.5214 78.7814 42.4764 78.7298C42.4443 78.691 42.4122 78.6588 42.38 78.6201C42.2708 78.4911 42.1616 78.3749 42.0588 78.2588C42.0395 78.2395 42.0267 78.2201 42.0074 78.2072C41.9881 78.1879 41.9753 78.1685 41.956 78.1491C41.9367 78.1298 41.9175 78.1104 41.9046 78.0846C41.8725 78.0524 41.8468 78.0201 41.8147 77.9879C41.7247 77.8846 41.6348 77.7814 41.5577 77.6911C41.532 77.8395 41.5063 77.9943 41.4806 78.1491H41.6091L43.5172 80.7619L43.3952 79.7619ZM43.3952 79.7619C43.363 79.7232 43.3245 79.6845 43.2924 79.6458C43.106 79.4394 42.9326 79.2458 42.7655 79.0588C42.7141 79.0007 42.6692 78.9491 42.6178 78.891C42.5728 78.8394 42.5214 78.7814 42.4764 78.7298C42.4443 78.691 42.4122 78.6588 42.38 78.6201C42.2708 78.4911 42.1616 78.3749 42.0588 78.2588C42.0395 78.2395 42.0267 78.2201 42.0074 78.2072C41.9881 78.1879 41.9753 78.1685 41.956 78.1491C41.9367 78.1298 41.9175 78.1104 41.9046 78.0846C41.8725 78.0524 41.8468 78.0201 41.8147 77.9879C41.7247 77.8846 41.6348 77.7814 41.5577 77.6911C41.532 77.8395 41.5063 77.9943 41.4806 78.1491H41.6091L43.5172 80.7619L43.3952 79.7619ZM43.3952 79.7619C43.363 79.7232 43.3245 79.6845 43.2924 79.6458C43.106 79.4394 42.9326 79.2458 42.7655 79.0588C42.7141 79.0007 42.6692 78.9491 42.6178 78.891C42.5728 78.8394 42.5214 78.7814 42.4764 78.7298C42.4443 78.691 42.4122 78.6588 42.38 78.6201C42.2708 78.4911 42.1616 78.3749 42.0588 78.2588C42.0395 78.2395 42.0267 78.2201 42.0074 78.2072C41.9881 78.1879 41.9753 78.1685 41.956 78.1491C41.9367 78.1298 41.9175 78.1104 41.9046 78.0846C41.8725 78.0524 41.8468 78.0201 41.8147 77.9879C41.7247 77.8846 41.6348 77.7814 41.5577 77.6911C41.532 77.8395 41.5063 77.9943 41.4806 78.1491H41.6091L43.5172 80.7619L43.3952 79.7619ZM65.1561 68.4143C64.9441 65.1242 63.7683 62.0018 61.8473 59.4214C61.2626 58.6343 60.6073 57.8989 59.8877 57.228C57.8896 55.3442 55.3968 53.9314 52.5441 53.2153C45.7274 51.4929 38.8335 54.254 34.9401 59.6343C34.7152 59.9439 34.5032 60.26 34.2976 60.589C34.1884 60.7632 34.0856 60.9374 33.9828 61.118C33.2311 62.4276 32.6464 63.8662 32.2609 65.4016C32.0104 66.408 31.8562 67.4208 31.7855 68.4208C31.7855 68.4659 31.7791 68.5046 31.7791 68.5498C31.5863 71.9818 32.4537 75.3171 34.1563 78.1491C36.0195 81.2586 38.8849 83.7617 42.4379 85.1358C43.0097 85.3551 43.5943 85.5486 44.1983 85.7099C44.2625 85.7293 44.3332 85.7422 44.3974 85.7615C46.0807 86.1873 47.7769 86.3357 49.4217 86.2454C49.6787 86.2325 49.9421 86.2067 50.1991 86.1809C52.814 85.9099 55.3004 85.0132 57.472 83.6197C59.6114 82.2456 61.4425 80.3877 62.7853 78.1491C63.2093 77.446 63.582 76.7105 63.8968 75.9364C64.2116 75.1816 64.4686 74.3946 64.6742 73.5753C64.777 73.1753 64.8605 72.7689 64.9312 72.3689C65.1689 71.0335 65.2396 69.711 65.1561 68.4143ZM53.9833 56.299C55.673 57.0022 57.2471 58.0473 58.5963 59.4214C59.3801 60.2213 60.0869 61.1309 60.6908 62.1502C61.6031 63.6856 62.2006 65.3242 62.4962 66.9886C54.9599 63.1953 46.659 61.1567 38.2232 61.0277C37.8184 61.0213 37.4136 61.0213 37.0089 61.0213C37.041 60.9761 37.0731 60.9309 37.1053 60.8858C37.722 60.06 38.4095 59.331 39.1419 58.6859C43.3116 55.0281 49.1261 54.2733 53.9833 56.299ZM41.14 80.6716C39.8101 79.9297 38.6729 79.091 37.722 78.1491C35.1971 75.6461 34.0213 72.4528 34.2591 68.6272C34.2591 68.6143 34.2591 68.5949 34.2591 68.582C34.2655 68.453 34.2783 68.3304 34.2848 68.2014C34.3683 68.195 34.4518 68.1885 34.5353 68.1885C37.4072 68.0208 40.2791 68.1111 43.1125 68.4466C43.0611 68.8788 43.0097 69.2981 42.9518 69.7045C42.8234 70.6271 42.682 71.498 42.5342 72.3495C42.3736 73.272 42.2066 74.1623 42.0331 75.0655C41.9753 75.3687 41.9239 75.6654 41.8661 75.9686C41.7633 76.5363 41.6605 77.1105 41.5641 77.6976C41.5384 77.8459 41.5127 78.0008 41.487 78.1556C41.3649 78.9491 41.2428 79.7813 41.14 80.6716ZM55.8658 81.6973C54.1889 82.723 52.3 83.394 50.334 83.652C51.1178 81.6134 51.8374 79.8781 52.5506 78.1427C52.5891 78.0588 52.6212 77.9685 52.6598 77.8846C53.3408 76.2331 54.0218 74.5687 54.7671 72.6334C57.1829 73.1495 59.4894 73.6914 61.7573 74.6268C61.2883 75.8525 60.6458 77.0202 59.8427 78.0911C59.8299 78.1104 59.8106 78.1298 59.7978 78.1491C58.712 79.5878 57.3692 80.7812 55.8658 81.6973ZM43.3952 79.7619C43.363 79.7232 43.3245 79.6845 43.2924 79.6458C43.106 79.4394 42.9326 79.2458 42.7655 79.0588C42.7141 79.0007 42.6692 78.9491 42.6178 78.891C42.5728 78.8394 42.5214 78.7814 42.4764 78.7298C42.4443 78.691 42.4122 78.6588 42.38 78.6201C42.2708 78.4911 42.1616 78.3749 42.0588 78.2588C42.0395 78.2395 42.0267 78.2201 42.0074 78.2072C41.9881 78.1879 41.9753 78.1685 41.956 78.1491C41.9367 78.1298 41.9175 78.1104 41.9046 78.0846C41.8725 78.0524 41.8468 78.0201 41.8147 77.9879C41.7247 77.8846 41.6348 77.7814 41.5577 77.6911C41.532 77.8395 41.5063 77.9943 41.4806 78.1491H41.6091L43.5172 80.7619L43.3952 79.7619ZM43.3952 79.7619C43.363 79.7232 43.3245 79.6845 43.2924 79.6458C43.106 79.4394 42.9326 79.2458 42.7655 79.0588C42.7141 79.0007 42.6692 78.9491 42.6178 78.891C42.5728 78.8394 42.5214 78.7814 42.4764 78.7298C42.4443 78.691 42.4122 78.6588 42.38 78.6201C42.2708 78.4911 42.1616 78.3749 42.0588 78.2588C42.0395 78.2395 42.0267 78.2201 42.0074 78.2072C41.9881 78.1879 41.9753 78.1685 41.956 78.1491C41.9367 78.1298 41.9175 78.1104 41.9046 78.0846C41.8725 78.0524 41.8468 78.0201 41.8147 77.9879C41.7247 77.8846 41.6348 77.7814 41.5577 77.6911C41.532 77.8395 41.5063 77.9943 41.4806 78.1491H41.6091L43.5172 80.7619L43.3952 79.7619ZM43.3952 79.7619C43.363 79.7232 43.3245 79.6845 43.2924 79.6458C43.106 79.4394 42.9326 79.2458 42.7655 79.0588C42.7141 79.0007 42.6692 78.9491 42.6178 78.891C42.5728 78.8394 42.5214 78.7814 42.4764 78.7298C42.4443 78.691 42.4122 78.6588 42.38 78.6201C42.2708 78.4911 42.1616 78.3749 42.0588 78.2588C42.0395 78.2395 42.0267 78.2201 42.0074 78.2072C41.9881 78.1879 41.9753 78.1685 41.956 78.1491C41.9367 78.1298 41.9175 78.1104 41.9046 78.0846C41.8725 78.0524 41.8468 78.0201 41.8147 77.9879C41.7247 77.8846 41.6348 77.7814 41.5577 77.6911C41.532 77.8395 41.5063 77.9943 41.4806 78.1491H41.6091L43.5172 80.7619L43.3952 79.7619ZM43.3952 79.7619C43.363 79.7232 43.3245 79.6845 43.2924 79.6458C43.106 79.4394 42.9326 79.2458 42.7655 79.0588C42.7141 79.0007 42.6692 78.9491 42.6178 78.891C42.5728 78.8394 42.5214 78.7814 42.4764 78.7298C42.4443 78.691 42.4122 78.6588 42.38 78.6201C42.2708 78.4911 42.1616 78.3749 42.0588 78.2588C42.0395 78.2395 42.0267 78.2201 42.0074 78.2072C41.9881 78.1879 41.9753 78.1685 41.956 78.1491C41.9367 78.1298 41.9175 78.1104 41.9046 78.0846C41.8725 78.0524 41.8468 78.0201 41.8147 77.9879C41.7247 77.8846 41.6348 77.7814 41.5577 77.6911C41.532 77.8395 41.5063 77.9943 41.4806 78.1491H41.6091L43.5172 80.7619L43.3952 79.7619ZM43.3952 79.7619C43.363 79.7232 43.3245 79.6845 43.2924 79.6458C43.106 79.4394 42.9326 79.2458 42.7655 79.0588C42.7141 79.0007 42.6692 78.9491 42.6178 78.891C42.5728 78.8394 42.5214 78.7814 42.4764 78.7298C42.4443 78.691 42.4122 78.6588 42.38 78.6201C42.2708 78.4911 42.1616 78.3749 42.0588 78.2588C42.0395 78.2395 42.0267 78.2201 42.0074 78.2072C41.9881 78.1879 41.9753 78.1685 41.956 78.1491C41.9367 78.1298 41.9175 78.1104 41.9046 78.0846C41.8725 78.0524 41.8468 78.0201 41.8147 77.9879C41.7247 77.8846 41.6348 77.7814 41.5577 77.6911C41.532 77.8395 41.5063 77.9943 41.4806 78.1491H41.6091L43.5172 80.7619L43.3952 79.7619ZM43.3952 79.7619C43.363 79.7232 43.3245 79.6845 43.2924 79.6458C43.106 79.4394 42.9326 79.2458 42.7655 79.0588C42.7141 79.0007 42.6692 78.9491 42.6178 78.891C42.5728 78.8394 42.5214 78.7814 42.4764 78.7298C42.4443 78.691 42.4122 78.6588 42.38 78.6201C42.2708 78.4911 42.1616 78.3749 42.0588 78.2588C42.0395 78.2395 42.0267 78.2201 42.0074 78.2072C41.9881 78.1879 41.9753 78.1685 41.956 78.1491C41.9367 78.1298 41.9175 78.1104 41.9046 78.0846C41.8725 78.0524 41.8468 78.0201 41.8147 77.9879C41.7247 77.8846 41.6348 77.7814 41.5577 77.6911C41.532 77.8395 41.5063 77.9943 41.4806 78.1491H41.6091L43.5172 80.7619L43.3952 79.7619ZM43.3952 79.7619C43.363 79.7232 43.3245 79.6845 43.2924 79.6458C43.106 79.4394 42.9326 79.2458 42.7655 79.0588C42.7141 79.0007 42.6692 78.9491 42.6178 78.891C42.5728 78.8394 42.5214 78.7814 42.4764 78.7298C42.4443 78.691 42.4122 78.6588 42.38 78.6201C42.2708 78.4911 42.1616 78.3749 42.0588 78.2588C42.0395 78.2395 42.0267 78.2201 42.0074 78.2072C41.9881 78.1879 41.9753 78.1685 41.956 78.1491C41.9367 78.1298 41.9175 78.1104 41.9046 78.0846C41.8725 78.0524 41.8468 78.0201 41.8147 77.9879C41.7247 77.8846 41.6348 77.7814 41.5577 77.6911C41.532 77.8395 41.5063 77.9943 41.4806 78.1491H41.6091L43.5172 80.7619L43.3952 79.7619ZM43.3952 79.7619C43.363 79.7232 43.3245 79.6845 43.2924 79.6458C43.106 79.4394 42.9326 79.2458 42.7655 79.0588C42.7141 79.0007 42.6692 78.9491 42.6178 78.891C42.5728 78.8394 42.5214 78.7814 42.4764 78.7298C42.4443 78.691 42.4122 78.6588 42.38 78.6201C42.2708 78.4911 42.1616 78.3749 42.0588 78.2588C42.0395 78.2395 42.0267 78.2201 42.0074 78.2072C41.9881 78.1879 41.9753 78.1685 41.956 78.1491C41.9367 78.1298 41.9175 78.1104 41.9046 78.0846C41.8725 78.0524 41.8468 78.0201 41.8147 77.9879C41.7247 77.8846 41.6348 77.7814 41.5577 77.6911C41.532 77.8395 41.5063 77.9943 41.4806 78.1491H41.6091L43.5172 80.7619L43.3952 79.7619ZM43.3952 79.7619C43.363 79.7232 43.3245 79.6845 43.2924 79.6458C43.106 79.4394 42.9326 79.2458 42.7655 79.0588C42.7141 79.0007 42.6692 78.9491 42.6178 78.891C42.5728 78.8394 42.5214 78.7814 42.4764 78.7298C42.4443 78.691 42.4122 78.6588 42.38 78.6201C42.2708 78.4911 42.1616 78.3749 42.0588 78.2588C42.0395 78.2395 42.0267 78.2201 42.0074 78.2072C41.9881 78.1879 41.9753 78.1685 41.956 78.1491C41.9367 78.1298 41.9175 78.1104 41.9046 78.0846C41.8725 78.0524 41.8468 78.0201 41.8147 77.9879C41.7247 77.8846 41.6348 77.7814 41.5577 77.6911C41.532 77.8395 41.5063 77.9943 41.4806 78.1491H41.6091L43.5172 80.7619L43.3952 79.7619ZM43.3952 79.7619C43.363 79.7232 43.3245 79.6845 43.2924 79.6458C43.106 79.4394 42.9326 79.2458 42.7655 79.0588C42.7141 79.0007 42.6692 78.9491 42.6178 78.891C42.5728 78.8394 42.5214 78.7814 42.4764 78.7298C42.4443 78.691 42.4122 78.6588 42.38 78.6201C42.2708 78.4911 42.1616 78.3749 42.0588 78.2588C42.0395 78.2395 42.0267 78.2201 42.0074 78.2072C41.9881 78.1879 41.9753 78.1685 41.956 78.1491C41.9367 78.1298 41.9175 78.1104 41.9046 78.0846C41.8725 78.0524 41.8468 78.0201 41.8147 77.9879C41.7247 77.8846 41.6348 77.7814 41.5577 77.6911C41.532 77.8395 41.5063 77.9943 41.4806 78.1491H41.6091L43.5172 80.7619L43.3952 79.7619ZM43.3952 79.7619C43.363 79.7232 43.3245 79.6845 43.2924 79.6458C43.106 79.4394 42.9326 79.2458 42.7655 79.0588C42.7141 79.0007 42.6692 78.9491 42.6178 78.891C42.5728 78.8394 42.5214 78.7814 42.4764 78.7298C42.4443 78.691 42.4122 78.6588 42.38 78.6201C42.2708 78.4911 42.1616 78.3749 42.0588 78.2588C42.0395 78.2395 42.0267 78.2201 42.0074 78.2072C41.9881 78.1879 41.9753 78.1685 41.956 78.1491C41.9367 78.1298 41.9175 78.1104 41.9046 78.0846C41.8725 78.0524 41.8468 78.0201 41.8147 77.9879C41.7247 77.8846 41.6348 77.7814 41.5577 77.6911C41.532 77.8395 41.5063 77.9943 41.4806 78.1491H41.6091L43.5172 80.7619L43.3952 79.7619ZM43.3952 79.7619C43.363 79.7232 43.3245 79.6845 43.2924 79.6458C43.106 79.4394 42.9326 79.2458 42.7655 79.0588C42.7141 79.0007 42.6692 78.9491 42.6178 78.891C42.5728 78.8394 42.5214 78.7814 42.4764 78.7298C42.4443 78.691 42.4122 78.6588 42.38 78.6201C42.2708 78.4911 42.1616 78.3749 42.0588 78.2588C42.0395 78.2395 42.0267 78.2201 42.0074 78.2072C41.9881 78.1879 41.9753 78.1685 41.956 78.1491C41.9367 78.1298 41.9175 78.1104 41.9046 78.0846C41.8725 78.0524 41.8468 78.0201 41.8147 77.9879C41.7247 77.8846 41.6348 77.7814 41.5577 77.6911C41.532 77.8395 41.5063 77.9943 41.4806 78.1491H41.6091L43.5172 80.7619L43.3952 79.7619ZM43.3952 79.7619C43.363 79.7232 43.3245 79.6845 43.2924 79.6458C43.106 79.4394 42.9326 79.2458 42.7655 79.0588C42.7141 79.0007 42.6692 78.9491 42.6178 78.891C42.5728 78.8394 42.5214 78.7814 42.4764 78.7298C42.4443 78.691 42.4122 78.6588 42.38 78.6201C42.2708 78.4911 42.1616 78.3749 42.0588 78.2588C42.0395 78.2395 42.0267 78.2201 42.0074 78.2072C41.9881 78.1879 41.9753 78.1685 41.956 78.1491C41.9367 78.1298 41.9175 78.1104 41.9046 78.0846C41.8725 78.0524 41.8468 78.0201 41.8147 77.9879C41.7247 77.8846 41.6348 77.7814 41.5577 77.6911C41.532 77.8395 41.5063 77.9943 41.4806 78.1491H41.6091L43.5172 80.7619L43.3952 79.7619ZM43.3952 79.7619C43.363 79.7232 43.3245 79.6845 43.2924 79.6458C43.106 79.4394 42.9326 79.2458 42.7655 79.0588C42.7141 79.0007 42.6692 78.9491 42.6178 78.891C42.5728 78.8394 42.5214 78.7814 42.4764 78.7298C42.4443 78.691 42.4122 78.6588 42.38 78.6201C42.2708 78.4911 42.1616 78.3749 42.0588 78.2588C42.0395 78.2395 42.0267 78.2201 42.0074 78.2072C41.9881 78.1879 41.9753 78.1685 41.956 78.1491C41.9367 78.1298 41.9175 78.1104 41.9046 78.0846C41.8725 78.0524 41.8468 78.0201 41.8147 77.9879C41.7247 77.8846 41.6348 77.7814 41.5577 77.6911C41.532 77.8395 41.5063 77.9943 41.4806 78.1491H41.6091L43.5172 80.7619L43.3952 79.7619ZM43.3952 79.7619C43.363 79.7232 43.3245 79.6845 43.2924 79.6458C43.106 79.4394 42.9326 79.2458 42.7655 79.0588C42.7141 79.0007 42.6692 78.9491 42.6178 78.891C42.5728 78.8394 42.5214 78.7814 42.4764 78.7298C42.4443 78.691 42.4122 78.6588 42.38 78.6201C42.2708 78.4911 42.1616 78.3749 42.0588 78.2588C42.0395 78.2395 42.0267 78.2201 42.0074 78.2072C41.9881 78.1879 41.9753 78.1685 41.956 78.1491C41.9367 78.1298 41.9175 78.1104 41.9046 78.0846C41.8725 78.0524 41.8468 78.0201 41.8147 77.9879C41.7247 77.8846 41.6348 77.7814 41.5577 77.6911C41.532 77.8395 41.5063 77.9943 41.4806 78.1491H41.6091L43.5172 80.7619L43.3952 79.7619Z" fill="#002A24"/>
<path d="M93.5026 99.9934H67.5848L70.1933 91.781H70.1997L78.6933 91.9294L80.1711 91.9552L81.7644 91.9875L83.2871 92.0133L91.9927 92.1681L91.9992 92.1939L93.5026 99.9934Z" fill="url(#paint17_linear_8565_878)"/>
<path d="M90.265 96.8595C90.1622 96.395 89.9823 95.9692 89.7318 95.5886C89.0379 94.5241 87.8493 93.8403 86.5258 93.8274L81.765 93.8016L80.178 93.7952L75.1474 93.7694C73.7853 93.7629 72.5518 94.4725 71.8579 95.5886C71.6716 95.8853 71.5302 96.2079 71.4274 96.5498L70.4251 99.9948H90.9718L90.265 96.8595Z" fill="url(#paint18_linear_8565_878)"/>
<path d="M90.2839 96.8528C90.1811 96.4012 90.0012 95.969 89.757 95.5884C89.5322 95.24 89.2559 94.9304 88.9347 94.6723C88.2536 94.124 87.3991 93.8143 86.5253 93.8078L81.7581 93.782L80.1712 93.7756L75.1405 93.7498H75.1213C74.2796 93.7498 73.4765 94.0207 72.8019 94.5239C72.41 94.8207 72.0823 95.1755 71.8317 95.5884C71.6518 95.8851 71.5041 96.2077 71.4077 96.5432L70.399 99.9945H70.4376L71.4398 96.5496C71.5426 96.2012 71.6904 95.8787 71.8767 95.5819C72.5706 94.4852 73.7913 93.782 75.1213 93.782L80.1712 93.8078L81.7581 93.8143L86.5189 93.8401C87.8424 93.8466 89.0246 94.5175 89.7121 95.5819C89.9562 95.9625 90.1425 96.3883 90.2453 96.8593L90.9392 99.9945H90.9777L90.2839 96.8528Z" fill="#355389"/>
<path d="M81.9067 99.9929H79.7222L80.1655 96.5545H81.7525L81.7653 96.7674L81.9067 99.9929Z" fill="#473B1E"/>
<path d="M81.1537 97.6518H80.7747C80.4406 97.6518 80.1707 97.3809 80.1707 97.0454V91.7361H81.7576V97.0454C81.7641 97.3809 81.4878 97.6518 81.1537 97.6518Z" fill="white"/>
<path d="M82.4775 92.8265H79.5092C79.0787 92.8265 78.7189 92.4846 78.6997 92.0524L78.5647 89.3235C78.5069 88.0978 79.612 87.0721 80.9933 87.0721C82.3811 87.0721 83.4862 88.0978 83.4219 89.3235L83.287 92.0524C83.2613 92.4911 82.9079 92.8265 82.4775 92.8265Z" fill="url(#paint19_linear_8565_878)"/>
<path d="M31.1501 63.3318C31.1501 63.3318 45.4453 57.3064 46.8716 56.2484C48.298 55.1904 49.9042 53.0486 50.2126 52.8615C50.5209 52.6744 53.7719 51.5261 54.6585 51.5777C55.5387 51.6229 55.5837 52.0874 55.5837 52.0874C55.5837 52.0874 56.7466 52.0874 57.0229 52.4616C57.2991 52.8357 57.3955 53.068 57.3955 53.068C57.3955 53.068 58.1858 53.068 58.507 53.6292C58.8347 54.1905 58.8347 54.513 58.8347 54.513C58.8347 54.513 59.6699 54.5582 59.8562 54.9324C60.0426 55.3065 59.58 56.2355 59.58 56.2355C59.58 56.2355 56.8623 57.816 57.0743 58.0096C57.4919 58.3837 58.0444 58.8869 58.0444 58.8869C58.0444 58.8869 57.1193 59.4546 56.4189 59.4546C55.7251 59.4546 54.0353 58.9256 53.5213 58.9256C53.0138 58.9256 36.8425 68.8669 36.8425 68.8669L31.1501 63.3318Z" fill="#F7A491"/>
<path d="M62.0269 99.9946H21.3513L21.5247 99.814L30.2111 90.8404L32.7104 88.2599C32.7104 88.2599 37.3106 88.1502 42.5789 88.2405C43.2343 88.2535 43.896 88.2664 44.5578 88.2857C46.6523 88.3438 48.7725 88.4405 50.6935 88.5954C51.1111 88.6276 51.5223 88.6663 51.9206 88.705C54.8632 88.9953 57.144 89.4405 57.7737 90.1243C58.3069 90.7049 58.853 91.6468 59.367 92.7435C60.4914 95.1304 61.5 98.2592 62.0269 99.9946Z" fill="#473B1E"/>
<path d="M40.8637 76.8802C40.8637 76.8802 54.9662 93.3178 57.9409 93.0017C59.2965 92.8598 74.4077 89.3697 76.0204 89.3052C77.6266 89.2406 78.6224 88.5568 79.4833 88.1246C80.3507 87.6924 81.0896 87.5053 81.7128 87.7504C82.3296 88.002 83.8201 89.1826 84.2506 89.2406C84.681 89.3052 83.5695 88.0601 82.9528 87.3117C82.336 86.5634 84.3148 88.4923 84.559 88.1181C84.8095 87.744 82.7407 85.4022 81.8862 85.0603C79.7853 84.2216 74.0993 86.4731 74.0993 86.4731L58.8661 85.2603L47.0508 71.2225L40.8637 76.8802Z" fill="#F7A491"/>
<path d="M52.2752 75.9436C52.2752 75.9436 52.0503 76.2468 51.6777 76.7177C51.3757 77.0984 50.9838 77.5951 50.5277 78.1435C50.0522 78.7176 49.519 79.3434 48.96 79.9433C47.932 81.0658 46.8462 82.1174 45.9982 82.6206C45.6641 82.8206 45.3685 82.9302 45.1244 82.9302L43.531 80.7497L41.6228 78.137L41.6036 78.1112C41.6036 78.1112 41.6036 78.1176 41.61 78.137C41.6807 78.4789 42.5095 82.4786 42.4709 83.6141C42.4516 84.1172 42.4452 84.6204 42.4452 85.1236C42.4452 86.1623 42.4838 87.2009 42.5801 88.2267C42.9078 91.9232 43.8908 95.5165 45.966 98.5808C45.8118 99.0904 45.5998 99.5549 45.3428 99.9807H21.738C21.6673 99.9227 21.5966 99.8581 21.526 99.8001C21.1597 99.4711 20.8771 99.1421 20.6972 98.8066C20.3631 98.1937 20.4016 97.6454 20.71 97.1551C20.6843 95.4907 20.5622 92.7876 20.0547 90.1362C19.4315 86.859 19.1424 83.5431 18.9946 80.8336C18.9432 79.8401 18.9046 78.9305 18.8789 78.1306C18.8275 76.4791 18.8211 75.3178 18.7761 74.9372C18.6798 74.176 16.7395 71.2278 16.1355 68.4796C16.0584 68.1312 16.007 67.7829 15.9813 67.4474C15.6087 62.6929 19.8491 62.1058 20.9156 61.7833C23.0486 61.1381 28.1628 59.8544 28.1628 59.8544C28.1628 59.8544 29.9618 59.6157 32.6152 60.1447C33.1485 60.2543 33.7203 60.3898 34.3178 60.564C35.3843 60.8801 36.528 61.3188 37.723 61.9316C38.0185 62.08 38.3141 62.2477 38.6096 62.4155C42.0148 64.3895 46.3965 69.0279 49.2684 72.318C51.0673 74.4082 52.2752 75.9436 52.2752 75.9436Z" fill="white"/>
<path d="M27.1664 52.6687C27.1664 52.6687 26.9544 57.52 26.344 59.3005C25.7272 61.0875 27.6354 67.5645 31.4839 68.5064C35.3323 69.4483 31.5545 60.8101 31.6124 58.9328C31.6766 57.0555 32.9102 51.4882 32.9102 51.4882L27.1664 52.6687Z" fill="#F7A491"/>
<path d="M28.3224 39.423C28.3224 39.423 26.0673 40.0552 24.763 42.2809C23.4652 44.513 22.8163 50.9125 27.6028 53.6479C32.3893 56.3832 35.7881 52.0028 35.6467 47.9063C35.4989 43.8098 34.3553 38.3908 28.3224 39.423Z" fill="#F7A491"/>
<path d="M36.6429 46.5712C36.296 47.5776 35.5443 48.2291 34.9596 48.0291C34.375 47.8291 34.1822 46.8486 34.5291 45.8357C34.8761 44.8294 35.6278 44.1778 36.2125 44.3778C36.7971 44.5778 36.9899 45.5648 36.6429 46.5712Z" fill="#F7A491"/>
<path d="M24.9755 47.9709C25.3674 49.016 25.1104 50.0805 24.4037 50.345C23.697 50.6095 22.8103 49.9773 22.4248 48.9257C22.0329 47.8806 22.2899 46.8162 22.9966 46.5517C23.697 46.2936 24.59 46.9258 24.9755 47.9709Z" fill="#F7A491"/>
<path d="M35.4345 41.3647C36.7838 43.8871 37.786 44.8419 40.3881 46.0289C42.1356 46.8224 43.4013 49.8222 42.8103 52.0737C41.3068 57.783 45.3224 56.2734 48.5219 59.3442C56.2253 66.7372 43.4527 73.7238 41.6281 74.898C39.8034 76.0721 36.6874 76.8849 35.4731 77.0591C31.8174 77.5881 26.6068 75.3173 23.5872 71.0918C20.5675 66.8662 19.6038 65.3631 19.1283 62.6085C18.6529 59.8538 15.5561 60.1957 15.7617 54.7058C15.9801 48.7707 17.3551 42.5001 20.0021 40.0229C24.3903 35.9264 32.4406 35.778 35.4345 41.3647Z" fill="url(#paint20_linear_8565_878)"/>
<path d="M90.7591 64.1447L96.6956 80.7371L100.595 98.8198L125.652 96.0199L135.495 92.4782L139.395 68.0605L131.968 63.0286L120.275 59.4869L105.793 58.9256L90.7591 64.1447Z" fill="#EDFDFC"/>
<path d="M98.1859 80.3056L92.7441 65.1001L106.024 60.494L120.017 61.0359L131.293 64.4486L137.705 68.7967L134.114 91.3306L125.305 94.4982L101.809 97.1174L98.1859 80.3056Z" fill="url(#paint21_linear_8565_878)"/>
<path d="M115.077 90.0593L113.407 76.0796C113.407 76.0796 106.166 67.6931 102.266 68.8091C100.184 69.4091 98.154 72.9895 96.7149 76.1893L98.1926 80.3052L101.816 97.1169L123.153 94.7364L115.077 90.0593Z" fill="url(#paint22_linear_8565_878)"/>
<path d="M119.581 61.0167L119.195 61.0038L120.499 66.3195L113.85 73.1191L108.087 68.3323L100.891 67.1646L98.2245 63.1972L97.6527 63.3972L100.544 67.7065L107.83 68.8936L117.364 76.8027L119.992 84.5506L111.877 83.7184L111.813 83.7119L100.377 90.4534L100.454 90.834L111.897 84.0925L120.12 84.9377L123.436 94.7047L124.033 94.6402L117.891 76.5318L117.865 76.4543L114.132 73.3578L120.911 66.4357L119.581 61.0167Z" fill="white"/>
<path d="M125.781 75.8414L134.622 77.7445L135.02 79.2734L135.226 79.2218L134.859 77.7961L136.029 78.0477L136.074 77.8348L134.802 77.5638L131.429 64.5389L131.294 64.4486L131.165 64.4099L131.191 64.4808L134.564 77.5122L125.736 75.6091L120.146 61.0746L120.018 61.0359L119.89 61.0294L119.915 61.0746L125.498 75.6027L113.471 75.9639L106.147 60.5005L106.025 60.494L105.922 60.5263L105.928 60.5456L113.253 76.0091L98.1864 80.3056L98.2314 80.5185L113.31 76.2155L115.379 95.6078L115.591 95.582L113.522 76.1833L125.563 75.8156L127.811 93.595L128.023 93.5176L125.781 75.8414Z" fill="#EDFDFC"/>
<path d="M140.764 94.3426C140.577 95.02 140.475 95.2457 140.243 95.6973C139.562 97.0198 138.483 98.6004 137.5 99.9357C137.487 99.9551 137.474 99.9745 137.455 99.9938H134.082L132.553 96.3037C132.553 96.3037 132.803 95.1296 133.26 93.2846C133.394 92.7362 133.549 92.1234 133.722 91.4654C133.735 91.4202 133.748 91.375 133.754 91.3299C133.818 91.3492 133.883 91.3621 133.941 91.3815C134.5 91.5363 135.052 91.6782 135.592 91.8266C137.063 92.2266 138.457 92.6588 139.684 93.4846C140.063 93.7297 140.423 94.0136 140.764 94.3426Z" fill="#F8A492"/>
<path d="M136.215 55.7394L137.597 65.0872C137.597 65.0872 132.341 69.6095 129.276 68.6547C126.706 67.8547 128.467 64.255 128.467 64.255C128.467 64.255 129.835 59.2682 129.418 56.649C128.994 54.0298 136.215 55.7394 136.215 55.7394Z" fill="#F7A491"/>
<path d="M135.226 58.5647C133.909 59.2292 131.307 60.1388 129.276 60.3581C129.469 59.0485 129.578 57.668 129.418 56.6423C129.225 55.4359 130.658 55.152 132.258 55.1907C134.352 55.3843 136.215 55.7326 136.215 55.7326L136.479 57.5261C136.08 57.9841 135.663 58.3389 135.226 58.5647Z" fill="#FE875E"/>
<path d="M142.846 44.9594C143.064 44.9594 140.771 55.4038 137.218 57.1973C133.665 58.9907 128.371 58.0553 127.381 55.2426C126.283 52.1331 130.292 41.4822 135.284 40.1274C140.276 38.7727 142.846 44.9594 142.846 44.9594Z" fill="#F7A491"/>
<path d="M138.733 35.359C141.567 37.1138 142.871 39.7136 143.308 40.778C144.638 41.4554 146.251 42.9198 147.021 46.8615C147.972 51.7128 144.593 55.448 141.008 56.577C137.423 57.6995 136.819 60.2413 136.819 60.2413L136.465 57.506C136.465 57.506 137.262 55.1255 138.464 53.932C139.665 52.7385 137.898 51.0032 137.738 49.5904C137.616 48.5001 138.367 46.3841 138.207 44.5907C138.207 44.5907 136.215 41.3586 134.255 40.5587C130.914 39.2039 135.097 33.114 138.733 35.359Z" fill="#473B1E"/>
<path d="M137.23 51.4092C136.767 52.6156 136.954 53.8155 137.654 54.0865C138.354 54.3574 139.292 53.6026 139.761 52.3963C140.224 51.1899 140.038 49.99 139.337 49.719C138.631 49.4481 137.693 50.2029 137.23 51.4092Z" fill="#F7A491"/>
<path d="M137.59 65.0875C137.59 65.0875 135.412 66.6229 133.375 66.4423C131.339 66.2617 128.467 64.2553 128.467 64.2553L128.865 62.8038C128.865 62.8038 134.127 61.9845 134.262 62.0684C134.39 62.1587 137.59 65.0875 137.59 65.0875Z" fill="#F7A491"/>
<path d="M98.0259 79.7824C98.2315 79.1373 99.2916 76.5052 99.1117 75.5118C99.0089 74.9441 98.3664 75.1828 97.9488 75.7892C97.634 76.2472 97.5762 77.0213 97.2806 77.2342C96.5996 77.731 95.8286 77.8535 95.0641 76.1504L93.4579 71.6346C93.4579 71.6346 92.3207 71.7378 93.1688 77.06C93.4964 79.118 93.6827 82.8726 93.6827 82.8726C93.6827 82.8726 92.9375 94.7105 93.8819 99.994H97.5312C98.7519 97.4716 99.7349 94.0267 99.7349 94.0267L96.9787 81.8146C96.9723 81.821 97.8525 80.3179 98.0259 79.7824Z" fill="#F8A492"/>
<path d="M144.374 78.1445C144.31 78.5251 144.233 78.9121 144.156 79.3121C143.886 80.6475 143.546 82.1055 143.115 83.686C142.023 87.6793 140.796 90.6984 139.704 93.4854C138.843 95.6659 138.065 97.698 137.506 99.9365C137.5 99.9559 137.493 99.9753 137.493 99.9946H108.697C108.774 99.4592 108.845 98.9495 108.922 98.4786C108.954 98.2721 108.987 98.0721 109.019 97.8786C109.031 97.7883 109.051 97.6915 109.064 97.6077C109.134 97.2141 109.224 96.769 109.34 96.2787C109.764 94.4788 110.483 92.1048 111.344 89.4598C111.891 87.789 112.494 86.0149 113.124 84.215C113.163 84.0924 113.208 83.9763 113.253 83.8537C113.298 83.7183 113.349 83.5828 113.394 83.4473C113.574 82.9377 113.754 82.4216 113.934 81.9119C113.979 81.7829 114.024 81.6539 114.069 81.5249C114.081 81.4991 114.088 81.4668 114.101 81.441C114.493 80.3314 114.884 79.2282 115.264 78.1509C115.508 77.4606 115.752 76.7768 115.99 76.1123C116.015 76.0414 116.041 75.9639 116.067 75.893C116.08 75.8478 116.099 75.8027 116.112 75.7575C116.182 75.5575 116.253 75.364 116.324 75.164C117.146 72.8287 117.885 70.7191 118.425 69.0483C118.431 69.0225 118.444 68.9967 118.45 68.9644C118.54 68.687 118.624 68.429 118.701 68.1774C119.016 67.171 119.228 66.3839 119.318 65.8872C119.395 65.4485 119.69 65.1131 120.166 64.855C120.269 64.797 120.384 64.7453 120.506 64.6937C120.725 64.6034 120.969 64.526 121.239 64.4615C121.309 64.4421 121.38 64.4292 121.451 64.4099C122.1 64.268 122.858 64.1841 123.687 64.1389C125.158 64.0615 126.848 64.1131 128.505 64.2099C129.385 64.2615 130.272 64.326 131.12 64.397C132.334 64.5002 133.484 64.6099 134.467 64.7195C136.343 64.9195 137.616 65.0937 137.616 65.0937C137.616 65.0937 138.521 65.255 139.665 65.6098C140.937 66.0098 142.498 66.6484 143.436 67.5903C143.681 67.8355 143.899 68.1387 144.085 68.4999C144.959 70.2159 145.216 73.319 144.374 78.1445Z" fill="white"/>
<path d="M114.82 86.1368L114.646 86.498L114.627 86.5432L114.447 86.9174L112.995 89.9494L109.995 96.2071L109.204 97.8586L108.909 98.4779L108.183 99.9939H95.937C96.9265 98.5037 98.3014 96.3554 99.5735 94.0524C99.612 93.9814 99.6506 93.9104 99.6891 93.8395C99.869 93.5105 100.049 93.1815 100.222 92.8524C100.37 92.575 100.531 92.2718 100.704 91.9493C101.006 91.388 101.353 90.7623 101.726 90.0913C101.841 89.8785 101.964 89.6656 102.086 89.4462C103.011 87.7947 104.077 85.9432 105.105 84.1692C106.467 81.8209 107.772 79.5953 108.626 78.1502C108.78 77.8857 108.922 77.647 109.044 77.4406C109.102 77.3438 109.153 77.2535 109.204 77.1696C109.474 76.7116 109.628 76.4471 109.628 76.4471L109.905 76.9632L110.007 77.1567L110.534 78.1438L111.01 79.034L113.374 83.4466L113.612 83.8918L113.824 84.2917L114.248 85.0852L114.518 85.5949L114.537 85.6271L114.82 86.1368Z" fill="#F8A492"/>
<path d="M103.352 82.6339C103.352 82.6339 111.987 90.2721 112.494 90.2721C112.822 90.2721 124.817 80.8147 127.586 73.041C129.115 68.7445 126.925 64.0997 123.256 64.1191C120.712 64.132 118.559 64.6674 113.522 69.2219C108.485 73.7765 103.352 82.6339 103.352 82.6339Z" fill="white"/>
<path d="M133.335 72.035H134.942V62.5905H133.335V72.035Z" fill="white"/>
<path d="M147.441 71.285H149.048V61.8405H147.441V71.285Z" fill="white"/>
<path d="M152.476 59.2618C152.386 60.2617 152.29 61.2681 152.2 62.2681C151.988 64.4098 150.433 66.0743 148.48 66.5C145.692 66.3581 142.897 66.3 140.108 66.3323C137.32 66.3 134.525 66.3581 131.737 66.5C131.172 66.5258 130.606 66.5581 130.041 66.5968C127.535 66.7516 125.299 64.8614 125.049 62.2681C124.959 61.2681 124.862 60.2617 124.772 59.2618C124.522 56.6749 126.546 54.3396 129.302 54.1654C132.9 53.9396 136.504 53.8428 140.108 53.8751C142.723 53.9009 145.338 53.9976 147.947 54.1654C150.703 54.3396 152.727 56.6684 152.476 59.2618Z" fill="#002A24"/>
<path d="M155.445 59.2621C155.355 60.262 155.258 61.2684 155.168 62.2683C154.918 64.8617 152.682 66.7519 150.176 66.5971C149.611 66.5584 149.045 66.5261 148.48 66.5003C145.692 66.3584 142.897 66.3003 140.108 66.3326C137.32 66.3003 134.525 66.3584 131.737 66.5003C129.79 66.0745 128.229 64.4101 128.017 62.2683C127.927 61.2684 127.831 60.262 127.741 59.2621C127.49 56.6752 129.514 54.3398 132.27 54.1657C134.879 53.9979 137.494 53.9012 140.108 53.8754C143.713 53.8367 147.317 53.9334 150.915 54.1657C153.678 54.3398 155.702 56.6687 155.445 59.2621Z" fill="url(#paint23_linear_8565_878)"/>
<path d="M129.585 99.9941H106.822L107.207 98.0781L107.529 96.4782L109.27 87.7562L109.752 85.3564L109.848 84.8661L111.017 79.0342L111.062 78.7955C111.107 78.5762 111.152 78.3568 111.204 78.144C111.319 77.6472 111.454 77.1698 111.608 76.6989C111.634 76.615 111.666 76.5312 111.692 76.4473C111.878 75.9054 112.09 75.3893 112.322 74.8926C112.386 74.7506 112.456 74.6087 112.527 74.4668C112.566 74.3829 112.611 74.3055 112.649 74.2216C112.816 73.9055 112.99 73.6088 113.17 73.312C113.279 73.1443 113.382 72.9765 113.497 72.8153C114.615 71.2089 115.997 70.0026 117.526 69.3445C117.789 69.2284 118.059 69.1316 118.335 69.0542C118.361 69.0478 118.387 69.0413 118.412 69.0349C118.913 68.893 119.434 68.8091 119.961 68.7833L122.845 68.6672L123.077 68.6607L126.154 68.5381H126.302L127.246 68.5317C127.33 68.5317 127.413 68.5317 127.503 68.5317H127.908L129.579 68.5252V76.4215V78.131V92.943V94.5945L129.585 99.9941Z" fill="#002A24"/>
<path d="M159.736 78.1444C159.723 78.4024 159.704 78.6669 159.685 78.9379L157.404 99.9945H113.638L114.004 97.3237L114.223 95.7367L114.878 90.9048L115 90.0081L115.039 89.7371L115.257 88.1243L115.752 84.4923L115.803 84.1246L116.548 78.6346C116.587 78.4734 116.619 78.3121 116.664 78.1508C116.793 77.6218 116.947 77.1057 117.127 76.609C117.191 76.4283 117.255 76.2477 117.326 76.0735C117.332 76.0606 117.339 76.0413 117.345 76.0284C117.371 75.9703 117.39 75.9123 117.416 75.8542C118.656 72.8286 120.686 70.5255 123.108 69.3708C123.172 69.3385 123.237 69.3062 123.307 69.2804C124.258 68.8547 125.267 68.6095 126.308 68.5579C126.321 68.5579 126.333 68.5579 126.34 68.5579C126.366 68.5579 126.655 68.5579 127.149 68.5579C127.181 68.5579 127.214 68.5579 127.252 68.5579C127.336 68.5579 127.419 68.5579 127.509 68.5579C127.638 68.5579 127.773 68.5579 127.914 68.5579C128.389 68.5579 128.955 68.5514 129.584 68.5514C130.381 68.5514 131.287 68.545 132.244 68.545C132.321 68.545 132.392 68.545 132.469 68.545C134.017 68.5385 135.701 68.5321 137.301 68.5256C137.994 68.5256 138.682 68.5192 139.331 68.5192C139.774 68.5192 140.198 68.5192 140.609 68.5127C142.19 68.5063 143.449 68.5063 144.079 68.4998C144.317 68.4998 144.458 68.4998 144.496 68.4998V68.545L153.864 68.6869C159.074 68.8547 160.077 72.4415 159.736 78.1444Z" fill="url(#paint24_linear_8565_878)"/>
<path d="M26.4594 62.5838H24.8532V72.0284H26.4594V62.5838Z" fill="white"/>
<path d="M12.3506 61.8417H10.7444V71.2862H12.3506V61.8417Z" fill="white"/>
<path d="M7.31959 59.2618C7.40954 60.2617 7.50591 61.2681 7.59586 62.2681C7.80788 64.4098 9.36269 66.0743 11.3158 66.5C14.1042 66.3581 16.899 66.3 19.6874 66.3323C22.4758 66.3 25.2706 66.3581 28.059 66.5C28.6243 66.5258 29.1897 66.5581 29.7551 66.5968C32.2608 66.7516 34.4966 64.8614 34.7472 62.2681C34.8372 61.2681 34.9335 60.2617 35.0235 59.2618C35.274 56.6749 33.2502 54.3396 30.494 54.1654C26.8961 53.9396 23.2917 53.8428 19.6874 53.8751C17.0725 53.9009 14.4576 53.9976 11.8491 54.1654C9.08642 54.3396 7.0626 56.6684 7.31959 59.2618Z" fill="#002A24"/>
<path d="M4.34542 59.2621C4.43537 60.262 4.53174 61.2684 4.62169 62.2683C4.87226 64.8617 7.1081 66.7519 9.61379 66.5971C10.1792 66.5584 10.7446 66.5261 11.3099 66.5003C14.0983 66.3584 16.8931 66.3003 19.6815 66.3326C22.4699 66.3003 25.2647 66.3584 28.0531 66.5003C29.9998 66.0745 31.561 64.4101 31.773 62.2683C31.863 61.2684 31.9594 60.262 32.0493 59.2621C32.2999 56.6752 30.276 54.3398 27.5198 54.1657C24.9113 53.9979 22.2964 53.9012 19.6815 53.8754C16.0772 53.8367 12.4728 53.9334 8.87493 54.1657C6.11868 54.3398 4.09485 56.6687 4.34542 59.2621Z" fill="url(#paint25_linear_8565_878)"/>
<path d="M30.2114 99.9949V90.8406V78.1447V68.5389L31.7919 68.5454H32.0039C32.081 68.5454 32.1581 68.5454 32.2288 68.5454C32.2673 68.5454 32.3059 68.5454 32.3444 68.5454C32.3894 68.5454 32.4279 68.5454 32.4665 68.5454L33.4944 68.5518H33.6422L34.259 68.5776L34.4774 68.5841L39.8358 68.797C40.9216 68.8486 41.9688 69.1582 42.9518 69.7001C44.0376 70.3001 45.0335 71.1774 45.8944 72.287C45.9072 72.3064 45.9265 72.3257 45.9393 72.3451C47.1279 73.8934 48.0531 75.8739 48.5928 78.1447C48.6442 78.3576 48.6892 78.5769 48.7342 78.7963L48.9654 79.9446L50.2119 86.1764L50.4239 87.2409L50.6937 88.5956L52.9745 100.001H30.2114V99.9949Z" fill="#002A24"/>
<path d="M46.1516 99.9937H2.38562L0.111233 78.9371C0.0919585 78.6661 0.072684 78.4016 0.0598344 78.1436C-0.280682 72.4408 0.721592 68.8474 5.95141 68.6733L15.3188 68.5313V68.4862C15.3766 68.4862 15.6658 68.4862 16.1412 68.4862C17.484 68.4926 20.2788 68.4991 23.2342 68.512C25.6949 68.5184 28.2649 68.5313 30.218 68.5378C30.8091 68.5378 31.3423 68.5442 31.7985 68.5442C31.8692 68.5442 31.9399 68.5442 32.0105 68.5442C32.0876 68.5442 32.1647 68.5442 32.2354 68.5442C32.2739 68.5442 32.3125 68.5442 32.351 68.5442C32.396 68.5442 32.4346 68.5442 32.4731 68.5442C33.0771 68.5442 33.4368 68.5442 33.469 68.5442C33.4818 68.5442 33.4947 68.5442 33.5011 68.5442C33.7581 68.5571 34.0087 68.5765 34.2656 68.6152C34.3363 68.6281 34.4134 68.6345 34.4841 68.6475C36.7199 69.0281 38.7695 70.3441 40.3564 72.3311C40.9989 73.131 41.5643 74.0406 42.0397 75.047C42.1232 75.2212 42.2003 75.4018 42.2774 75.5825C42.6244 76.3824 42.907 77.2404 43.1319 78.1371C43.1705 78.2984 43.209 78.4597 43.2476 78.621L43.4018 79.7499L43.5367 80.7434L44.2113 85.6915L44.5647 88.272L46.1516 99.9937Z" fill="url(#paint26_linear_8565_878)"/>
<path d="M88.1827 23.5831L85.6993 23.248L84.9573 28.7914L87.4407 29.1265L88.1827 23.5831Z" fill="#002A24"/>
<path d="M97.7488 35.7022C89.9876 35.1086 82.1942 35.1086 74.433 35.7022C72.8782 35.8183 71.4905 34.6764 71.3363 33.1152C71.2463 32.1863 71.1628 31.2573 71.0729 30.3283C70.9187 28.7671 72.1329 27.3672 73.7906 27.2447C81.9758 26.6189 90.1996 26.6189 98.3848 27.2447C100.036 27.3672 101.25 28.7671 101.103 30.3283C101.013 31.2573 100.929 32.1863 100.839 33.1152C100.685 34.6764 99.3036 35.8183 97.7488 35.7022Z" fill="#002A24"/>
<path d="M97.9677 35.0895C97.9099 35.0895 97.8521 35.0895 97.7942 35.0831C93.9201 34.7863 89.9817 34.638 86.0882 34.638C82.2012 34.638 78.2628 34.7863 74.3822 35.0831C74.3243 35.0895 74.2665 35.0895 74.2087 35.0895C73.6497 35.0895 73.11 34.8831 72.6924 34.5089C72.2684 34.1348 72.0114 33.6122 71.9536 33.0574L71.6902 30.277C71.6323 29.7093 71.8122 29.1545 72.1849 28.7029C72.5961 28.2126 73.1807 27.9158 73.8361 27.8707C77.8965 27.561 82.0149 27.4062 86.0882 27.4062C90.1551 27.4062 94.2799 27.561 98.3404 27.8707C98.9957 27.9223 99.5804 28.219 99.9915 28.7029C100.364 29.148 100.544 29.7093 100.486 30.2705L100.223 33.0574C100.171 33.6187 99.908 34.1348 99.484 34.5089C99.0664 34.8831 98.5267 35.0895 97.9677 35.0895Z" fill="url(#paint27_linear_8565_878)"/>
<path d="M73.2769 27.9736C74.4848 29.4445 76.5857 32.1411 78.1084 34.8441C79.9652 34.7473 81.8348 34.6828 83.6916 34.657C82.805 32.2959 81.6035 29.7477 80.0102 27.5156C77.9478 27.593 75.8854 27.7091 73.8423 27.8639C73.6432 27.8768 73.4568 27.9155 73.2769 27.9736Z" fill="url(#paint28_linear_8565_878)"/>
<path d="M97.9676 35.0893C99.1241 35.0893 100.113 34.2119 100.223 33.0571L100.486 30.2702C100.544 29.7025 100.364 29.1477 99.9914 28.7026C99.5802 28.2123 98.9956 27.9155 98.3402 27.8704C96.2779 27.7155 94.1962 27.593 92.1146 27.5156C90.6497 28.3736 89.8659 28.3349 88.9664 29.9864C88.4332 30.9669 88.3561 32.6507 87.63 34.6506C93.6501 34.7022 97.5821 35.0893 97.9676 35.0893Z" fill="url(#paint29_linear_8565_878)"/>
<path d="M100.39 31.3021C99.7345 30.657 98.9379 30.2183 98.0384 30.0893C95.5584 29.7151 93.1491 31.7408 92.2432 34.76C94.1 34.8374 95.9567 34.9406 97.7942 35.0825C97.8521 35.089 97.9099 35.089 97.9677 35.089C98.5267 35.089 99.0664 34.8825 99.484 34.5084C99.908 34.1342 100.165 33.6116 100.223 33.0568L100.39 31.3021Z" fill="#F7A491"/>
<path d="M74.9869 62.5838L75.231 64.3386L76.6188 63.2483L74.9869 62.5838Z" fill="url(#paint30_linear_8565_878)"/>
<path d="M97.3381 21.1982C91.5108 21.1982 86.795 16.463 86.795 10.6118C86.795 4.76056 91.5108 0.0253906 97.3381 0.0253906C100.152 0.0253906 102.799 1.12854 104.791 3.12841C108.909 7.26362 108.909 13.9599 104.791 18.1016C102.799 20.095 100.152 21.1982 97.3381 21.1982ZM97.3381 1.34143C92.2497 1.34143 88.1121 5.49599 88.1121 10.6053C88.1121 15.7147 92.2497 19.8692 97.3381 19.8692C102.427 19.8692 106.564 15.7147 106.564 10.6053C106.564 5.50244 102.42 1.34143 97.3381 1.34143Z" fill="url(#paint31_linear_8565_878)"/>
<path d="M97.6656 2.79296C95.404 2.79296 93.5794 4.52833 93.5794 6.66367C93.5794 8.79901 97.5499 13.4116 97.5499 13.4116C97.5499 13.4116 101.758 8.80546 101.758 6.66367C101.752 4.52188 99.9207 2.79296 97.6656 2.79296ZM97.6656 8.21196C96.7597 8.21196 96.0272 7.52168 96.0272 6.66367C96.0272 5.80566 96.7597 5.11539 97.6656 5.11539C98.5715 5.11539 99.3039 5.80566 99.3039 6.66367C99.2975 7.51523 98.565 8.21196 97.6656 8.21196Z" fill="url(#paint32_linear_8565_878)"/>
<path d="M94.364 16.5346H94.878L94.9037 16.7991H94.9166C95.2121 16.3604 95.8675 16.3991 96.0409 16.8249H96.0473C96.4393 16.283 97.3259 16.3475 97.3259 17.341V18.4957H96.7348V17.4313C96.7348 17.1474 96.6449 16.9797 96.4457 16.9797C96.2851 16.9797 96.1437 17.1087 96.1437 17.3474V18.4957H95.5526V17.399C95.5526 17.1474 95.4627 16.9797 95.2699 16.9797C95.1157 16.9797 94.9615 17.1152 94.9615 17.3539V18.4957H94.3705C94.3769 17.2442 94.3897 17.1345 94.364 16.5346Z" fill="url(#paint33_linear_8565_878)"/>
<path d="M98.1091 16.2945C97.6915 16.2945 97.6851 15.6816 98.1156 15.6816C98.5396 15.6816 98.5525 16.2945 98.1091 16.2945ZM97.8136 18.4943V16.5332H98.4175V18.4943H97.8136Z" fill="url(#paint34_linear_8565_878)"/>
<path d="M98.893 16.533H99.4198L99.4455 16.804H99.4583C99.7667 16.3266 100.763 16.3073 100.763 17.333V18.4942H100.159V17.4104C100.159 17.1588 100.069 16.9846 99.8503 16.9846C99.6511 16.9846 99.5162 17.1588 99.5162 17.3652V18.4942H98.9122C98.8994 17.2427 98.9187 17.133 98.893 16.533Z" fill="url(#paint35_linear_8565_878)"/>
<path d="M68.6581 21.2179C62.8179 21.2179 58.0892 16.4699 58.0892 10.6057C58.0892 4.74807 62.8179 0 68.6581 0C71.4786 0 74.132 1.10315 76.1302 3.10947C80.2613 7.25758 80.2613 13.9668 76.1302 18.1149C74.132 20.1148 71.4786 21.2179 68.6581 21.2179ZM68.6581 1.32249C63.5568 1.32249 59.4127 5.48995 59.4127 10.6057C59.4127 15.728 63.5632 19.889 68.6581 19.889C73.753 19.889 77.9034 15.7215 77.9034 10.6057C77.9034 5.48995 73.7594 1.32249 68.6581 1.32249Z" fill="url(#paint36_linear_8565_878)"/>
<path d="M65.2139 15.0513H65.2203C65.3681 14.7868 65.458 14.6772 65.7536 14.2256H66.486L65.7857 15.0191L66.5824 16.1867H65.8371L65.3681 15.3803L65.2139 15.5739V16.1867H64.61V13.3418H65.2139V15.0513Z" fill="url(#paint37_linear_8565_878)"/>
<path d="M66.7943 14.2249H67.3083L67.334 14.4894H67.3468C67.6424 14.0507 68.2977 14.0894 68.4712 14.5152H68.4776C68.6446 14.283 68.8567 14.1798 69.1008 14.1798C69.4734 14.1798 69.7626 14.4443 69.7626 15.0313V16.1861H69.1715V15.1216C69.1715 14.8378 69.0815 14.6701 68.8824 14.6701C68.7217 14.6701 68.5804 14.7991 68.5804 15.0378V16.1861H67.9893V15.0894C67.9893 14.483 67.4046 14.5926 67.4046 15.0442V16.1861H66.8136C66.8071 14.9346 66.8264 14.8184 66.7943 14.2249Z" fill="url(#paint38_linear_8565_878)"/>
<path d="M70.0648 16.3405L70.9193 13.4375H71.324L70.4695 16.3405H70.0648Z" fill="url(#paint39_linear_8565_878)"/>
<path d="M71.5684 13.334H72.1724V14.45H72.1788C72.5257 13.992 73.4188 14.0371 73.4188 15.0306V16.1789H72.8149V15.1016C72.8149 14.8435 72.7249 14.6693 72.5 14.6693C72.3394 14.6693 72.2431 14.7726 72.1981 14.8822C72.166 14.9661 72.1788 14.9984 72.1788 16.1789H71.5749V13.334H71.5684Z" fill="url(#paint40_linear_8565_878)"/>
<path d="M66.204 8.19348H66.1847C66.3003 7.65804 66.7244 7.1742 67.6688 7.09678C67.8359 7.08388 67.9644 7.07743 68.08 7.08388V6.25813C67.9772 6.25168 67.8487 6.25168 67.656 6.26458C66.9428 6.29684 66.3582 6.52263 65.902 6.9355C64.6427 8.10962 64.7712 10.9546 66.9043 10.9546C67.8873 10.9546 68.5811 10.2127 68.5811 9.30309C68.5747 7.7548 66.885 7.48385 66.204 8.19348ZM66.885 10.174C66.1718 10.174 66.0755 9.22567 66.1911 8.98698C66.4674 8.37412 67.4953 8.41928 67.4953 9.3676C67.4953 9.83208 67.2576 10.174 66.885 10.174Z" fill="url(#paint41_linear_8565_878)"/>
<path d="M70.7204 6.24413C69.5446 6.24413 68.9857 7.28922 68.9857 8.61171C68.9921 9.90195 69.5125 10.9599 70.6818 10.9599C71.8447 10.9599 72.4101 9.99226 72.4101 8.57945C72.4101 7.33438 71.9347 6.24413 70.7204 6.24413ZM70.714 10.1535C70.3028 10.1535 70.0522 9.6568 70.0586 8.61171C70.0522 7.55372 70.3156 7.05698 70.7075 7.05698C71.1316 7.05698 71.35 7.59242 71.35 8.59881C71.35 9.63745 71.1251 10.1535 70.714 10.1535Z" fill="url(#paint42_linear_8565_878)"/>
<path d="M47.7899 42.5327C42.0204 42.5327 37.3495 37.8427 37.3495 32.0495C37.3495 26.2564 42.0204 21.5664 47.7899 21.5664C50.5783 21.5664 53.1996 22.6566 55.172 24.6371C59.2518 28.7336 59.2518 35.3654 55.172 39.4619C53.1996 41.4425 50.5783 42.5327 47.7899 42.5327ZM47.7899 22.8759C42.7528 22.8759 38.6538 26.9918 38.6538 32.0495C38.6538 37.1073 42.7528 41.2231 47.7899 41.2231C52.8269 41.2231 56.926 37.1073 56.926 32.0495C56.926 26.9918 52.8269 22.8759 47.7899 22.8759Z" fill="url(#paint43_linear_8565_878)"/>
<path d="M51.5742 36.9782L51.6128 26.9531L47.3595 29.34H43.1256C42.2325 29.34 41.5065 30.069 41.5065 30.9657V33.043C41.5065 33.9397 42.2325 34.6687 43.1256 34.6687L47.3981 34.7461L51.5742 36.9782Z" fill="url(#paint44_linear_8565_878)"/>
<path d="M52.3577 33.9718C54.131 33.146 53.9447 30.7139 52.3898 29.9849C52.1072 29.8559 52.3063 29.4301 52.589 29.5592C54.5165 30.4623 54.6835 33.4105 52.5569 34.3975C52.2742 34.533 52.075 34.1072 52.3577 33.9718Z" fill="url(#paint45_linear_8565_878)"/>
<path d="M52.4094 35.2236C55.5961 34.2559 55.5961 29.7659 52.4801 28.7595C52.1845 28.6628 52.3323 28.2176 52.6214 28.3144C56.1743 29.4692 56.1615 34.5785 52.5443 35.6816C52.2488 35.7655 52.1139 35.3139 52.4094 35.2236Z" fill="url(#paint46_linear_8565_878)"/>
<defs>
<linearGradient id="paint0_linear_8565_878" x1="1.24666" y1="76.4703" x2="159.998" y2="76.4703" gradientUnits="userSpaceOnUse">
<stop stop-color="#C9CD55"/>
<stop offset="0.5065" stop-color="#659C52"/>
<stop offset="1" stop-color="#287F50"/>
</linearGradient>
<linearGradient id="paint1_linear_8565_878" x1="144.149" y1="9.34561" x2="46.405" y2="74.2421" gradientUnits="userSpaceOnUse">
<stop stop-color="#53CD9F"/>
<stop offset="1" stop-color="#0D7A5C"/>
</linearGradient>
<linearGradient id="paint2_linear_8565_878" x1="143.565" y1="8.46829" x2="45.8218" y2="73.3646" gradientUnits="userSpaceOnUse">
<stop stop-color="#53CD9F"/>
<stop offset="1" stop-color="#0D7A5C"/>
</linearGradient>
<linearGradient id="paint3_linear_8565_878" x1="146.163" y1="12.3794" x2="48.4199" y2="77.2757" gradientUnits="userSpaceOnUse">
<stop stop-color="#53CD9F"/>
<stop offset="1" stop-color="#0D7A5C"/>
</linearGradient>
<linearGradient id="paint4_linear_8565_878" x1="147.056" y1="13.7247" x2="49.3124" y2="78.621" gradientUnits="userSpaceOnUse">
<stop stop-color="#53CD9F"/>
<stop offset="1" stop-color="#0D7A5C"/>
</linearGradient>
<linearGradient id="paint5_linear_8565_878" x1="148.085" y1="15.2729" x2="50.3409" y2="80.1692" gradientUnits="userSpaceOnUse">
<stop stop-color="#53CD9F"/>
<stop offset="1" stop-color="#0D7A5C"/>
</linearGradient>
<linearGradient id="paint6_linear_8565_878" x1="8.29019" y1="78.1339" x2="149.559" y2="78.1339" gradientUnits="userSpaceOnUse">
<stop stop-color="#00503E"/>
<stop offset="1" stop-color="#023222"/>
</linearGradient>
<linearGradient id="paint7_linear_8565_878" x1="98.2726" y1="25.1576" x2="55.3757" y2="105.465" gradientUnits="userSpaceOnUse">
<stop stop-color="#53CD9F"/>
<stop offset="1" stop-color="#0D7A5C"/>
</linearGradient>
<linearGradient id="paint8_linear_8565_878" x1="43.114" y1="64.0806" x2="64.1604" y2="64.0806" gradientUnits="userSpaceOnUse">
<stop stop-color="#00503E"/>
<stop offset="1" stop-color="#023222"/>
</linearGradient>
<linearGradient id="paint9_linear_8565_878" x1="71.4371" y1="76.3641" x2="93.1604" y2="76.3641" gradientUnits="userSpaceOnUse">
<stop stop-color="#00503E"/>
<stop offset="1" stop-color="#023222"/>
</linearGradient>
<linearGradient id="paint10_linear_8565_878" x1="87.3817" y1="70.7893" x2="77.0426" y2="77.8099" gradientUnits="userSpaceOnUse">
<stop stop-color="#C7A44F"/>
<stop offset="1" stop-color="#609A3F"/>
</linearGradient>
<linearGradient id="paint11_linear_8565_878" x1="88.7212" y1="72.7624" x2="78.382" y2="79.7831" gradientUnits="userSpaceOnUse">
<stop stop-color="#C7A44F"/>
<stop offset="1" stop-color="#609A3F"/>
</linearGradient>
<linearGradient id="paint12_linear_8565_878" x1="82.5772" y1="66.7814" x2="92.232" y2="66.7814" gradientUnits="userSpaceOnUse">
<stop stop-color="#00503E"/>
<stop offset="1" stop-color="#023222"/>
</linearGradient>
<linearGradient id="paint13_linear_8565_878" x1="70.1367" y1="66.7814" x2="79.7915" y2="66.7814" gradientUnits="userSpaceOnUse">
<stop stop-color="#00503E"/>
<stop offset="1" stop-color="#023222"/>
</linearGradient>
<linearGradient id="paint14_linear_8565_878" x1="71.685" y1="58.2673" x2="78.5548" y2="58.2673" gradientUnits="userSpaceOnUse">
<stop stop-color="#00503E"/>
<stop offset="1" stop-color="#023222"/>
</linearGradient>
<linearGradient id="paint15_linear_8565_878" x1="71.9612" y1="53.0052" x2="78.2772" y2="53.0052" gradientUnits="userSpaceOnUse">
<stop stop-color="#C7A44F"/>
<stop offset="1" stop-color="#609A3F"/>
</linearGradient>
<linearGradient id="paint16_linear_8565_878" x1="71.903" y1="85.6938" x2="90.5498" y2="85.6938" gradientUnits="userSpaceOnUse">
<stop stop-color="#00503E"/>
<stop offset="1" stop-color="#023222"/>
</linearGradient>
<linearGradient id="paint17_linear_8565_878" x1="114.679" y1="33.921" x2="71.7821" y2="114.228" gradientUnits="userSpaceOnUse">
<stop stop-color="#53CD9F"/>
<stop offset="1" stop-color="#0D7A5C"/>
</linearGradient>
<linearGradient id="paint18_linear_8565_878" x1="86.0924" y1="91.1676" x2="77.5149" y2="103.183" gradientUnits="userSpaceOnUse">
<stop stop-color="#C9CD55"/>
<stop offset="0.5065" stop-color="#659C52"/>
<stop offset="1" stop-color="#287F50"/>
</linearGradient>
<linearGradient id="paint19_linear_8565_878" x1="78.5593" y1="89.9525" x2="83.4237" y2="89.9525" gradientUnits="userSpaceOnUse">
<stop stop-color="#FB9A2B"/>
<stop offset="1" stop-color="#E65925"/>
</linearGradient>
<linearGradient id="paint20_linear_8565_878" x1="15.7533" y1="57.0936" x2="50.9654" y2="57.0936" gradientUnits="userSpaceOnUse">
<stop stop-color="#FB9A2B"/>
<stop offset="1" stop-color="#E65925"/>
</linearGradient>
<linearGradient id="paint21_linear_8565_878" x1="92.7421" y1="78.806" x2="137.708" y2="78.806" gradientUnits="userSpaceOnUse">
<stop stop-color="#53CD9F"/>
<stop offset="1" stop-color="#0D7A5C"/>
</linearGradient>
<linearGradient id="paint22_linear_8565_878" x1="96.7123" y1="82.9119" x2="123.148" y2="82.9119" gradientUnits="userSpaceOnUse">
<stop stop-color="#C7A44F"/>
<stop offset="1" stop-color="#609A3F"/>
</linearGradient>
<linearGradient id="paint23_linear_8565_878" x1="146.47" y1="50.9038" x2="103.573" y2="131.211" gradientUnits="userSpaceOnUse">
<stop stop-color="#53CD9F"/>
<stop offset="1" stop-color="#0D7A5C"/>
</linearGradient>
<linearGradient id="paint24_linear_8565_878" x1="154.659" y1="55.2783" x2="111.763" y2="135.585" gradientUnits="userSpaceOnUse">
<stop stop-color="#53CD9F"/>
<stop offset="1" stop-color="#0D7A5C"/>
</linearGradient>
<linearGradient id="paint25_linear_8565_878" x1="50.2886" y1="-0.472636" x2="7.39165" y2="79.8343" gradientUnits="userSpaceOnUse">
<stop stop-color="#53CD9F"/>
<stop offset="1" stop-color="#0D7A5C"/>
</linearGradient>
<linearGradient id="paint26_linear_8565_878" x1="65.0052" y1="7.38722" x2="22.1083" y2="87.6941" gradientUnits="userSpaceOnUse">
<stop stop-color="#53CD9F"/>
<stop offset="1" stop-color="#0D7A5C"/>
</linearGradient>
<linearGradient id="paint27_linear_8565_878" x1="71.6845" y1="31.2419" x2="100.497" y2="31.2419" gradientUnits="userSpaceOnUse">
<stop stop-color="#53CD9F"/>
<stop offset="1" stop-color="#0D7A5C"/>
</linearGradient>
<linearGradient id="paint28_linear_8565_878" x1="73.2755" y1="31.1769" x2="83.6932" y2="31.1769" gradientUnits="userSpaceOnUse">
<stop stop-color="#00503E"/>
<stop offset="1" stop-color="#023222"/>
</linearGradient>
<linearGradient id="paint29_linear_8565_878" x1="87.6314" y1="31.2982" x2="100.497" y2="31.2982" gradientUnits="userSpaceOnUse">
<stop stop-color="#FB9A2B"/>
<stop offset="1" stop-color="#E65925"/>
</linearGradient>
<linearGradient id="paint30_linear_8565_878" x1="74.9838" y1="63.4611" x2="76.6196" y2="63.4611" gradientUnits="userSpaceOnUse">
<stop stop-color="#FB9A2B"/>
<stop offset="1" stop-color="#E65925"/>
</linearGradient>
<linearGradient id="paint31_linear_8565_878" x1="130.325" y1="-11.4743" x2="32.5814" y2="53.4222" gradientUnits="userSpaceOnUse">
<stop stop-color="#53CD9F"/>
<stop offset="1" stop-color="#0D7A5C"/>
</linearGradient>
<linearGradient id="paint32_linear_8565_878" x1="129.054" y1="-13.3884" x2="31.3104" y2="51.5081" gradientUnits="userSpaceOnUse">
<stop stop-color="#53CD9F"/>
<stop offset="1" stop-color="#0D7A5C"/>
</linearGradient>
<linearGradient id="paint33_linear_8565_878" x1="133.042" y1="-7.38325" x2="35.2981" y2="57.513" gradientUnits="userSpaceOnUse">
<stop stop-color="#53CD9F"/>
<stop offset="1" stop-color="#0D7A5C"/>
</linearGradient>
<linearGradient id="paint34_linear_8565_878" x1="133.573" y1="-6.58417" x2="35.8289" y2="58.3123" gradientUnits="userSpaceOnUse">
<stop stop-color="#53CD9F"/>
<stop offset="1" stop-color="#0D7A5C"/>
</linearGradient>
<linearGradient id="paint35_linear_8565_878" x1="134.266" y1="-5.54171" x2="36.5216" y2="59.3548" gradientUnits="userSpaceOnUse">
<stop stop-color="#53CD9F"/>
<stop offset="1" stop-color="#0D7A5C"/>
</linearGradient>
<linearGradient id="paint36_linear_8565_878" x1="121.502" y1="-24.7642" x2="23.7579" y2="40.1322" gradientUnits="userSpaceOnUse">
<stop stop-color="#53CD9F"/>
<stop offset="1" stop-color="#0D7A5C"/>
</linearGradient>
<linearGradient id="paint37_linear_8565_878" x1="122.468" y1="-23.3074" x2="24.7241" y2="41.5891" gradientUnits="userSpaceOnUse">
<stop stop-color="#53CD9F"/>
<stop offset="1" stop-color="#0D7A5C"/>
</linearGradient>
<linearGradient id="paint38_linear_8565_878" x1="123.496" y1="-21.7593" x2="25.7524" y2="43.1373" gradientUnits="userSpaceOnUse">
<stop stop-color="#53CD9F"/>
<stop offset="1" stop-color="#0D7A5C"/>
</linearGradient>
<linearGradient id="paint39_linear_8565_878" x1="124.096" y1="-20.857" x2="26.3518" y2="44.0395" gradientUnits="userSpaceOnUse">
<stop stop-color="#53CD9F"/>
<stop offset="1" stop-color="#0D7A5C"/>
</linearGradient>
<linearGradient id="paint40_linear_8565_878" x1="124.59" y1="-20.1142" x2="26.8456" y2="44.7825" gradientUnits="userSpaceOnUse">
<stop stop-color="#53CD9F"/>
<stop offset="1" stop-color="#0D7A5C"/>
</linearGradient>
<linearGradient id="paint41_linear_8565_878" x1="120.12" y1="-26.8454" x2="22.3757" y2="38.0511" gradientUnits="userSpaceOnUse">
<stop stop-color="#53CD9F"/>
<stop offset="1" stop-color="#0D7A5C"/>
</linearGradient>
<linearGradient id="paint42_linear_8565_878" x1="121.211" y1="-25.2031" x2="23.4668" y2="39.6932" gradientUnits="userSpaceOnUse">
<stop stop-color="#53CD9F"/>
<stop offset="1" stop-color="#0D7A5C"/>
</linearGradient>
<linearGradient id="paint43_linear_8565_878" x1="124.937" y1="-19.5897" x2="27.1932" y2="45.3067" gradientUnits="userSpaceOnUse">
<stop stop-color="#53CD9F"/>
<stop offset="1" stop-color="#0D7A5C"/>
</linearGradient>
<linearGradient id="paint44_linear_8565_878" x1="125.235" y1="-19.1406" x2="27.4913" y2="45.7559" gradientUnits="userSpaceOnUse">
<stop stop-color="#53CD9F"/>
<stop offset="1" stop-color="#0D7A5C"/>
</linearGradient>
<linearGradient id="paint45_linear_8565_878" x1="126.353" y1="-17.4566" x2="28.6091" y2="47.4399" gradientUnits="userSpaceOnUse">
<stop stop-color="#53CD9F"/>
<stop offset="1" stop-color="#0D7A5C"/>
</linearGradient>
<linearGradient id="paint46_linear_8565_878" x1="126.409" y1="-17.3725" x2="28.6652" y2="47.5239" gradientUnits="userSpaceOnUse">
<stop stop-color="#53CD9F"/>
<stop offset="1" stop-color="#0D7A5C"/>
</linearGradient>
</defs>
</svg>
