<svg width="14" height="14" viewBox="0 0 14 14" fill="none" xmlns="http://www.w3.org/2000/svg">
<path d="M6.1653 0C2.76585 0 0 2.76585 0 6.1653C0 9.56495 2.76585 12.3306 6.1653 12.3306C9.56495 12.3306 12.3306 9.56495 12.3306 6.1653C12.3306 2.76585 9.56495 0 6.1653 0ZM6.1653 11.1924C3.39338 11.1924 1.13821 8.93725 1.13821 6.16533C1.13821 3.39341 3.39338 1.13821 6.1653 1.13821C8.93722 1.13821 11.1924 3.39338 11.1924 6.1653C11.1924 8.93722 8.93722 11.1924 6.1653 11.1924Z" fill="#A0A0A0"/>
<path d="M13.8332 13.0292L10.5704 9.76632C10.348 9.54398 9.98798 9.54398 9.76565 9.76632C9.54331 9.98846 9.54331 10.3489 9.76565 10.571L13.0285 13.8339C13.1397 13.9451 13.2852 14.0007 13.4309 14.0007C13.5764 14.0007 13.7221 13.9451 13.8332 13.8339C14.0556 13.6118 14.0556 13.2513 13.8332 13.0292Z" fill="#A0A0A0"/>
</svg>
