<svg width="11" height="13" viewBox="0 0 11 13" fill="none" xmlns="http://www.w3.org/2000/svg">
<path d="M6.69731 2.75125C6.93597 2.9969 7.32284 2.9969 7.5615 2.75125L8.14793 2.14765V10.6936C8.14793 11.041 8.42154 11.3226 8.75904 11.3226C9.09654 11.3226 9.37015 11.041 9.37015 10.6936V2.14765L9.95658 2.75125C10.1952 2.9969 10.5821 2.9969 10.8208 2.75125C11.0594 2.5056 11.0594 2.10731 10.8208 1.86166L9.19114 0.184238C8.95248 -0.0614125 8.5656 -0.0614125 8.32694 0.184238L6.69731 1.86166C6.45865 2.10731 6.45865 2.5056 6.69731 2.75125Z" fill="white"/>
<path d="M2.85186 10.8526L3.43826 10.2491C3.67691 10.0035 4.06382 10.0035 4.30248 10.2491C4.54114 10.4948 4.54114 10.893 4.30248 11.1386L2.67287 12.8161C2.43422 13.0617 2.04728 13.0617 1.80862 12.8161L0.178989 11.1386C-0.059663 10.893 -0.059663 10.4948 0.178989 10.2491C0.417641 10.0035 0.804582 10.0035 1.04323 10.2491L1.62963 10.8526V2.30677C1.62963 1.95937 1.90324 1.67773 2.24075 1.67773C2.57825 1.67773 2.85186 1.95937 2.85186 2.30677V10.8526Z" fill="white"/>
</svg>
