<svg width="75" height="36" viewBox="0 0 75 36" fill="none" xmlns="http://www.w3.org/2000/svg">
<path d="M41.4093 14.887L41.3982 8.18713H29.1333L29.067 36H41.3946C41.3946 34.3487 41.3982 32.3913 41.3946 30.7874L34.6494 30.7436V25.1811H41.3762V19.582H34.642V14.887H41.4093Z" fill="white"/>
<path d="M43.5802 14.7886H47.5765V35.9052H53.9868V14.7339H57.7734L57.7918 8.11057H43.5802V14.7886Z" fill="white"/>
<path d="M74.9848 25.3159V25.2029H74.834H74.8119H72.1109H69.5681C69.5534 25.3196 69.6012 27.3682 69.546 28.3013C69.4724 29.6391 69.3179 30.6452 67.1504 30.6598C65.9213 30.6671 65.178 29.712 65.1743 28.3742C65.1596 24.1312 65.1522 19.8919 65.1927 15.6525C65.1964 15.164 65.2111 14.6136 65.4834 14.2126C66.017 13.4253 66.9701 13.4872 67.868 13.5237C68.9499 13.5674 69.5607 14.2199 69.5607 15.4848C69.5607 16.4435 69.5607 17.1798 69.5607 18.1567H74.9959L74.9812 13.5857C74.9812 10.0535 71.511 8.5079 68.9094 8.28189C66.7751 8.09599 65.9324 8.11421 63.7981 8.29647C61.2737 8.51519 59.2681 11.0049 59.2497 13.7533C59.2166 19.2904 59.2129 24.8311 59.2497 30.3718C59.2718 33.3426 61.6085 35.8469 64.3574 35.9089C66.201 35.9526 67.489 36.0328 69.3363 35.9781C71.8128 35.9089 74.6941 33.5759 74.9149 30.9113C75.0621 29.0996 74.9701 27.1422 74.9848 25.3159Z" fill="white"/>
<path d="M0.0992432 7.8153C0.0992432 7.82988 0.0992432 7.84082 0.0992432 7.8554C0.0992432 7.87727 0.0992432 7.8955 0.0992432 7.91737C0.0992432 7.93559 0.0992432 7.95382 0.102923 7.97204C0.106603 8.1215 0.117642 8.2746 0.147081 8.42769C0.45619 10.1264 2.12317 11.2637 3.8711 10.9611C5.424 10.695 6.51692 9.38638 6.52428 7.90643C6.52428 7.88091 6.52428 7.85904 6.52428 7.83353C6.52428 7.82259 6.52428 7.81166 6.52428 7.80072C6.52428 7.79708 6.52428 7.79343 6.52428 7.78978C6.52428 7.7752 6.52428 7.76427 6.52428 7.74969C6.52428 7.72782 6.52428 7.70959 6.52428 7.68772C6.52428 7.6622 6.5206 7.64033 6.5206 7.61481C6.5206 7.58565 6.51692 7.56014 6.51324 7.53098C6.51324 7.51275 6.51324 7.49817 6.50956 7.47994C6.50956 7.46901 6.50588 7.45807 6.50588 7.44714C6.5022 7.42162 6.49852 7.39975 6.49852 7.37423C6.49484 7.35236 6.49116 7.33414 6.48748 7.31226C6.4838 7.28675 6.48012 7.26488 6.47276 7.23936C6.46908 7.21749 6.4654 7.19562 6.46172 7.17375C6.45804 7.16281 6.45436 7.15187 6.45436 7.14094C6.447 7.11542 6.44332 7.08991 6.43596 7.06439C6.43228 7.04616 6.42861 7.03158 6.42125 7.01336C6.41389 6.99149 6.41021 6.96961 6.40285 6.94774C6.39549 6.92223 6.39181 6.90036 6.38445 6.87484C6.38077 6.86026 6.37341 6.84932 6.36973 6.83839C6.36237 6.81287 6.35133 6.78735 6.34397 6.76184C6.34029 6.7509 6.33661 6.73997 6.33293 6.72903C6.33293 6.72539 6.32925 6.72174 6.32925 6.7181C6.32189 6.69987 6.31085 6.678 6.30349 6.65977C6.29245 6.63426 6.28509 6.61239 6.27773 6.58687C6.27405 6.57593 6.26669 6.56135 6.25933 6.55042C6.24829 6.5249 6.23725 6.50303 6.22621 6.47751C6.21885 6.46293 6.21149 6.44471 6.20413 6.43013C6.19309 6.4119 6.18205 6.39367 6.17101 6.3718C6.15998 6.34993 6.15262 6.32806 6.1379 6.30983C6.13054 6.2989 6.12318 6.28796 6.1195 6.27703C6.10846 6.25516 6.09374 6.23693 6.0827 6.21506C6.07166 6.19683 6.06062 6.17496 6.04958 6.15674C6.03854 6.13486 6.02014 6.11664 6.0091 6.09841C5.99806 6.08019 5.98702 6.06196 5.9723 6.04373C5.96862 6.03644 5.96126 6.02915 5.9539 6.02186C5.93918 6.00364 5.92814 5.98541 5.91342 5.96719C5.89871 5.94531 5.88399 5.92709 5.86927 5.90522C5.85455 5.88335 5.83615 5.86512 5.81775 5.84689C5.80303 5.82867 5.79199 5.81409 5.77727 5.79586C5.77359 5.79222 5.77359 5.78857 5.76991 5.78493C5.76623 5.78128 5.76255 5.77763 5.76255 5.77763C5.74783 5.76305 5.73311 5.74483 5.71839 5.73025C5.69999 5.71202 5.68527 5.69015 5.66687 5.67192C5.64847 5.6537 5.63007 5.63912 5.61168 5.62089C5.59696 5.60631 5.57856 5.58808 5.56384 5.5735C5.55648 5.56621 5.54912 5.55892 5.54544 5.55163C5.53072 5.53705 5.51232 5.52247 5.49392 5.50789C5.47552 5.49331 5.4608 5.47508 5.4424 5.45686C5.424 5.44228 5.4056 5.43134 5.39088 5.41676C5.37248 5.40218 5.35409 5.38395 5.33569 5.36937C5.32465 5.36208 5.31729 5.35479 5.30625 5.34386C5.28785 5.32928 5.26577 5.31834 5.24737 5.30376C5.22897 5.28918 5.21425 5.2746 5.19585 5.26366C5.18113 5.25273 5.16641 5.24544 5.15169 5.2345C5.12961 5.21992 5.10753 5.20534 5.08546 5.19076C5.07442 5.18347 5.06338 5.17618 5.05234 5.16889C5.03026 5.15431 5.00818 5.14337 4.98242 5.12879C4.96402 5.11785 4.94562 5.10692 4.92722 5.09598C4.92354 5.09234 4.91986 5.09234 4.91618 5.08869C4.90514 5.0814 4.8941 5.07776 4.88674 5.07411C4.86098 5.05953 4.8389 5.0486 4.81315 5.03401C4.80211 5.02672 4.79107 5.01943 4.77635 5.01579C4.75427 5.00485 4.72851 4.99392 4.70643 4.98298C4.68435 4.97205 4.66595 4.96111 4.64387 4.95382C4.62915 4.94653 4.61075 4.93924 4.59603 4.93195C4.57027 4.92101 4.5482 4.91008 4.52244 4.90279C4.5114 4.89914 4.50036 4.89185 4.48932 4.88821C4.46724 4.88092 4.44516 4.87363 4.42676 4.86634C4.40468 4.85904 4.37892 4.84811 4.35684 4.84082C4.33476 4.83353 4.31636 4.82624 4.29429 4.81895C4.27221 4.81166 4.24645 4.80437 4.22069 4.79708C4.20965 4.79343 4.19861 4.78979 4.18757 4.78614C4.16917 4.7825 4.15445 4.77885 4.13605 4.77521C4.10661 4.76791 4.08085 4.76062 4.05141 4.75333C4.02566 4.74604 4.00358 4.7424 3.97782 4.73511C3.95574 4.73146 3.93734 4.72782 3.91526 4.72417C3.90054 4.72053 3.8895 4.72053 3.87478 4.71688C3.8711 4.71688 3.86742 4.71324 3.86374 4.71324C3.8527 4.70959 3.84166 4.70959 3.83062 4.70959C3.80118 4.70595 3.77174 4.69866 3.74231 4.69501C3.71655 4.69137 3.68711 4.68772 3.66135 4.68408C3.64295 4.68043 3.62455 4.68043 3.60983 4.68043C3.59511 4.68043 3.58039 4.67678 3.56567 4.67678C3.54727 4.67678 3.52887 4.67314 3.51415 4.67314C3.4884 4.67314 3.45896 4.66949 3.4332 4.66949C3.40376 4.66949 3.37432 4.66949 3.34488 4.66949C3.33384 4.66949 3.3228 4.66949 3.31176 4.66949C3.30808 4.66949 3.3044 4.66949 3.30072 4.66949C3.286 4.66949 3.27128 4.66949 3.26024 4.66949C3.23817 4.66949 3.21609 4.66949 3.19769 4.66949C3.17193 4.66949 3.14617 4.67314 3.12409 4.67314C3.09465 4.67314 3.06521 4.67678 3.03945 4.68043C3.02105 4.68043 3.00265 4.68043 2.98793 4.68408C2.97689 4.68408 2.96586 4.68772 2.95482 4.68772C2.92906 4.69137 2.90698 4.69137 2.88122 4.69501C2.85914 4.69866 2.83706 4.7023 2.81866 4.70595C2.7929 4.70959 2.77082 4.71324 2.74506 4.72053C2.72298 4.72417 2.70091 4.72782 2.67883 4.73146C2.66779 4.73511 2.65675 4.73875 2.64203 4.73875C2.61627 4.74604 2.59051 4.74969 2.56475 4.75698C2.54635 4.76062 2.53163 4.76427 2.51323 4.76791C2.49115 4.77521 2.46907 4.77885 2.44699 4.78614C2.42124 4.79343 2.39916 4.79708 2.3734 4.80437C2.35868 4.80801 2.34764 4.8153 2.33292 4.81895C2.30716 4.82624 2.2814 4.83717 2.25564 4.84446C2.2446 4.84811 2.23356 4.85175 2.22252 4.8554C2.21884 4.8554 2.21516 4.85904 2.21148 4.85904C2.1894 4.86634 2.17101 4.87363 2.14893 4.88456C2.12317 4.8955 2.09741 4.90279 2.07533 4.91008C2.06429 4.91372 2.04957 4.92101 2.03853 4.9283C2.01277 4.93924 1.99069 4.95017 1.96493 4.96111C1.95021 4.9684 1.93181 4.97569 1.91709 4.98298C1.8987 4.99392 1.87662 5.00485 1.85822 5.01579C1.83614 5.02672 1.81406 5.03401 1.79198 5.04495C1.78094 5.05224 1.7699 5.05953 1.75886 5.06318C1.73678 5.07411 1.71838 5.08869 1.6963 5.09963C1.6779 5.11056 1.65582 5.1215 1.63743 5.13243C1.61535 5.14337 1.59695 5.15795 1.57855 5.17253C1.56015 5.18347 1.53807 5.1944 1.51967 5.20534C1.51231 5.20898 1.50495 5.21627 1.49759 5.22356C1.47919 5.2345 1.46079 5.24908 1.44239 5.26366C1.42031 5.27824 1.39823 5.28918 1.37983 5.3074C1.35776 5.32199 1.33936 5.34021 1.31728 5.35479C1.29888 5.36937 1.28416 5.38031 1.26576 5.39489C1.26208 5.39853 1.2584 5.39853 1.25472 5.40218C1.25104 5.40582 1.24736 5.40947 1.24368 5.40947C1.22528 5.42405 1.21056 5.43863 1.19584 5.45321C1.17744 5.47144 1.15536 5.48602 1.13696 5.50424C1.11856 5.52247 1.10017 5.5407 1.08177 5.55892C1.06705 5.5735 1.04865 5.58808 1.03393 5.60631C1.02657 5.6136 1.01921 5.62089 1.01185 5.62454C0.997129 5.63912 0.98241 5.65734 0.96769 5.67192C0.949291 5.69015 0.934572 5.70473 0.916172 5.72296C0.901453 5.73754 0.886733 5.75576 0.875694 5.77399C0.860974 5.79222 0.842575 5.81044 0.827856 5.82867C0.820496 5.8396 0.809456 5.84689 0.802097 5.85783C0.787377 5.87606 0.772658 5.89793 0.757938 5.91615C0.743219 5.93438 0.728499 5.94896 0.71746 5.96719C0.70642 5.98177 0.699061 5.99635 0.688021 6.01093C0.673302 6.0328 0.654902 6.05467 0.640183 6.07654C0.632823 6.08748 0.625463 6.09841 0.618104 6.10935C0.603384 6.13122 0.592345 6.15309 0.577625 6.17496C0.566586 6.19319 0.555546 6.21141 0.544506 6.22964C0.540827 6.23328 0.540827 6.23693 0.537147 6.24057C0.529787 6.25151 0.526107 6.2588 0.522427 6.26974C0.507708 6.29161 0.496668 6.31712 0.481949 6.339C0.474589 6.34993 0.467229 6.36087 0.463549 6.37545C0.45251 6.39732 0.44147 6.41919 0.430431 6.44471C0.419391 6.46658 0.408352 6.4848 0.400992 6.50667C0.393632 6.52126 0.386272 6.53948 0.378913 6.55406C0.367873 6.57958 0.356833 6.60145 0.345794 6.62697C0.342114 6.6379 0.334754 6.64884 0.331074 6.65977C0.323715 6.68164 0.316355 6.69987 0.308995 6.72174C0.301636 6.74361 0.290596 6.76913 0.283236 6.791C0.275877 6.80923 0.268517 6.8311 0.261157 6.84932C0.253797 6.87119 0.246438 6.89671 0.239078 6.91858C0.235398 6.92952 0.231718 6.94045 0.228038 6.95139C0.224358 6.96597 0.220679 6.9842 0.216999 7.00242C0.209639 7.02794 0.202279 7.0571 0.19492 7.08262C0.18756 7.10449 0.18388 7.13 0.17652 7.15187C0.17284 7.17375 0.169161 7.19197 0.165481 7.21384C0.161801 7.22842 0.158121 7.23936 0.158121 7.25394C0.158121 7.25759 0.154441 7.26123 0.154441 7.26488C0.150761 7.27581 0.150761 7.28675 0.150761 7.29768C0.147081 7.32684 0.139722 7.35236 0.136042 7.38152C0.132362 7.40704 0.128682 7.4362 0.125002 7.46172C0.121322 7.47994 0.121322 7.49452 0.121322 7.51275C0.121322 7.52733 0.117642 7.54191 0.117642 7.55649C0.117642 7.57472 0.113963 7.5893 0.113963 7.60752C0.113963 7.63304 0.110283 7.6622 0.110283 7.68772C0.110283 7.71688 0.110283 7.74604 0.110283 7.77156C0.110283 7.78249 0.110283 7.79343 0.110283 7.80437C0.0992432 7.80801 0.0992432 7.81166 0.0992432 7.8153Z" fill="white"/>
<path d="M7.42995 13.4216C7.54034 13.2867 7.6581 13.1482 7.83105 13.079C7.98929 13.017 8.18064 12.9951 8.34623 13.0462C8.50815 13.0972 8.62958 13.2066 8.76942 13.2904C8.90189 13.3779 9.05277 13.4508 9.22204 13.4581C9.68938 13.4799 10.0868 13.1336 10.1089 12.6853C10.131 12.2369 9.77402 11.8505 9.30668 11.8287C9.1374 11.8214 8.97917 11.8761 8.83565 11.9526C8.68846 12.0219 8.5523 12.1166 8.38671 12.1531C8.21376 12.1895 8.02976 12.1494 7.87521 12.0693C7.70962 11.9854 7.60658 11.8323 7.5109 11.6902C7.40051 11.5334 7.29011 11.3876 7.1466 11.2673C6.95892 11.1106 6.74181 11.0049 6.50998 10.9429C6.39959 10.9174 6.28551 10.8991 6.17511 10.8955C5.26987 10.8518 4.4971 11.5298 4.45294 12.4083C4.4051 13.2867 5.10427 14.0377 6.00952 14.0814C6.11992 14.0887 6.23767 14.0814 6.34807 14.0668C6.58358 14.0267 6.81173 13.9429 7.01412 13.808C7.17972 13.7023 7.30483 13.5674 7.42995 13.4216Z" fill="white"/>
<path d="M8.48579 10.1337C8.15828 10.1337 7.88965 10.3925 7.88965 10.7133C7.88965 11.034 8.1546 11.2928 8.48579 11.2928C8.81697 11.2928 9.08192 11.034 9.08192 10.7133C9.08192 10.3925 8.81329 10.1337 8.48579 10.1337Z" fill="#DE2227"/>
<path d="M3.2162 20.5297C4.99246 20.5297 6.4324 19.1311 6.4324 17.4058C6.4324 15.6805 4.99246 14.2819 3.2162 14.2819C1.43994 14.2819 0 15.6805 0 17.4058C0 19.1311 1.43994 20.5297 3.2162 20.5297Z" fill="white"/>
<path d="M10.0935 18.2442C10.1524 18.1531 10.2076 18.051 10.2518 17.949C10.3364 17.7302 10.3732 17.4969 10.3548 17.26C10.3364 17.0741 10.2812 16.9028 10.215 16.7278C10.1524 16.5674 10.0862 16.3961 10.1119 16.2175C10.1377 16.0534 10.2113 15.8821 10.3438 15.7655C10.4689 15.6561 10.6271 15.6051 10.7706 15.5285C10.9178 15.4629 11.054 15.3682 11.146 15.2296C11.3999 14.8469 11.2895 14.3402 10.8994 14.096C10.513 13.8517 9.9905 13.9611 9.73291 14.3439C9.64091 14.4824 9.61147 14.6428 9.6078 14.7995C9.59676 14.9562 9.61147 15.1203 9.56364 15.277C9.50844 15.4411 9.37964 15.5759 9.23613 15.6671C9.07789 15.7655 8.8939 15.7764 8.71727 15.7837C8.52224 15.7983 8.33824 15.8165 8.15793 15.8785C7.9261 15.9587 7.72371 16.0863 7.55075 16.2503C7.47347 16.3305 7.39988 16.418 7.341 16.5091C6.8479 17.2491 7.06501 18.2369 7.82674 18.7144C8.58479 19.1956 9.60043 18.9842 10.0935 18.2442Z" fill="white"/>
<path d="M8.68834 13.9247C8.40499 13.7643 8.04068 13.859 7.87509 14.1361C7.70949 14.4131 7.80885 14.7667 8.0922 14.9271C8.37555 15.0875 8.73986 14.9927 8.90545 14.7157C9.07104 14.4386 8.97537 14.0851 8.68834 13.9247Z" fill="#DE2227"/>
<path d="M11.7456 25.2904C13.5219 25.2904 14.9618 23.8917 14.9618 22.1664C14.9618 20.4411 13.5219 19.0425 11.7456 19.0425C9.96936 19.0425 8.52942 20.4411 8.52942 22.1664C8.52942 23.8917 9.96936 25.2904 11.7456 25.2904Z" fill="white"/>
<path d="M15.7613 16.5309C15.6068 16.3523 15.4191 16.2029 15.1983 16.1008C15.0254 16.0243 14.845 15.9842 14.6537 15.9514C14.4771 15.9258 14.2931 15.8967 14.1495 15.7837C14.0134 15.6816 13.8993 15.5322 13.8625 15.3645C13.8294 15.2041 13.8625 15.0437 13.8662 14.887C13.8809 14.7302 13.8662 14.5662 13.7889 14.4204C13.5755 14.0158 13.0677 13.8554 12.6555 14.0595C12.2434 14.2636 12.0778 14.7594 12.2912 15.164C12.3685 15.3098 12.4973 15.4155 12.6334 15.4993C12.7696 15.5905 12.9205 15.6561 13.0345 15.7764C13.1523 15.904 13.2075 16.0789 13.2149 16.2466C13.2222 16.4289 13.1376 16.5893 13.0603 16.7424C12.9757 16.9137 12.9021 17.0777 12.8653 17.26C12.8211 17.4969 12.8358 17.7302 12.8947 17.9562C12.9278 18.0619 12.9683 18.1676 13.0198 18.2624C13.432 19.0461 14.4219 19.356 15.2277 18.955C16.0336 18.554 16.3538 17.5917 15.9416 16.808C15.8938 16.7132 15.8312 16.6184 15.7613 16.5309Z" fill="white"/>
<path d="M11.2306 16.6513C11.3962 16.9283 11.7605 17.0231 12.0439 16.8627C12.3272 16.7023 12.4266 16.3487 12.261 16.0717C12.0954 15.7947 11.7311 15.6999 11.4477 15.8603C11.1644 16.0207 11.0687 16.3742 11.2306 16.6513Z" fill="#DE2227"/>
<path d="M19.7201 14.3293C17.9722 14.6282 16.802 16.2503 17.1111 17.949C17.4202 19.6476 19.0872 20.785 20.8351 20.4824C22.5831 20.1835 23.7533 18.5614 23.4441 16.8627C23.135 15.1641 21.4681 14.0304 19.7201 14.3293Z" fill="white"/>
<path d="M19.0463 12.8858C19.0942 12.0073 18.395 11.2564 17.4897 11.2126C17.3794 11.2053 17.2616 11.2126 17.1512 11.2272C16.9157 11.2673 16.6875 11.3512 16.4851 11.486C16.3306 11.5917 16.2055 11.7266 16.0804 11.8724C15.97 12.0073 15.8522 12.1458 15.6793 12.2151C15.521 12.277 15.3297 12.2989 15.1641 12.2479C15.0022 12.1968 14.8807 12.0875 14.7409 12.0036C14.6084 11.9162 14.4575 11.8433 14.2883 11.836C13.8209 11.8141 13.4235 12.1604 13.4014 12.6087C13.3793 13.0571 13.7363 13.4435 14.2036 13.4654C14.3729 13.4727 14.5311 13.418 14.6747 13.3414C14.8218 13.2722 14.958 13.1774 15.1236 13.1409C15.2966 13.1045 15.4805 13.1446 15.6351 13.2248C15.8007 13.3086 15.9037 13.4617 15.9994 13.6039C16.1098 13.7606 16.2202 13.9064 16.3637 14.0267C16.5514 14.1835 16.7685 14.2892 17.0003 14.3512C17.1107 14.3767 17.2248 14.3949 17.3352 14.3985C18.2294 14.4459 19.0022 13.7679 19.0463 12.8858Z" fill="white"/>
<path d="M15.0104 15.1604C15.3379 15.1604 15.6065 14.9016 15.6065 14.5808C15.6065 14.26 15.3416 14.0012 15.0104 14.0012C14.6792 14.0012 14.4142 14.26 14.4142 14.5808C14.4142 14.9016 14.6792 15.1604 15.0104 15.1604Z" fill="#DE2227"/>
<path d="M21.3769 4.87C19.7099 4.27947 17.8627 5.11422 17.2555 6.73634C16.6483 8.35845 17.5094 10.1519 19.1764 10.7424C20.8433 11.3329 22.6906 10.4982 23.2978 8.87607C23.9087 7.25396 23.0476 5.46052 21.3769 4.87Z" fill="white"/>
<path d="M13.2842 7.19197C13.2253 7.2831 13.1701 7.38517 13.126 7.48723C13.0413 7.70594 13.0045 7.93924 13.0229 8.17618C13.0413 8.36208 13.0965 8.53341 13.1628 8.70837C13.2253 8.86876 13.2916 9.04009 13.2658 9.2187C13.24 9.38274 13.1664 9.55406 13.034 9.67071C12.9089 9.78006 12.7506 9.8311 12.6071 9.90764C12.4599 9.97326 12.3238 10.068 12.2318 10.2066C11.9778 10.5893 12.0882 11.096 12.4783 11.3402C12.8647 11.5844 13.3872 11.4751 13.6448 11.0923C13.7368 10.9538 13.7663 10.7934 13.7699 10.6367C13.781 10.4799 13.7663 10.3159 13.8141 10.1592C13.8693 9.99513 13.9981 9.86026 14.1416 9.76913C14.2998 9.67071 14.4838 9.65977 14.6605 9.65248C14.8555 9.6379 15.0395 9.61967 15.2198 9.55771C15.4516 9.47751 15.654 9.34993 15.827 9.1859C15.9043 9.1057 15.9779 9.01822 16.0367 8.92709C16.5298 8.18711 16.3127 7.19926 15.551 6.72174C14.7929 6.24422 13.7736 6.45564 13.2842 7.19197Z" fill="white"/>
<path d="M14.5869 10.5784C14.4213 10.8554 14.5207 11.209 14.8041 11.3694C15.0874 11.5298 15.4517 11.435 15.6173 11.158C15.7829 10.8809 15.6835 10.5273 15.4002 10.367C15.1168 10.2066 14.7525 10.3013 14.5869 10.5784Z" fill="#DE2227"/>
<path d="M11.7456 6.24787C13.5219 6.24787 14.9618 4.84924 14.9618 3.12394C14.9618 1.39863 13.5219 0 11.7456 0C9.96936 0 8.52942 1.39863 8.52942 3.12394C8.52942 4.84924 9.96936 6.24787 11.7456 6.24787Z" fill="white"/>
<path d="M7.83909 8.90522C7.99365 9.08383 8.18132 9.23328 8.40211 9.33535C8.57506 9.4119 8.75538 9.452 8.94673 9.4848C9.12336 9.51032 9.30736 9.53948 9.45087 9.65248C9.58703 9.75455 9.7011 9.904 9.7379 10.0717C9.77102 10.2321 9.7379 10.3925 9.73422 10.5492C9.7195 10.7059 9.73422 10.87 9.8115 11.0158C10.0249 11.4204 10.5328 11.5808 10.9449 11.3767C11.357 11.1725 11.5226 10.6768 11.3092 10.2722C11.2319 10.1264 11.1031 10.0206 10.967 9.93681C10.8308 9.84568 10.6799 9.78006 10.5659 9.65977C10.4481 9.53219 10.3929 9.35722 10.3856 9.18954C10.3782 9.00728 10.4628 8.84689 10.5401 8.69379C10.6247 8.52247 10.6983 8.35844 10.7351 8.17618C10.7793 7.93924 10.7646 7.70595 10.7057 7.47994C10.6726 7.37423 10.6321 7.26852 10.5806 7.17375C10.1684 6.39003 9.17856 6.08019 8.37267 6.48116C7.56678 6.88213 7.24663 7.84446 7.65878 8.62818C7.70662 8.72296 7.77285 8.81773 7.83909 8.90522Z" fill="white"/>
<path d="M12.2609 8.64277C12.0953 8.36573 11.731 8.27096 11.4477 8.43134C11.1643 8.59173 11.065 8.94532 11.2306 9.22235C11.3962 9.49939 11.7605 9.59416 12.0438 9.43377C12.3308 9.27339 12.4265 8.9198 12.2609 8.64277Z" fill="#DE2227"/>
</svg>
